<svg width="271" height="219" viewBox="0 0 271 219" fill="none" xmlns="http://www.w3.org/2000/svg">
<path d="M104.031 53.9575C103.932 53.8592 103.834 53.6626 103.834 53.5644C103.834 50.8124 103.834 47.9622 103.834 45.2103C103.834 44.5223 104.228 44.1292 104.819 43.8343C110.237 41.1807 115.754 38.9202 121.665 37.6425C127.182 36.4631 132.797 35.8734 138.412 36.07C145.998 36.3648 153.387 37.8391 160.381 40.7876C162.253 41.5738 164.026 42.4584 165.898 43.2446C167.277 43.8343 167.868 44.6206 167.77 46.1931C167.671 48.1588 167.77 50.2227 167.77 52.1884C167.77 52.385 167.77 52.4832 167.77 52.6798C167.671 53.0729 167.967 53.5644 167.474 53.8592C167.08 54.1541 166.686 53.6626 166.39 53.4661C165.602 52.9747 164.814 52.4832 164.026 51.9918C159.297 49.2399 154.372 47.3725 149.052 46.0948C142.747 44.5223 136.344 44.2275 129.94 44.8172C122.059 45.6034 114.572 47.8639 107.676 51.7953C106.494 52.4832 105.41 53.1712 104.228 53.8592C104.228 54.0558 104.13 53.9575 104.031 53.9575ZM149.052 40.3944C141.072 38.2322 133.388 38.3305 125.606 39.8047C133.388 39.4116 141.072 39.5099 149.052 40.3944Z" fill="#05497B"/>
<path d="M261.358 172.782C259.191 172.782 257.122 172.782 254.954 172.782C253.181 172.782 251.408 172.684 250.029 171.406C249.536 171.013 249.142 171.308 248.748 171.603C247.763 172.29 246.778 172.684 245.596 172.782C244.019 172.88 242.64 172.585 241.261 171.799C240.571 171.406 239.98 171.308 239.291 171.897C238.404 172.585 237.222 172.88 236.04 172.88C234.365 172.88 232.592 172.88 230.917 172.88C229.932 172.88 228.947 172.684 228.257 171.996C227.863 171.603 227.568 171.603 227.272 171.996C226.484 172.88 225.499 172.978 224.415 172.978C222.445 172.88 220.475 172.978 218.504 172.88C217.224 172.88 216.041 172.487 215.056 171.603C214.465 171.111 214.071 171.209 213.579 171.603C212.101 172.88 210.328 172.978 208.456 172.782C206.88 172.585 205.5 171.996 204.417 170.718C203.629 169.833 203.53 169.833 202.841 170.718C201.56 172.29 199.984 172.585 198.112 172.29C196.339 171.996 195.058 171.013 194.565 169.44C192.792 164.723 195.649 160.988 200.082 160.398C200.673 160.3 201.363 160.3 201.954 160.3C202.446 160.3 202.939 160.202 203.333 159.71C203.727 159.317 205.796 159.121 206.289 159.415C206.683 159.71 206.683 160.103 206.683 160.497C206.683 162.069 206.683 163.74 206.683 165.312C206.683 166 206.683 166.787 206.781 167.475C206.978 168.851 208.062 169.539 209.638 169.539C211.214 169.539 212.199 168.851 212.495 167.475C212.692 166.099 212.593 164.723 212.593 163.347C212.593 162.167 212.692 162.069 213.973 162.069C214.17 162.069 214.268 162.069 214.465 162.069C215.943 162.069 216.041 162.167 216.041 163.642C216.041 164.821 216.041 165.902 216.041 167.081C216.14 168.654 216.83 169.44 218.406 169.637C219.686 169.735 220.967 169.735 222.248 169.735C222.839 169.735 223.036 169.342 222.543 168.851C222.445 168.752 222.346 168.654 222.248 168.556C220.77 167.671 220.967 166.295 221.46 165.018C222.346 162.462 225.006 160.3 228.75 160.693C231.705 160.988 234.267 163.347 234.759 166.295C234.956 167.18 234.562 167.671 233.971 168.163C233.577 168.556 232.69 168.949 232.986 169.539C233.281 170.128 234.07 169.833 234.661 169.833C237.715 169.833 237.715 169.833 238.503 166.885C238.897 165.214 239.488 163.642 240.67 162.364C242.443 160.202 246.384 160.103 248.551 162.069C250.029 163.347 250.718 165.018 250.915 166.983C251.112 169.047 251.802 169.833 253.772 169.833C257.122 169.932 260.373 169.833 263.722 169.833C264.609 169.833 264.707 169.637 264.609 168.654C264.018 165.411 261.85 163.642 258.501 163.838C258.107 163.838 257.811 163.936 257.417 163.936C256.137 164.133 256.137 164.133 255.94 162.855C255.644 160.988 255.743 160.791 257.713 160.693C260.077 160.497 262.442 160.693 264.51 162.167C266.579 163.543 267.466 165.607 267.958 167.868C268.155 168.851 268.254 169.833 269.633 169.932C270.027 169.932 270.126 170.325 270.224 170.718C270.52 173.077 270.421 173.273 267.958 173.273C265.693 172.782 263.525 172.782 261.358 172.782ZM247.467 166.787C247.467 166.492 247.467 166.295 247.467 166C247.27 164.821 246.187 163.642 245.202 163.543C243.822 163.347 242.936 163.838 242.345 165.312C242.148 165.804 241.951 166.295 241.852 166.787C241.261 168.752 241.557 169.244 243.625 169.637C243.921 169.735 244.216 169.735 244.512 169.735C246.285 169.735 247.467 168.654 247.467 166.787ZM203.235 165.116C203.235 163.445 203.136 163.248 201.461 163.347C200.673 163.347 199.885 163.543 199.196 163.838C197.816 164.428 197.028 166.197 197.422 167.573C197.718 168.752 198.998 169.342 200.476 169.145C201.363 169.047 202.052 168.654 202.446 167.868C203.038 166.885 203.333 166 203.235 165.116ZM227.962 163.543C226.779 163.543 225.597 163.838 224.809 164.821C224.317 165.411 224.218 165.902 224.809 166.492C225.597 167.278 226.385 168.163 227.174 168.949C227.568 169.44 228.06 169.44 228.454 168.949C229.045 168.359 229.735 167.769 230.326 167.081C231.607 165.706 231.41 164.919 229.735 164.035C229.144 163.74 228.651 163.543 227.962 163.543Z" fill="#11507D"/>
<path d="M53.7884 164.427C53.7884 166.786 53.7884 169.047 53.7884 171.405C53.7884 172.683 53.6899 172.781 52.4093 172.781C48.9613 172.781 45.6118 172.781 42.1638 172.781C41.2772 172.781 40.489 172.683 39.898 171.995C39.4054 171.504 38.9128 171.405 38.4202 171.995C37.8292 172.683 37.041 172.683 36.2529 172.683C34.3812 172.683 32.4109 172.683 30.5391 172.683C28.9629 172.683 27.5837 172.388 26.303 171.307C25.8104 170.914 25.4164 170.914 24.9238 171.307C22.1654 173.175 19.3085 173.175 16.4516 171.504C15.8605 171.111 15.3679 171.012 14.7769 171.504C13.1021 172.781 11.2303 172.88 9.16155 172.388C8.07789 172.093 7.97938 172.192 7.78235 173.273C7.78235 173.568 7.68384 173.764 7.68384 174.059C6.89572 177.794 4.43287 178.678 1.47745 178.285C0.787849 178.187 0.59082 177.892 0.59082 177.302C0.59082 177.106 0.59082 176.909 0.59082 176.713C0.59082 175.14 0.59082 175.14 2.16705 175.14C3.74327 175.14 4.43287 174.55 4.53139 172.88C4.6299 170.816 4.6299 168.752 4.6299 166.688C4.6299 165.017 5.22098 163.641 6.20613 162.265C8.37344 159.218 13.9887 159.218 16.1561 163.15C16.7471 164.132 17.0427 165.214 17.1412 166.393C17.1412 168.457 18.2248 169.243 20.1951 169.341C20.6877 169.341 21.0818 169.341 21.5743 169.243C22.7565 169.047 23.4461 168.359 23.6431 167.278C23.7416 166.59 23.7416 165.902 23.8402 165.312C23.8402 162.56 23.8402 159.808 23.8402 157.154C23.8402 156.073 23.9387 156.073 24.9238 155.975C27.1896 155.778 27.1896 155.877 27.1896 158.039C27.1896 160.594 27.1896 163.051 27.1896 165.607C27.1896 165.902 27.1896 166.098 27.1896 166.393C27.2881 168.555 28.1748 169.341 30.2436 169.44C31.2287 169.44 32.3124 169.44 33.2975 169.44C33.8886 169.44 34.0856 169.047 33.6916 168.457C33.5931 168.359 33.4945 168.26 33.396 168.162C32.0168 167.179 32.1153 166 32.6079 164.624C33.6916 161.774 36.2529 160.103 39.7009 160.299C42.5578 160.398 45.1192 162.658 45.8088 165.41C46.0058 166.393 45.9073 167.179 45.1192 167.769C44.8237 167.966 44.6266 168.26 44.3311 168.555C43.937 169.047 44.0355 169.44 44.7252 169.44C46.3014 169.44 47.9761 169.44 49.5523 169.44C50.2419 169.44 50.3405 168.948 50.3405 168.359C50.3405 166.884 50.3405 165.508 50.3405 164.034C50.3405 161.774 50.3405 159.513 50.3405 157.253C50.3405 156.172 50.439 156.073 51.6211 155.975C51.9167 155.975 52.2122 155.975 52.5078 155.975C53.4929 156.073 53.6899 156.172 53.6899 157.154C53.7884 159.611 53.7884 161.97 53.7884 164.427ZM7.97938 167.278C8.07789 168.064 7.78235 168.654 8.37344 169.145C9.26006 169.833 11.4274 169.931 12.511 169.243C13.4962 168.653 13.8902 167.376 13.6932 165.902C13.3977 164.427 12.4125 163.543 11.1318 163.444C9.5556 163.346 8.57046 164.132 8.17641 165.607C7.97938 166.295 7.97938 166.884 7.97938 167.278ZM39.0113 163.543C37.8292 163.543 36.9425 164.034 36.0559 164.82C35.4648 165.41 35.4648 166 36.0559 166.59C36.844 167.376 37.6321 168.162 38.4202 169.047C38.8143 169.44 39.2084 169.44 39.6024 169.047C40.3905 168.26 41.1786 167.474 41.9668 166.59C42.5578 165.902 42.5578 165.41 41.8682 164.722C41.1786 163.838 40.095 163.543 39.0113 163.543Z" fill="#11507D"/>
<path d="M112.7 172.781C108.956 172.781 105.114 172.781 101.371 172.781C100.09 172.781 100.09 172.781 100.09 171.504C100.09 166.786 100.09 161.97 100.09 157.253C100.09 155.975 100.09 155.975 101.371 155.975C103.439 155.877 103.439 155.877 103.439 157.941C103.439 161.282 103.439 164.526 103.439 167.867C103.439 169.341 103.538 169.44 105.016 169.44C107.675 169.44 107.675 169.44 107.675 166.884C107.675 163.739 107.675 160.594 107.675 157.449C107.675 156.073 107.774 155.975 109.153 155.975C109.252 155.975 109.35 155.975 109.449 155.975C111.025 155.975 111.025 155.975 111.025 157.547C111.025 158.923 111.025 160.201 111.025 161.577C111.025 161.97 110.926 162.462 111.419 162.658C111.813 162.756 112.109 162.462 112.306 162.167C114.67 159.71 120.384 159.611 123.142 162.167C124.62 163.543 125.408 165.017 125.408 167.081C125.408 168.555 125.408 169.931 125.408 171.405C125.408 172.781 125.309 172.88 123.832 172.88C120.285 172.781 116.443 172.781 112.7 172.781ZM116.542 169.44C117.822 169.44 119.005 169.44 120.285 169.44C122.453 169.44 122.256 169.636 122.256 167.376C122.256 167.277 122.256 167.277 122.256 167.179C122.256 165.41 121.27 164.231 119.596 163.739C118.216 163.346 116.837 163.444 115.458 163.838C113.488 164.526 111.912 165.705 111.32 167.867C110.926 169.047 111.222 169.341 112.404 169.341C113.783 169.44 115.163 169.44 116.542 169.44Z" fill="#11507D"/>
<path d="M237.912 214.454C228.75 214.454 219.49 214.454 210.328 214.454C209.934 214.454 209.54 214.454 209.048 214.454C207.964 214.356 207.964 214.356 207.865 213.275C207.767 211.407 207.767 211.309 209.639 211.309C228.455 211.309 247.271 211.309 266.087 211.309C267.565 211.309 267.565 211.309 267.565 212.881C267.565 213.176 267.565 213.471 267.565 213.766C267.565 214.159 267.368 214.356 266.974 214.356C266.58 214.356 266.284 214.356 265.89 214.356C256.63 214.454 247.271 214.454 237.912 214.454Z" fill="#11507D"/>
<path d="M29.9483 211.309C38.9131 211.309 47.9764 211.309 56.9412 211.309C57.2367 211.309 57.4337 211.309 57.7293 211.309C59.7981 211.309 59.7981 211.309 59.6996 213.373C59.6996 214.061 59.404 214.454 58.7144 214.454C57.8278 214.454 56.9412 214.454 56.0545 214.454C38.0265 214.454 20.0969 214.454 2.0688 214.454C1.77325 214.454 1.57623 214.454 1.28068 214.454C0.098514 214.356 0 214.356 0 213.078C0 211.407 0 211.309 1.67474 211.309C11.1321 211.309 20.4909 211.309 29.9483 211.309Z" fill="#11507D"/>
<path d="M97.5291 164.33C97.5291 166.688 97.5291 168.949 97.5291 171.308C97.5291 172.684 97.5291 172.782 96.0514 172.782C94.1796 172.782 92.3079 172.782 90.4361 172.684C89.1554 172.684 87.8747 172.389 86.8896 171.406C86.397 170.915 86.003 171.013 85.5104 171.406C84.1312 172.487 82.4564 172.782 80.6832 172.782C78.7129 172.782 76.6441 172.782 74.6738 172.782C72.211 172.684 70.1422 171.897 68.5659 170.03C66.9897 168.163 66.9897 166 67.4823 163.74C67.5808 163.347 67.8764 163.15 68.2704 163.052C68.6645 163.052 69.0585 163.052 69.5511 163.052C70.7333 163.052 70.9303 163.15 70.6347 164.33C69.9451 167.769 72.1125 169.735 75.3634 169.539C77.3337 169.44 79.4025 169.539 81.3728 169.539C83.3431 169.539 84.1312 168.851 84.2297 166.885C84.3282 165.706 84.2297 164.526 84.3282 163.347C84.3282 162.069 84.4267 161.971 85.6089 161.971C87.6777 161.872 87.6777 161.872 87.6777 164.133C87.6777 165.116 87.6777 166.197 87.7762 167.18C87.8747 168.359 88.4658 169.047 89.648 169.342C90.9287 169.735 92.2093 169.44 93.49 169.539C94.0811 169.539 94.2781 169.145 94.2781 168.556C94.2781 167.376 94.2781 166.197 94.2781 165.018C94.2781 162.56 94.2781 160.202 94.2781 157.745C94.2781 156.172 94.4752 155.975 96.0514 156.074C96.1499 156.074 96.1499 156.074 96.2484 156.074C97.6276 156.172 97.6276 156.172 97.6276 157.548C97.5291 159.71 97.5291 161.971 97.5291 164.33Z" fill="#11507D"/>
<path d="M168.656 172.782C165.996 172.782 163.238 172.782 160.578 172.782C159.002 172.782 159.002 172.782 159.002 171.308C159.002 166.885 159.002 162.462 159.002 158.039C159.002 157.646 159.002 157.351 159.002 156.958C159.002 156.27 159.297 156.074 159.987 155.975C160.184 155.975 160.283 155.975 160.48 155.975C162.351 155.877 162.45 155.975 162.45 157.843C162.45 161.283 162.45 164.723 162.45 168.163C162.45 169.342 162.548 169.44 163.632 169.44C163.829 169.44 163.928 169.44 164.125 169.44C164.814 169.342 165.701 169.735 166.193 169.244C166.785 168.654 165.898 168.064 165.898 167.376C165.701 165.705 165.996 164.133 167.08 162.855C168.459 161.283 170.134 160.3 172.301 160.3C173.976 160.3 175.552 160.398 177.129 160.988C177.72 161.283 177.917 161.578 177.72 162.167C177.621 162.462 177.523 162.855 177.326 163.15C176.932 164.133 176.735 164.231 175.651 163.936C174.37 163.543 173.089 163.445 171.809 163.641C170.627 163.838 169.839 164.428 169.346 165.509C168.656 167.376 169.641 169.145 171.71 169.342C173.188 169.44 174.666 169.44 176.242 169.44C176.636 169.44 177.03 169.44 177.523 169.44C177.72 169.44 178.015 169.44 178.114 169.637C178.803 170.423 178.409 171.308 178.409 172.094C178.409 172.782 177.818 172.782 177.227 172.782C175.651 172.782 173.976 172.782 172.4 172.782C171.119 172.782 169.937 172.782 168.656 172.782Z" fill="#11507D"/>
<path d="M154.667 167.278C154.667 168.752 154.667 170.128 154.667 171.602C154.667 172.389 154.47 172.782 153.682 172.782C151.515 172.782 149.446 172.782 147.279 172.684C145.604 172.585 144.225 171.897 143.141 170.521C142.55 169.735 142.452 169.735 141.762 170.521C140.186 172.29 138.314 172.782 136.245 171.996C134.275 171.308 132.896 169.44 132.896 167.278C132.797 163.543 135.063 160.89 138.708 160.3C139.398 160.202 140.087 160.202 140.678 160.103C141.171 160.103 141.663 160.103 142.057 159.612C142.353 159.219 144.52 159.022 145.013 159.219C145.407 159.415 145.308 159.808 145.308 160.202C145.308 161.872 145.308 163.641 145.308 165.312C145.308 165.902 145.308 166.492 145.407 166.983C145.604 168.359 146.392 169.244 147.771 169.342C148.165 169.342 148.559 169.342 149.052 169.342C151.515 169.342 151.318 169.735 151.318 166.983C151.318 165.607 151.318 164.231 151.318 162.757C151.318 161.971 151.613 161.676 152.401 161.676C154.766 161.774 154.667 161.381 154.667 163.936C154.569 165.116 154.667 166.197 154.667 167.278ZM140.383 163.248C139.102 163.248 137.723 163.641 136.738 164.821C136.048 165.705 136.048 166.787 136.344 167.769C136.738 168.752 137.624 169.047 138.609 169.047C139.989 169.145 140.974 168.457 141.565 167.18C141.959 166.393 141.959 165.509 142.057 164.624C142.057 163.543 141.762 163.248 140.383 163.248Z" fill="#11507D"/>
<path d="M193.186 210.817C193.186 212.095 193.186 213.373 193.186 214.65C193.186 215.338 192.891 215.633 192.3 215.633C190.329 215.535 188.359 216.026 186.487 214.945C186.093 214.749 185.699 214.847 185.305 215.043C183.63 215.928 182.054 215.928 180.379 215.043C179.887 214.749 179.394 214.749 178.902 215.043C177.523 215.83 176.242 215.731 174.863 215.043C174.37 214.749 173.878 214.847 173.385 215.142C172.597 215.535 171.809 215.731 171.021 215.633C170.134 215.535 169.641 215.928 169.247 216.714C167.573 219.958 162.154 219.466 160.874 217.009C160.184 215.633 160.184 214.257 160.48 212.783C160.677 211.997 161.268 212.095 161.859 212.193C162.548 212.291 162.45 212.783 162.351 213.274C162.351 213.962 162.154 214.749 162.45 215.436C162.844 216.518 163.534 216.911 164.814 217.009C166.095 217.107 166.982 216.616 167.376 215.731C167.671 215.043 167.77 214.257 167.77 213.471C167.77 212.586 167.77 211.603 167.77 210.719C167.77 210.031 168.164 209.834 168.755 209.834C169.346 209.834 169.937 209.933 169.838 210.719C169.838 211.309 169.838 211.898 169.838 212.39C169.838 212.881 169.838 213.471 170.528 213.569C171.415 213.766 172.301 213.569 172.597 212.979C172.794 212.685 172.794 212.39 172.892 212.095C173.089 211.505 173.188 210.915 173.483 210.326C174.173 208.753 175.454 207.967 177.03 208.164C178.606 208.36 179.887 209.441 180.281 211.014C180.281 211.21 180.281 211.309 180.379 211.505C180.774 213.373 181.857 214.061 183.63 213.373C184.32 213.176 184.616 212.586 184.616 211.898C184.616 211.21 184.616 210.522 184.616 209.933C184.714 209.146 185.01 208.95 185.896 209.048C186.586 209.048 186.783 209.441 186.684 210.031C186.684 210.719 186.684 211.407 186.783 211.997C186.881 212.783 187.374 213.274 188.162 213.373C190.723 213.864 190.92 213.667 190.92 211.014C190.92 209.54 190.92 208.065 190.92 206.493C190.92 205.805 191.117 205.412 191.906 205.412C192.694 205.412 192.989 205.608 192.989 206.493C193.285 207.967 193.186 209.343 193.186 210.817ZM178.508 211.898C178.508 210.817 177.818 210.031 176.833 210.129C175.848 210.129 175.06 211.112 175.06 212.488C175.06 213.274 175.552 213.667 176.537 213.667C177.72 213.667 178.508 212.979 178.508 211.898Z" fill="#11507D"/>
<path d="M128.167 215.535C126.886 215.535 125.605 215.535 124.325 215.535C123.438 215.535 122.552 215.535 121.763 214.945C121.271 214.65 120.778 214.65 120.286 214.945C119.399 215.535 118.315 215.535 117.33 215.535C114.966 215.535 112.602 215.535 110.237 215.535C109.351 215.535 108.858 215.633 108.563 216.616C108.168 218.189 106.494 218.877 104.917 218.287C104.523 218.189 104.523 217.894 104.523 217.501C104.523 217.108 104.622 216.714 105.115 216.518C106.691 215.928 106.691 215.928 106.691 214.257C106.691 212.783 106.691 211.407 106.691 209.933C106.691 209.048 107.577 208.557 108.464 208.95C108.858 209.147 108.76 209.441 108.76 209.736C108.76 210.621 108.76 211.505 108.76 212.39C108.76 213.274 108.957 213.373 110.139 213.373C111.124 213.373 111.222 213.274 111.321 212.39C111.419 211.211 111.321 210.129 111.321 208.95C111.321 208.557 111.321 208.065 111.813 207.967C112.306 207.869 112.996 207.672 113.291 208.36C113.587 209.245 114.079 208.95 114.572 208.655C115.459 208.065 116.345 207.967 117.429 207.967C119.793 207.967 121.468 209.245 121.96 211.604C122.354 213.176 122.552 213.373 124.128 213.471C125.901 213.471 127.674 213.471 129.448 213.471C130.433 213.471 130.63 213.176 130.334 212.193C129.94 210.916 128.856 210.031 127.477 210.031C127.083 210.031 126.689 210.031 126.197 210.031C125.605 210.031 125.31 209.835 125.31 209.245C125.211 208.655 125.408 208.262 126.098 208.065C128.561 207.672 131.319 208.459 132.304 211.211C132.6 212.095 132.698 213.078 133.684 213.668C134.078 213.962 134.078 214.65 133.782 215.142C133.585 215.535 133.093 215.535 132.698 215.535C131.122 215.633 129.645 215.633 128.167 215.535C128.167 215.633 128.167 215.633 128.167 215.535ZM116.148 213.471C116.838 213.471 117.626 213.471 118.315 213.471C119.005 213.471 119.695 213.274 119.892 212.488C120.089 211.702 119.695 210.916 119.005 210.523C117.232 209.441 114.178 210.523 113.488 212.488C113.193 213.176 113.39 213.471 114.178 213.471C114.769 213.569 115.459 213.471 116.148 213.471Z" fill="#11507D"/>
<path d="M91.6183 211.112C91.6183 211.309 91.6183 211.702 91.6183 211.997C91.6183 212.587 91.4212 213.373 92.3079 213.471C93.6871 213.569 94.2782 213.373 94.5737 212.39C94.7707 211.604 94.9678 210.818 95.3618 210.031C96.1499 208.557 97.7261 207.771 99.4009 208.164C100.879 208.459 102.061 210.031 102.159 211.604C102.455 214.847 99.1053 216.321 97.1351 215.142C96.3469 214.749 95.7559 214.651 94.9678 215.142C94.2782 215.535 93.3915 215.535 92.5049 215.535C91.8153 215.535 91.5198 215.83 91.2242 216.42C90.4361 218.385 88.0718 219.368 86.1015 218.778C85.4119 218.582 85.5104 217.992 85.5104 217.501C85.5104 217.009 85.8059 216.813 86.2985 216.813C86.9881 216.813 87.6777 216.911 88.2688 216.616C88.5643 216.518 88.8599 216.42 88.7614 216.027C88.7614 215.732 88.4658 215.633 88.1703 215.633C87.3822 215.437 86.6926 215.339 85.9044 214.945C83.7371 213.864 83.2446 210.818 85.1163 209.245C85.9045 208.557 86.7911 208.066 87.8747 208.066C88.0718 208.066 88.2688 208.066 88.4658 208.066C92.0123 208.164 91.5198 207.574 91.6183 211.112ZM98.3172 213.668C99.2039 213.668 99.8935 213.176 100.09 212.488C100.288 211.702 99.8935 210.719 99.2039 210.326C98.2187 209.835 97.5291 210.228 96.938 211.604C96.3469 212.98 96.8395 213.668 98.3172 213.668ZM89.648 211.8C89.648 210.326 89.451 210.031 88.5643 210.13C86.8896 210.326 86.2985 210.719 86.2 211.8C86.2 212.882 86.9881 213.471 88.4658 213.471C89.5495 213.569 89.648 213.373 89.648 211.8Z" fill="#11507D"/>
<path d="M186.783 168.162C186.783 169.538 186.783 170.914 186.783 172.29C186.783 172.683 186.783 172.978 186.783 173.371C186.389 177.401 183.827 178.187 180.379 177.401C180.281 177.401 180.182 177.401 180.084 177.303C179.394 176.615 180.084 175.927 180.084 175.337C180.084 174.845 180.281 174.452 180.97 174.452C183.335 174.452 183.335 174.354 183.335 172.094C183.335 169.243 183.335 166.393 183.335 163.641C183.335 161.872 183.335 161.872 185.108 161.872C185.207 161.872 185.305 161.872 185.404 161.872C186.684 161.872 186.783 161.872 186.783 163.15C186.783 164.821 186.783 166.491 186.783 168.162Z" fill="#11507D"/>
<path d="M56.3496 164.133C56.3496 161.774 56.3496 159.514 56.3496 157.155C56.3496 155.975 56.3496 155.975 57.5318 155.877C59.6991 155.779 59.6991 155.779 59.6991 157.941C59.6991 162.364 59.6991 166.688 59.6991 171.111C59.6991 171.504 59.6991 171.799 59.6991 172.192C59.6991 172.487 59.5021 172.684 59.2065 172.782C58.4184 172.782 57.6303 172.88 56.9407 172.782C56.3496 172.684 56.4481 172.094 56.4481 171.603C56.3496 169.145 56.4481 166.59 56.3496 164.133Z" fill="#11507D"/>
<path d="M76.7424 215.633C75.7573 215.633 74.7721 215.633 73.787 215.633C72.6048 215.633 71.4227 215.24 70.4375 214.552C69.0583 213.569 68.4672 211.898 69.0583 210.326C69.2553 209.736 69.7479 209.441 70.536 209.638C71.1271 209.736 71.1271 210.129 71.0286 210.621C70.6345 212.586 71.9152 213.569 73.787 213.569C75.0677 213.569 76.3484 213.569 77.629 213.569C79.0082 213.569 79.1068 213.471 79.1068 211.997C79.1068 211.309 79.1068 210.522 79.1068 209.834C79.1068 209.245 79.5008 209.048 79.9934 209.048C80.5845 209.048 81.077 209.048 81.077 209.834C81.077 211.505 81.077 213.274 81.077 214.945C81.077 215.535 80.5845 215.633 80.0919 215.633C79.0082 215.535 77.9246 215.535 76.7424 215.633Z" fill="#11507D"/>
<path d="M192.891 29.3868C192.989 29.3868 192.989 29.2885 193.088 29.1902C191.019 28.6988 188.655 26.9297 186.783 25.9469C184.616 24.8657 182.448 23.6863 180.183 22.6052C175.848 20.3447 171.415 18.0842 167.08 15.8237C158.509 11.4009 150.037 6.97821 141.467 2.65375C141.269 2.55547 141.072 2.45718 140.974 2.3589C139.989 1.86749 139.102 1.37607 138.117 0.884654C137.329 0.491521 136.541 0.0983887 135.753 0.0983887C134.866 0.0983887 133.979 0.491521 133.093 0.982937C124.325 5.50396 115.557 10.025 106.79 14.546C102.356 16.8065 98.0218 19.067 93.5887 21.3275C89.254 23.5881 84.6239 25.5537 80.3878 28.1091C78.8115 29.0919 78.9101 29.9765 80.5848 30.7627C82.4566 31.6473 84.3283 32.5318 86.2001 33.3181C89.8451 34.9889 93.5887 36.6597 97.2337 38.3305C98.3173 38.8219 99.4995 39.3134 100.682 39.3134C101.864 39.3134 103.046 38.7237 104.13 38.134C124.128 28.0108 149.151 28.1091 168.952 38.6254C169.74 39.0185 170.528 39.5099 171.513 39.5099C172.301 39.5099 172.991 39.1168 173.582 38.8219C178.902 36.1683 184.222 33.5147 189.541 30.7627C187.867 31.3524 186.192 32.1387 184.714 33.2198C187.67 32.3353 190.428 31.0576 192.891 29.3868ZM148.264 6.87992C149.545 7.46962 150.727 8.05932 151.909 8.7473C150.825 8.05932 149.545 7.46962 148.264 6.87992ZM158.115 11.7941C157.721 11.5975 157.327 11.4009 156.835 11.2044C157.229 11.4009 157.721 11.5975 158.115 11.7941C159.002 12.1872 159.79 12.5803 160.578 13.0718C159.79 12.6786 158.904 12.1872 158.115 11.7941ZM167.967 17.0031C167.179 16.61 166.292 16.1185 165.504 15.7254C166.292 16.1185 167.08 16.61 167.967 17.0031ZM177.917 22.1138C180.971 23.6863 184.123 25.2589 187.177 26.8314C184.123 25.3572 181.069 23.7846 177.917 22.1138Z" fill="#DA9F49"/>
<path d="M198.309 210.621C198.309 211.898 198.309 213.176 198.309 214.454C198.309 215.043 198.112 215.437 197.422 215.535C196.536 215.633 196.24 215.436 196.24 214.454C196.24 212.39 196.24 210.326 196.24 208.262C196.24 207.77 196.24 207.279 196.24 206.689C196.24 206.001 196.339 205.412 197.225 205.412C198.112 205.412 198.309 205.608 198.309 206.689C198.309 208.065 198.309 209.343 198.309 210.621Z" fill="#11507D"/>
<path d="M146.688 215.633C145.998 215.633 145.308 215.633 144.717 215.633C144.323 215.633 144.028 215.633 143.634 215.436C143.24 215.24 142.944 214.945 143.043 214.454C143.141 214.061 143.338 213.864 143.732 213.667C143.929 213.569 144.126 213.569 144.323 213.569C145.899 213.569 147.377 213.569 148.953 213.569C149.84 213.569 150.037 213.962 150.037 214.748C150.037 215.338 149.741 215.633 149.249 215.633C148.362 215.535 147.476 215.535 146.688 215.633C146.688 215.535 146.688 215.535 146.688 215.633Z" fill="#11507D"/>
<path d="M198.999 154.01C200.082 154.01 200.87 154.698 200.87 155.779C200.87 156.762 200.082 157.646 199.097 157.646C198.014 157.646 197.127 156.762 197.127 155.681C197.127 154.698 197.915 154.01 198.999 154.01Z" fill="#11507D"/>
<path d="M77.1361 175.042C78.1212 175.042 79.1064 175.828 79.1064 176.811C79.1064 177.794 78.3182 178.678 77.3331 178.777C76.2495 178.777 75.4613 178.187 75.3628 177.106C75.2643 175.927 75.9539 175.042 77.1361 175.042Z" fill="#11507D"/>
<path d="M137.722 153.911C138.806 153.911 139.693 154.796 139.693 155.877C139.693 156.762 138.806 157.646 137.722 157.646C136.737 157.646 135.851 156.762 135.851 155.779C135.949 154.698 136.639 153.911 137.722 153.911Z" fill="#11507D"/>
<path d="M144.224 155.877C144.224 156.86 143.337 157.744 142.352 157.646C141.367 157.646 140.48 156.663 140.48 155.779C140.48 154.698 141.269 153.911 142.352 153.911C143.436 153.911 144.224 154.796 144.224 155.877Z" fill="#11507D"/>
<path d="M211.805 175.042C212.79 175.042 213.677 175.828 213.677 176.811C213.677 177.892 212.79 178.678 211.707 178.678C210.722 178.678 209.933 177.794 209.835 176.811C209.835 175.828 210.722 175.042 211.805 175.042Z" fill="#11507D"/>
<path d="M201.757 155.877C201.757 154.698 202.643 153.911 203.727 153.911C204.811 154.01 205.5 154.796 205.5 155.877C205.5 156.86 204.614 157.646 203.727 157.646C202.643 157.646 201.757 156.86 201.757 155.877Z" fill="#11507D"/>
<path d="M218.307 176.811C218.307 177.892 217.519 178.678 216.534 178.678C215.45 178.678 214.563 177.794 214.563 176.713C214.563 175.828 215.45 175.042 216.435 174.944C217.42 174.944 218.307 175.828 218.307 176.811Z" fill="#11507D"/>
<path d="M263.623 176.909C263.623 177.99 262.934 178.777 261.85 178.777C260.766 178.777 259.88 177.892 259.978 176.811C259.978 175.73 260.865 175.042 261.85 175.042C262.934 175.042 263.623 175.828 263.623 176.909Z" fill="#11507D"/>
<path d="M152.401 176.811C152.401 177.99 151.514 178.777 150.43 178.678C149.445 178.678 148.657 177.696 148.657 176.713C148.756 175.632 149.544 174.944 150.628 174.944C151.711 174.944 152.401 175.73 152.401 176.811Z" fill="#11507D"/>
<path d="M74.9689 207.181C74.7719 207.378 74.5749 207.574 74.3778 207.672C73.7868 208.065 73.1957 208.066 72.7031 207.476C72.4076 207.083 72.4076 206.591 72.7031 206.198C73.0972 205.608 73.7868 205.51 74.3778 205.903C74.8704 206.296 75.2645 206.296 75.757 205.903C76.3481 205.412 76.9392 205.51 77.3333 206.1C77.6288 206.493 77.6288 206.984 77.3333 207.378C76.8407 207.967 76.2496 207.967 75.6585 207.574C75.4615 207.574 75.2645 207.378 74.9689 207.181Z" fill="#11507D"/>
<path d="M156.736 177.598C155.85 178.974 155.16 179.072 153.682 178.089C153.584 177.598 153.485 177.204 153.485 176.713C153.485 175.828 154.175 175.239 155.062 175.239C156.047 175.239 156.638 175.73 156.736 176.713C156.835 177.008 156.835 177.303 156.736 177.598Z" fill="#11507D"/>
<path d="M166.291 209.147C166.291 209.736 165.7 210.326 165.109 210.326C164.518 210.326 164.025 209.736 164.025 209.048C164.025 208.459 164.518 208.065 165.109 208.065C165.799 208.164 166.291 208.557 166.291 209.147Z" fill="#11507D"/>
<path d="M116.74 206.886C116.149 206.886 115.656 206.394 115.656 205.805C115.656 205.215 116.149 204.724 116.74 204.724C117.331 204.724 117.725 205.117 117.824 205.805C117.725 206.493 117.331 206.886 116.74 206.886Z" fill="#11507D"/>
<path d="M185.305 217.206H185.206C184.812 216.42 184.32 216.616 183.827 217.009C183.335 217.304 182.941 217.599 183.335 218.287C183.63 218.877 184.418 218.975 185.108 218.68C185.502 218.287 185.403 217.796 185.305 217.206Z" fill="#11507D"/>
<path d="M94.1797 53.466C93.9827 50.5175 93.6871 47.569 93.4901 44.5222C93.3916 43.048 93.2931 41.4754 93.096 40.0012C92.9975 39.2149 92.9975 38.527 92.899 37.7407C92.899 37.151 92.899 36.463 92.4065 36.0699C92.2094 35.8733 91.7169 35.775 91.6183 36.0699C91.5198 36.1682 91.5198 36.3647 91.5198 36.463C91.0273 42.0651 90.6332 47.569 90.1406 53.1711C90.1406 53.3677 90.1406 53.5643 90.1406 53.7608C90.4362 54.842 92.899 54.2523 93.6871 54.154C93.8842 54.154 94.0812 54.0557 94.1797 53.8591C94.1797 53.7608 94.1797 53.6626 94.1797 53.5643C94.1797 53.5643 94.1797 53.5643 94.1797 53.466Z" fill="#05497B"/>
<path d="M91.4203 37.5442V37.642V37.7399L91.3223 37.642L91.4203 37.5442Z" fill="#B39264"/>
<path d="M188.162 218.385C188.655 217.5 188.655 217.304 187.867 216.911C187.768 216.812 187.67 216.812 187.571 216.714C187.078 216.714 186.586 217.009 186.29 217.402C186.093 217.795 186.29 218.188 186.389 218.483C186.29 218.876 186.586 218.68 186.684 218.68C186.881 218.778 187.078 218.778 187.276 218.778V218.876H187.374C187.571 218.876 187.67 218.876 187.867 218.876C188.261 218.876 188.064 218.581 188.162 218.385Z" fill="#11507D"/>
<path d="M88.4656 109.684C87.2834 104.377 84.525 99.9539 80.2889 96.6123C76.0528 93.2706 71.1271 91.7964 65.9059 91.7964C52.1139 91.6981 38.2234 91.6981 24.4314 91.7964C22.0671 91.7964 20.4909 90.9118 19.4072 88.8479C17.5354 85.3097 19.8013 81.0835 23.7418 80.6904C24.6285 80.5921 25.6136 80.5921 26.5002 80.5921C43.1491 80.5921 59.6995 80.5921 76.3484 80.5921C77.9246 80.5921 79.5993 80.3956 81.1756 80.9853C82.1607 81.2801 83.1459 81.8698 83.7369 82.7543C84.0325 83.2458 84.9191 84.4252 84.9191 83.1475C84.9191 80.199 85.0176 77.1522 84.8206 74.2037C84.7221 72.1398 84.131 70.1741 82.8503 68.405C80.3875 64.8668 76.9395 63.3926 72.7034 63.3926C56.4485 63.3926 40.1937 63.3926 23.9389 63.3926C20.9834 63.3926 18.1265 63.9823 15.3681 65.1617C11.132 67.0291 7.48701 69.5844 5.02415 73.5157C0.295475 81.1818 -6.67572e-05 89.1428 4.13753 97.3003C6.10781 101.232 9.06323 104.082 13.0038 106.146C16.8458 108.111 20.8849 109.193 25.2195 109.193C37.8294 109.193 50.3407 109.193 62.9505 109.193C64.0341 109.193 65.1178 109.193 66.2014 109.193C67.7776 109.291 69.2554 109.782 70.2405 111.158C71.6197 113.026 72.0138 115.089 71.0286 117.153C70.0435 119.217 68.3687 120.397 66.0044 120.495C65.1178 120.495 64.1326 120.495 63.246 120.495C56.6456 120.495 50.1436 120.495 43.5432 120.495C36.9427 120.495 30.3423 120.495 23.7418 120.495C21.476 120.495 19.2102 120.495 16.9444 120.495C14.7771 120.495 12.4127 120.692 10.2454 120.495C8.76769 120.299 7.19146 119.807 6.40335 118.628C6.20632 118.431 5.61524 117.252 5.22118 117.645C5.02415 117.841 5.02415 118.038 5.02415 118.235C5.02415 118.628 5.02415 119.021 5.02415 119.414C5.02415 120.495 5.12267 121.576 5.02415 122.657C5.02415 124.426 4.82713 126.294 5.12267 128.063C5.91078 133.272 10.1469 137.203 15.3681 137.793C15.9592 137.891 16.5503 137.891 17.0429 137.891C33.2977 137.891 49.5525 137.891 65.8074 137.891C72.8019 137.891 78.7127 135.238 83.2444 129.93C88.3671 123.738 90.1404 117.153 88.4656 109.684ZM78.9097 74.0072C78.7127 73.8106 78.6142 73.4175 78.4172 73.1226C78.2201 72.8278 78.0231 72.5329 77.8261 72.2381C77.3335 71.5501 76.7424 70.9604 76.0528 70.469C75.3632 69.9775 74.4766 69.5844 73.8855 69.093C73.984 69.093 74.1811 69.093 74.2796 69.093C75.3632 68.8964 76.4469 69.4861 77.235 70.1741C78.1216 70.9604 78.5157 71.8449 78.8112 72.926C78.9097 73.3192 79.0083 73.614 78.9097 74.0072ZM22.5597 103.296L22.4612 103.394C22.2641 103.492 22.0671 103.394 21.9686 103.394C16.3533 102.706 11.7231 99.0694 9.06323 94.1552C8.8662 93.7621 8.66918 93.3689 8.47215 92.9758C6.20632 87.8651 6.30484 82.8526 9.06323 77.9385C9.16175 77.7419 9.35877 77.5453 9.5558 77.3488C9.65432 77.7419 9.5558 78.135 9.35877 78.4299C7.28998 83.9338 7.88106 90.1256 10.935 94.9415C10.935 94.9415 10.935 94.9415 10.935 95.0397C12.4127 97.3985 14.58 99.8556 17.0429 101.133C17.7325 101.526 18.6191 101.723 19.3087 102.018C20.3924 102.411 21.476 102.804 22.5597 103.099C22.6582 103.099 22.6582 103.296 22.5597 103.296ZM11.132 126.982C12.1172 129.144 13.7919 130.52 16.1562 131.699C13.1023 131.699 11.132 129.734 11.132 126.982ZM78.1216 103.001C78.2201 103.001 78.2201 103.001 78.3187 102.902C78.3187 103.001 78.2201 103.001 78.1216 103.001ZM83.3429 115.581C83.2444 118.431 82.3577 121.183 80.88 123.64C80.5845 124.132 80.2889 124.721 79.8949 125.213C79.5993 125.606 79.3038 125.999 78.9097 126.294C78.7127 126.49 78.4172 126.589 78.5157 126.195C78.6142 125.901 78.7127 125.704 78.8112 125.409C79.1068 124.721 79.5008 124.132 79.7964 123.444C80.0919 122.756 80.3875 122.068 80.683 121.38C81.1756 120.004 81.5696 118.529 81.7667 116.957C81.9637 115.089 81.9637 113.222 81.6681 111.355C81.2741 109.193 80.5845 107.129 79.5008 105.261C79.2053 104.77 78.5157 104.18 78.9097 103.492C79.5008 103.787 79.9934 104.377 80.3875 104.966C82.4562 107.915 83.4414 111.65 83.3429 115.188C83.3429 115.286 83.3429 115.483 83.3429 115.581Z" fill="#05497B"/>
<path d="M258.895 109.684C257.713 104.377 254.955 99.9539 250.719 96.6123C246.483 93.2706 241.557 91.7964 236.336 91.7964C222.544 91.6981 208.653 91.6981 194.861 91.7964C192.497 91.7964 190.921 90.9118 189.837 88.8479C187.965 85.3097 190.231 81.0835 194.172 80.6904C195.058 80.5921 196.043 80.5921 196.93 80.5921C213.579 80.5921 230.129 80.5921 246.778 80.5921C248.354 80.5921 250.029 80.3956 251.605 80.9853C252.59 81.2801 253.576 81.8698 254.167 82.7543C254.462 83.2458 255.349 84.4252 255.349 83.1475C255.349 80.199 255.447 77.1522 255.25 74.2037C255.152 72.1398 254.561 70.1741 253.28 68.405C250.817 64.8668 247.369 63.3926 243.133 63.3926C226.878 63.3926 210.623 63.3926 194.369 63.3926C191.413 63.3926 188.556 63.9823 185.798 65.1617C181.562 67.0291 177.917 69.5844 175.454 73.5157C170.725 81.1818 170.43 89.1428 174.567 97.3003C176.537 101.232 179.493 104.082 183.433 106.146C187.276 108.111 191.315 109.193 195.649 109.193C208.259 109.193 220.77 109.193 233.38 109.193C234.464 109.193 235.547 109.193 236.631 109.193C238.207 109.291 239.685 109.782 240.67 111.158C242.049 113.026 242.443 115.089 241.458 117.153C240.473 119.217 238.798 120.397 236.434 120.495C235.547 120.495 234.562 120.495 233.676 120.495C227.075 120.495 220.573 120.495 213.973 120.495C207.372 120.495 200.772 120.495 194.172 120.495C191.906 120.495 189.64 120.495 187.374 120.495C185.207 120.495 182.842 120.692 180.675 120.495C179.197 120.299 177.621 119.807 176.833 118.628C176.636 118.431 176.045 117.252 175.651 117.645C175.454 117.841 175.454 118.038 175.454 118.235C175.454 118.628 175.454 119.021 175.454 119.414C175.454 120.495 175.552 121.576 175.454 122.657C175.454 124.426 175.257 126.294 175.552 128.063C176.34 133.272 180.577 137.203 185.798 137.793C186.389 137.891 186.98 137.891 187.473 137.891C203.727 137.891 219.982 137.891 236.237 137.891C243.232 137.891 249.142 135.238 253.674 129.93C258.797 123.738 260.57 117.153 258.895 109.684ZM249.339 74.0072C249.142 73.8106 249.044 73.4175 248.847 73.1226C248.65 72.8278 248.453 72.5329 248.256 72.2381C247.763 71.5501 247.172 70.9604 246.483 70.469C245.793 69.9775 244.906 69.5844 244.315 69.093C244.414 69.093 244.611 69.093 244.709 69.093C245.793 68.8964 246.877 69.4861 247.665 70.1741C248.551 70.9604 248.945 71.8449 249.241 72.926C249.339 73.3192 249.438 73.614 249.339 74.0072ZM192.989 103.296L192.891 103.394C192.694 103.492 192.497 103.394 192.398 103.394C186.783 102.706 182.153 99.0694 179.493 94.1552C179.296 93.7621 179.099 93.3689 178.902 92.9758C176.636 87.8651 176.735 82.8526 179.493 77.9385C179.591 77.7419 179.788 77.5453 179.985 77.3488C180.084 77.7419 179.985 78.135 179.788 78.4299C177.72 83.7372 178.311 89.929 181.266 94.6466C181.266 94.6466 181.266 94.6466 181.266 94.7449C182.744 97.1037 184.911 99.5608 187.374 100.838C188.064 101.232 188.95 101.428 189.64 101.723C190.724 102.116 191.807 102.509 192.891 102.804C193.088 103.099 193.088 103.296 192.989 103.296ZM181.562 126.982C182.547 129.144 184.222 130.52 186.586 131.699C183.532 131.699 181.562 129.734 181.562 126.982ZM248.551 103.001C248.65 103.001 248.65 103.001 248.748 102.902C248.748 103.001 248.65 103.001 248.551 103.001ZM253.773 115.581C253.674 118.431 252.787 121.183 251.31 123.64C251.014 124.132 250.719 124.721 250.325 125.213C250.029 125.606 249.733 125.999 249.339 126.294C249.142 126.49 248.847 126.589 248.945 126.195C249.044 125.901 249.142 125.704 249.241 125.409C249.536 124.721 249.931 124.132 250.226 123.444C250.522 122.756 250.817 122.068 251.113 121.38C251.605 120.004 251.999 118.529 252.196 116.957C252.393 115.089 252.393 113.222 252.098 111.355C251.704 109.193 251.014 107.129 249.931 105.261C249.635 104.77 248.945 104.18 249.339 103.492C249.931 103.787 250.423 104.377 250.817 104.966C252.886 107.915 253.871 111.65 253.773 115.188C253.773 115.286 253.773 115.483 253.773 115.581Z" fill="#05497B"/>
<path d="M182.842 190.767C182.251 190.472 181.66 190.178 180.97 189.981C180.478 189.785 179.887 189.49 179.493 189.195C178.902 188.703 178.311 188.212 178.508 187.426C178.705 186.541 179.296 186.148 180.084 185.853C180.675 185.657 181.266 185.558 181.857 185.853C182.35 186.05 182.941 186.148 183.532 186.345C183.827 186.443 184.123 186.443 184.418 186.246C185.404 185.263 185.108 183.691 183.827 183.298C181.66 182.61 179.493 182.708 177.424 183.888C174.961 185.362 174.469 188.605 176.34 190.669C177.128 191.554 178.114 192.242 179.197 192.635C179.985 192.93 180.675 193.323 181.463 193.716C182.153 194.109 182.645 194.797 182.547 195.682C182.448 196.566 181.956 197.057 181.168 197.451C180.379 197.745 179.69 197.844 178.902 197.647C178.212 197.451 177.523 197.352 176.833 196.959C176.439 196.763 176.045 196.664 175.651 196.861C174.764 197.451 174.863 199.318 175.848 199.809C177.03 200.301 178.212 200.497 179.493 200.399C179.985 200.399 180.379 200.399 180.872 200.399C183.433 200.104 185.305 198.63 185.699 196.271C186.192 193.618 185.207 192.045 182.842 190.767Z" fill="#EEAD4E"/>
<path d="M125.31 198.237C124.916 197.058 124.817 196.959 123.734 197.156C123.241 197.254 122.748 197.451 122.256 197.549C120.187 197.844 117.035 197.352 115.951 194.207C115.36 192.438 115.36 190.669 116.049 188.9C116.739 187.229 118.02 186.246 119.793 185.755C120.975 185.46 122.157 185.657 123.241 185.952C124.719 186.345 125.014 186.148 125.31 184.772C125.507 183.789 125.211 183.396 123.931 183.101C123.537 183.003 123.142 183.003 122.748 182.905C117.33 182.118 112.109 185.165 112.207 191.947C112.207 195.288 113.39 198.139 116.641 199.613C118.02 200.203 119.399 200.497 120.778 200.399C122.059 200.497 123.34 200.399 124.522 199.908C125.605 199.515 125.704 199.318 125.31 198.237Z" fill="#EEAD4E"/>
<path d="M15.7622 190.866C15.2697 190.571 14.6786 190.374 14.0875 190.079C13.3979 189.785 12.7083 189.588 12.1172 189.097C10.738 188.114 10.9351 186.64 12.4128 185.952C13.4964 185.46 14.383 185.755 15.4667 186.05C17.0429 186.541 17.5355 186.246 17.7325 184.674C17.831 184.084 17.634 183.691 17.1414 183.396C14.7771 182.61 12.4128 182.413 10.1469 183.789C7.48706 185.362 7.38855 189.49 9.35883 190.964C10.2455 191.652 11.2306 192.143 12.3143 192.635C13.1024 193.028 13.8905 193.323 14.4816 193.814C15.5652 194.699 15.5652 196.173 14.4816 196.959C13.8905 197.352 13.2994 197.549 12.6098 197.549C11.6247 197.647 10.6395 197.254 9.75288 196.861C8.66923 196.468 8.37369 196.468 8.07814 197.254C7.48706 198.728 7.48706 199.122 8.57071 199.613C9.75288 200.203 11.0336 200.399 12.3143 200.301C12.7083 200.301 13.1024 200.301 13.5949 200.301C16.0578 200.104 17.9296 198.728 18.4221 196.566C18.9147 194.109 18.1266 192.242 15.7622 190.866Z" fill="#EEAD4E"/>
<path d="M262.343 187.721C261.358 187.033 259.486 187.623 259.191 188.802C258.698 190.375 258.206 191.947 257.615 193.52C257.417 194.011 257.417 194.601 256.925 194.896C256.531 194.699 256.531 194.306 256.432 194.011C255.743 192.242 255.152 190.571 254.462 188.802C254.167 188.016 253.772 187.623 252.886 187.623C250.817 187.623 250.522 187.918 251.31 189.785C252.492 192.635 253.575 195.387 254.758 198.237C255.25 199.318 254.955 200.203 254.167 201.087C253.575 201.677 252.984 202.169 252.196 202.562C251.901 202.758 251.507 202.857 251.408 203.25C251.113 204.724 252.196 205.707 253.674 205.215C253.969 205.117 254.265 204.92 254.462 204.822C256.235 203.839 257.22 202.267 258.009 200.498C259.486 196.96 260.866 193.421 262.245 189.883C262.442 189.49 262.54 189.097 262.639 188.704C262.737 188.212 262.639 187.918 262.343 187.721Z" fill="#EEAD4E"/>
<path d="M90.3377 198.827C90.3377 197.058 90.2392 195.289 90.2392 193.618C90.2392 192.734 90.2392 191.751 89.9437 190.866C89.4511 188.802 87.8749 187.525 85.7076 187.426C84.7224 187.426 83.8358 187.623 83.0477 188.016C82.6536 188.213 82.3581 188.409 81.8655 187.918C81.2744 187.328 80.3878 187.525 79.6982 187.721C78.9101 188.016 79.2057 188.704 79.2057 189.294C79.2057 190.768 79.2057 192.242 79.2057 193.815C79.2057 195.485 79.2057 197.156 79.2057 198.729C79.2057 200.105 79.5012 200.301 80.8804 200.301C81.0774 200.301 81.2744 200.301 81.4715 200.301C82.0626 200.301 82.4566 199.908 82.3581 199.319C82.3581 198.729 82.3581 198.041 82.3581 197.451C82.3581 195.879 82.3581 194.208 82.3581 192.635C82.3581 191.456 83.5403 190.276 84.6239 190.178C85.6091 190.08 86.4957 190.866 86.8897 192.144C87.0868 192.635 86.9883 193.127 86.9883 193.716C86.9883 195.485 86.9883 197.255 86.9883 199.024C86.9883 199.417 86.8897 199.908 87.2838 200.203C87.9734 200.596 88.7615 200.498 89.5496 200.301C90.4363 200.007 90.4363 199.417 90.3377 198.827Z" fill="#EEAD4E"/>
<path d="M43.9371 199.023C43.7401 197.254 43.9371 195.387 43.8386 193.814C43.8386 191.947 43.8386 190.374 43.8386 188.802C43.8386 187.622 43.5431 187.524 42.2624 187.524C40.9817 187.524 40.6862 187.72 40.6862 188.9C40.6862 190.767 40.6862 192.635 40.6862 194.502C40.6862 194.895 40.6862 195.288 40.5877 195.78C40.3906 196.763 39.307 197.647 38.4203 197.745C37.4352 197.844 36.7456 197.156 36.4501 195.878C36.3516 195.387 36.3516 194.993 36.3516 194.502C36.3516 192.929 36.3516 191.357 36.3516 189.883C36.3516 189.784 36.3516 189.686 36.3516 189.588C36.3516 187.819 36.1545 187.622 34.3813 187.72C33.2976 187.819 33.1006 187.917 33.1006 188.998C33.1006 191.259 33.1006 193.421 33.1006 195.681C33.1006 196.173 33.1991 196.566 33.2976 197.057C34.0857 200.596 36.9426 201.185 39.6025 200.301C40.2921 200.104 40.8832 199.514 41.5728 200.399C41.7698 200.596 42.4594 200.497 42.952 200.497C43.7401 200.301 44.0357 200.006 43.9371 199.023Z" fill="#EEAD4E"/>
<path d="M213.579 197.254C213.185 197.353 212.889 197.451 212.495 197.549C211.018 197.746 209.737 197.451 208.85 196.173C207.865 194.797 207.865 193.323 208.653 191.947C209.441 190.571 210.623 189.981 212.101 190.178C212.594 190.276 212.988 190.375 213.48 190.473C214.269 190.669 214.564 190.473 214.86 189.49C215.155 188.409 215.057 188.016 214.269 187.721C211.018 186.443 207.077 187.917 205.501 190.964C205.008 191.947 205.008 193.028 204.91 194.109C204.614 197.451 207.471 200.793 211.412 200.399C212.397 200.399 213.382 200.301 214.367 199.908C215.057 199.613 215.155 199.122 214.86 198.041C214.761 197.353 214.367 197.058 213.579 197.254Z" fill="#EEAD4E"/>
<path d="M100.386 197.549C99.0064 197.549 98.7109 197.254 98.7109 195.78C98.7109 194.502 98.7109 193.323 98.7109 192.045C98.7109 190.375 98.7109 190.375 100.386 190.276C100.583 190.276 100.681 190.276 100.878 190.276C101.765 190.178 101.765 189.588 101.765 188.9C101.765 188.212 101.666 187.623 100.878 187.524C100.189 187.426 99.4005 187.819 99.0064 187.229C98.6124 186.738 98.9079 185.952 98.8094 185.264C98.7109 184.674 98.5138 184.281 97.8242 184.281C96.445 184.281 95.6569 184.969 95.5584 186.345C95.5584 186.935 95.4599 187.426 94.7703 187.426C93.9822 187.524 93.7852 188.016 93.7852 188.704C93.7852 189.392 93.7852 190.08 94.6718 190.178C95.4599 190.276 95.5584 190.768 95.5584 191.357C95.5584 192.045 95.5584 192.832 95.5584 193.52C95.5584 194.699 95.5584 195.78 95.6569 196.96C95.9525 199.711 98.1198 201.087 100.78 200.203C101.469 200.006 101.666 199.417 101.568 198.237C101.371 197.746 100.977 197.648 100.386 197.549Z" fill="#EEAD4E"/>
<path d="M28.1753 190.374C29.0619 190.276 29.1604 190.08 29.2589 188.998C29.2589 187.917 29.1604 187.721 28.2738 187.622C27.6827 187.524 26.9931 187.917 26.5005 187.426C26.1065 186.934 26.3035 186.246 26.3035 185.657C26.3035 185.264 26.3035 184.871 25.8109 184.576C24.9243 184.084 23.0526 185.067 23.0526 186.148C23.0526 186.934 23.0525 187.622 21.9689 187.819C21.2793 187.917 21.2793 188.605 21.2793 189.195C21.2793 189.686 21.2793 190.276 21.8704 190.276C23.2496 190.374 23.0526 191.259 23.0526 192.143C23.0526 192.635 23.0526 193.126 23.0526 193.814C23.0526 194.895 23.0526 196.075 23.2496 197.254C23.7421 199.81 24.8258 200.694 27.3872 200.596C28.9634 200.498 29.1604 200.301 29.1604 198.63C29.1604 197.942 28.9634 197.647 28.1753 197.647C26.7961 197.746 26.5005 197.352 26.5005 195.977C26.5005 194.797 26.5005 193.716 26.5005 192.537C26.3035 190.571 26.3035 190.571 28.1753 190.374Z" fill="#EEAD4E"/>
<path d="M246.975 197.648C245.596 197.549 245.3 197.353 245.3 195.977C245.3 194.601 245.3 193.225 245.3 191.849C245.3 190.473 245.3 190.473 246.778 190.375C247.074 190.375 247.271 190.375 247.566 190.276C248.354 190.08 248.354 189.392 248.354 188.802C248.354 188.212 248.256 187.721 247.468 187.524C246.778 187.426 245.99 187.819 245.497 187.328C245.005 186.836 245.3 185.952 245.202 185.264C245.103 184.871 245.005 184.576 244.611 184.379C243.527 183.986 242.05 184.969 241.951 186.148C241.951 186.935 241.852 187.426 240.966 187.623C240.178 187.721 240.178 188.507 240.178 189.097C240.178 189.687 240.276 190.178 240.966 190.276C241.951 190.375 241.951 190.964 241.951 191.652C241.951 193.421 241.852 195.289 242.148 197.058C242.444 199.417 243.429 200.399 246.089 200.399C246.286 200.399 246.68 200.399 247.172 200.301C248.059 200.105 248.157 199.908 248.059 198.729C247.96 197.648 247.96 197.648 246.975 197.648Z" fill="#EEAD4E"/>
<path d="M148.362 187.426C147.968 187.524 147.673 187.524 147.377 187.721C146.885 188.016 146.49 188.016 145.899 187.721C144.323 186.935 143.437 187.524 143.437 189.195C143.437 192.34 143.437 195.485 143.437 198.63C143.437 200.104 143.634 200.301 145.013 200.301C146.49 200.301 146.687 200.104 146.786 198.63C146.786 198.237 146.786 197.942 146.786 197.549C146.786 196.075 146.786 194.699 146.786 193.225C146.885 191.456 147.574 190.669 149.249 190.473C150.234 190.374 150.333 190.178 150.333 188.998C150.234 187.524 149.938 187.229 148.362 187.426Z" fill="#EEAD4E"/>
<path d="M222.248 194.011C222.248 192.34 222.248 190.571 222.248 188.9C222.248 187.72 222.051 187.524 220.77 187.524C219.293 187.524 219.096 187.72 219.096 188.9C219.096 192.242 219.096 195.583 219.096 198.925C219.096 200.104 219.391 200.301 220.77 200.301C222.051 200.301 222.248 200.104 222.248 198.925C222.248 197.352 222.248 195.681 222.248 194.011Z" fill="#EEAD4E"/>
<path d="M220.573 183.102C219.489 183.102 218.8 183.79 218.8 184.969C218.8 186.148 219.489 186.836 220.573 186.836C221.657 186.836 222.346 186.05 222.346 184.969C222.445 183.79 221.657 183.102 220.573 183.102Z" fill="#EEAD4E"/>
<path d="M167.179 125.213C163.041 121.085 158.805 117.055 154.864 112.731C153.584 111.355 151.909 110.274 150.037 109.782C149.348 109.586 148.658 109.782 148.067 110.274C147.574 110.765 147.082 111.257 146.589 111.748C146.195 112.141 145.702 112.633 145.407 113.124C145.308 113.419 145.21 113.812 145.308 114.107C145.407 114.402 145.505 114.697 145.604 114.991C145.801 115.483 145.9 116.072 145.9 116.564C145.9 116.76 145.9 117.645 145.505 117.547C145.111 117.448 144.619 116.859 144.323 116.564C143.929 116.171 143.634 115.778 143.24 115.384C142.649 114.893 142.057 114.795 141.368 114.991C140.383 115.286 139.398 115.483 138.412 115.679C137.526 115.876 137.132 116.564 136.935 117.448C136.836 118.136 136.639 119.021 136.245 119.611C136.048 119.807 135.851 119.906 135.556 119.709C135.457 119.611 135.359 119.414 135.26 119.218C135.063 118.53 134.767 117.842 134.669 117.055C134.472 116.171 133.979 115.778 133.191 115.679C132.108 115.581 131.122 115.286 130.236 114.893C129.842 114.697 129.448 114.697 129.054 114.893C128.758 115.09 128.561 115.286 128.265 115.483C127.773 116.072 127.182 116.662 126.591 117.154C126 117.645 125.507 116.859 125.704 116.269C125.803 115.778 126 115.286 126.098 114.795C126.295 114.303 126.492 113.615 126.394 113.026C126.295 112.534 125.803 112.338 125.507 112.043C124.916 111.65 124.423 111.158 124.029 110.569C123.537 109.979 123.044 109.291 122.158 109.389C121.369 109.488 120.68 109.979 119.892 110.077C119.498 110.175 119.202 110.175 118.808 110.077C118.513 109.979 118.513 109.782 118.611 109.586C118.907 108.996 119.399 108.406 119.892 107.915C120.384 107.424 121.074 107.129 121.074 106.342C121.074 105.851 120.877 105.458 120.778 104.966C120.581 104.475 120.483 103.984 120.384 103.492C120.187 102.706 119.99 102.018 119.301 101.527C118.808 101.232 118.316 101.133 117.724 101.035C113.882 100.151 110.139 99.0695 106.297 97.9884C105.607 97.7918 105.016 97.3987 104.327 97.497C103.538 97.5952 103.341 98.4798 103.243 99.1678C103.144 100.347 103.243 101.625 103.144 102.903C103.144 103.885 102.652 104.18 101.765 104.377C100.485 104.672 99.2038 105.065 97.8246 105.36C96.741 105.654 95.6573 106.048 94.7707 106.637C92.5049 108.21 92.2093 111.257 93.8841 113.321C94.3766 113.91 95.1647 114.402 95.9529 114.697C96.8395 114.991 97.5291 114.991 98.4157 114.795C100.484 114.402 102.553 113.812 104.524 113.222C104.819 113.124 105.016 113.026 105.312 113.124C105.903 113.124 106.198 113.714 106.395 114.107C106.986 115.384 107.775 116.662 108.563 117.842C108.858 118.333 109.351 119.021 109.154 119.611C109.055 119.906 108.858 120.102 108.661 120.299C107.676 121.281 106.691 122.264 105.706 123.247C104.721 124.23 103.735 125.213 103.243 126.589C102.849 127.768 102.947 129.537 103.735 130.52C105.213 132.486 108.267 133.075 110.336 131.798C111.321 131.208 112.109 130.225 112.897 129.341C113.488 128.653 114.178 128.063 114.868 127.473C115.262 127.178 115.557 126.687 116.05 126.49C116.641 126.294 117.035 126.589 117.527 126.982C118.808 127.768 120.089 128.554 121.369 129.242C121.665 129.439 122.059 129.537 122.256 129.832C122.749 130.324 122.552 130.913 122.355 131.503C121.862 133.272 121.369 135.041 120.877 136.81C120.68 137.793 120.581 138.776 120.975 139.66C122.453 143.395 127.379 143.985 129.448 140.348C130.039 139.366 130.334 138.186 130.63 137.105C130.925 135.926 131.319 134.845 131.418 133.665C131.516 132.977 131.812 132.584 132.502 132.387C132.994 132.289 133.487 132.387 134.078 132.486C135.26 132.682 136.442 132.682 137.624 132.387C138.609 132.191 139.299 132.289 139.693 133.37C139.792 133.665 139.89 134.058 139.989 134.451C140.481 136.319 140.974 138.088 141.565 139.955C142.353 142.216 144.717 143.395 147.279 142.707C149.348 142.117 150.924 139.66 150.333 137.302C149.84 135.238 149.249 133.174 148.756 131.208C148.461 129.93 149.15 129.636 150.234 129.046C151.515 128.358 152.795 127.572 154.076 126.785C155.061 126.097 155.554 126.49 156.342 127.277C157.623 128.554 158.903 129.832 160.184 131.11C161.662 132.584 163.337 133.075 165.307 132.289C168.755 131.503 169.543 127.572 167.179 125.213ZM124.128 121.38C124.029 121.183 123.931 121.085 123.832 120.987C124.029 121.085 124.128 121.183 124.128 121.38ZM146.392 122.952C139.989 126.49 132.009 126.785 125.409 123.739C120.877 121.675 117.133 118.235 114.671 113.91C113.685 112.239 112.996 110.47 112.405 108.603C112.306 108.21 112.011 107.62 112.306 107.227C112.602 106.834 113.094 107.129 113.39 107.424C113.685 107.718 113.784 108.21 113.882 108.603C115.459 114.5 119.99 119.512 125.606 121.969C131.221 124.525 137.723 124.623 143.634 122.952C144.619 122.657 145.604 122.363 146.491 122.756C146.491 122.854 146.392 122.854 146.392 122.952Z" fill="#EEAD4E"/>
<path d="M156.835 194.797C157.82 194.797 158.904 194.797 159.889 194.797C160.48 194.797 161.169 194.797 161.76 194.797C164.026 194.797 164.026 194.797 163.829 192.536C163.731 190.079 162.352 188.212 160.283 187.622C157.82 186.934 155.16 187.721 153.879 189.784C152.303 192.242 152.303 194.895 153.387 197.647C153.584 198.237 153.978 198.728 154.47 199.121C157.032 201.087 159.79 200.792 162.549 199.908C163.337 199.711 163.337 199.22 163.041 198.237C162.844 197.647 162.549 197.057 161.76 197.352C161.071 197.549 160.381 197.745 159.692 197.844C158.115 198.04 156.539 197.156 156.145 195.976C155.85 195.092 156.047 194.797 156.835 194.797ZM157.623 189.784L157.721 189.883C158.411 189.686 159.101 189.883 159.79 190.178L159.889 190.079C159.987 190.178 160.086 190.276 160.184 190.374C160.283 190.472 160.381 190.571 160.48 190.669L160.381 190.767C160.48 190.866 160.48 191.062 160.578 191.16C160.775 192.143 160.775 192.143 159.889 192.242C159.002 192.242 158.017 192.242 157.13 192.242C156.047 192.242 156.047 192.242 156.441 191.062C156.441 190.964 156.539 190.866 156.539 190.767L156.441 190.669C156.539 190.276 156.736 190.079 157.13 190.079C157.13 189.883 157.426 189.883 157.623 189.784ZM159.298 189.588C159.396 189.686 159.495 189.686 159.593 189.784C159.593 189.784 159.495 189.686 159.298 189.588Z" fill="#EEAD4E"/>
<path d="M156.342 190.767C156.44 190.374 156.637 190.178 157.031 190.178C157.031 190.276 157.13 190.276 157.13 190.374C156.933 190.571 156.736 190.767 156.44 190.964C156.44 190.866 156.44 190.767 156.342 190.767Z" fill="#B39264"/>
<path d="M157.031 190.178C157.228 189.981 157.425 189.883 157.622 189.883L157.721 189.981C157.524 190.08 157.327 190.178 157.13 190.276L157.031 190.178Z" fill="#B39264"/>
<path d="M159.889 190.178C159.987 190.276 160.086 190.374 160.184 190.473L160.086 190.571C159.987 190.473 159.889 190.374 159.79 190.276C159.79 190.178 159.889 190.178 159.889 190.178Z" fill="#B39264"/>
<path d="M160.184 190.473C160.283 190.571 160.381 190.669 160.48 190.768L160.381 190.866C160.283 190.768 160.184 190.669 160.086 190.571L160.184 190.473Z" fill="#B39264"/>
<path d="M230.425 194.797C231.41 194.797 232.494 194.797 233.479 194.797C234.267 194.797 235.154 194.797 235.942 194.797C237.419 194.797 237.518 194.699 237.518 193.224C237.518 192.93 237.518 192.635 237.518 192.34C237.222 189.883 235.942 188.212 233.873 187.622C231.114 186.934 228.455 188.114 227.469 189.883C226.287 191.848 226.09 194.011 226.583 196.173C227.075 198.433 228.455 199.809 230.622 200.399C232.395 200.891 234.168 200.694 235.942 200.104C236.828 199.809 236.927 199.416 236.73 198.433C236.533 197.549 236.237 197.352 235.351 197.451C234.661 197.549 233.971 197.745 233.183 197.844C231.607 198.04 230.129 197.156 229.735 195.78C229.538 195.092 229.735 194.797 230.425 194.797ZM234.267 191.16C234.365 191.848 234.464 192.34 233.479 192.34C232.494 192.242 231.509 192.34 230.622 192.34C229.735 192.34 229.637 192.143 230.031 191.357C230.129 191.062 230.326 190.866 230.425 190.571C232.297 189.588 232.789 189.588 234.267 191.16Z" fill="#B39264"/>
<path d="M59.8969 198.827C59.8969 196.271 59.8969 193.814 59.8969 191.259C59.8969 188.802 59.8969 186.443 59.8969 183.986C59.8969 182.315 59.6013 182.119 58.0251 182.217C56.9414 182.315 56.6459 182.512 56.6459 183.593C56.6459 184.674 56.6459 185.755 56.6459 186.836C56.6459 187.819 56.5474 187.917 55.5622 187.721C55.2667 187.622 54.9712 187.524 54.6756 187.524C53.1979 187.328 51.7202 187.524 50.538 188.409C47.6811 190.669 47.3856 195.288 49.0603 197.942C50.538 200.399 53.2964 201.087 55.9563 199.908C56.4489 199.711 56.8429 199.22 57.434 200.006C57.8281 200.596 58.8132 200.399 59.5028 200.104C59.9954 199.908 59.8969 199.318 59.8969 198.827ZM56.4489 195.878C56.0548 196.861 55.3652 197.451 54.2816 197.647C53.1979 197.746 52.4098 197.352 51.8187 196.468C50.735 194.797 51.1291 192.045 52.2128 191.062C53.0009 190.276 53.8875 190.079 54.8726 190.374C55.9563 190.767 56.5474 191.554 56.6459 192.733C56.6459 193.126 56.6459 193.519 56.6459 194.011C56.6459 194.502 56.7444 195.19 56.4489 195.878Z" fill="#EEAD4E"/>
<path d="M67.9748 194.797C68.96 194.797 70.0436 194.797 71.0287 194.797C71.8169 194.797 72.605 194.797 73.3931 194.797C75.2649 194.797 75.2649 194.699 75.2649 192.93C75.2649 192.831 75.2649 192.733 75.2649 192.635C75.0678 190.178 73.6886 188.31 71.7184 187.721C69.2555 187.033 66.6941 187.917 65.2164 189.785C63.8372 191.554 63.5417 195.976 64.9209 198.04C65.512 198.827 66.2016 199.613 67.0882 200.006C69.2555 200.891 71.5213 200.792 73.7871 200.104C74.6738 199.809 74.7723 199.416 74.4767 198.335C74.2797 197.647 73.8857 197.254 73.0975 197.451C72.4079 197.549 71.8169 197.745 71.1273 197.844C69.354 198.04 67.7778 197.156 67.3837 195.78C67.1867 195.092 67.2852 194.797 67.9748 194.797ZM71.9154 191.455C72.0139 191.849 72.0139 192.34 71.4228 192.34C70.2406 192.34 69.0585 192.34 67.8763 192.34C67.3837 192.34 67.2852 192.045 67.3837 191.652C67.4822 191.259 67.8763 190.964 67.8763 190.571C68.2704 190.374 68.6644 190.276 68.96 190.079C70.1421 189.686 71.6198 190.374 71.9154 191.455Z" fill="#EEAD4E"/>
<path d="M138.609 198.827C138.511 197.745 138.511 196.664 138.511 195.19C138.412 194.011 138.708 192.438 138.412 190.866C138.117 189.391 137.329 188.114 135.851 187.622C133.979 187.033 132.206 187.131 130.433 187.819C129.349 188.212 129.152 188.802 129.546 189.883C129.841 190.669 130.137 190.767 131.319 190.374C131.812 190.178 132.304 190.079 132.797 189.981C133.486 189.785 133.979 190.079 134.57 190.374C134.964 190.571 135.26 190.964 135.161 191.357C135.063 191.75 134.669 191.848 134.275 191.848C132.994 191.848 131.812 192.242 130.728 192.733C128.265 193.814 127.674 197.942 129.94 199.613C130.827 200.301 131.812 200.497 132.895 200.301C134.373 200.104 135.752 199.711 137.329 200.104C138.412 200.596 138.806 200.104 138.609 198.827ZM131.91 197.156C131.516 196.566 131.516 195.976 132.009 195.485C132.698 194.6 133.782 194.502 134.57 194.306C135.26 194.306 135.555 194.502 135.555 194.994C135.654 196.271 134.767 197.549 133.486 197.942C132.797 198.04 132.304 197.647 131.91 197.156Z" fill="#EEAD4E"/>
<path d="M201.067 190.767C200.476 189.293 199.392 188.212 197.816 187.721C193.284 186.345 189.344 189.195 189.344 193.913C189.344 194.109 189.344 194.207 189.344 194.404C189.344 196.763 190.329 198.827 192.496 199.908C194.762 200.989 197.028 200.891 199.097 199.515C199.589 199.22 200.082 198.827 200.476 198.335C201.954 195.78 202.151 193.323 201.067 190.767ZM196.24 197.647C195.649 197.942 195.156 197.942 194.664 197.647C193.284 196.959 192.693 195.78 192.595 194.306C192.496 192.733 192.989 191.455 194.269 190.473C195.058 189.883 196.437 190.08 197.323 190.767C198.112 191.455 198.506 192.537 198.506 194.011C198.309 195.485 197.914 196.861 196.24 197.647ZM197.323 188.212C196.732 188.016 196.24 187.917 195.649 187.917C196.24 188.016 196.732 188.114 197.323 188.212Z" fill="#EEAD4E"/>
<path d="M155.652 73.2209L157.327 74.5969L158.115 77.2506L150.037 83.1475L149.84 85.8995L152.106 85.9978L158.608 77.8403L160.874 78.3317L162.45 80.1008L153.387 89.5359L149.348 90.7153L145.21 87.0789L146.688 82.1647L155.652 73.2209Z" fill="#05497B"/>
<path d="M139.988 67.717L142.156 68.1102L144.224 69.9775L140.185 79.1179L141.367 81.575L143.436 80.5921L144.914 70.1741L147.081 69.4861L149.347 70.2724L146.293 82.9509L143.436 85.9977L138.018 84.9166L136.737 79.9041L139.988 67.717Z" fill="#EFAC48"/>
<path d="M123.832 70.1741L125.901 69.3879L128.561 69.9775L129.546 80.0024L131.812 81.575L133.092 79.7076L129.349 69.8793L130.925 68.2085L133.289 67.717L136.737 80.3956L135.752 84.4252L130.531 86.096L126.984 82.3612L123.832 70.1741Z" fill="#05497B"/>
<path d="M110.73 78.8231L112.307 77.2505L114.967 76.6608L120.188 85.1132L122.946 85.5063L123.242 83.3441L115.558 76.1694L116.247 74.0072L118.119 72.533L126.887 82.263L127.773 86.2926L123.833 90.2239L119.006 88.3565L110.73 78.8231Z" fill="#EFAC48"/>
<path d="M103.538 93.8602L104.031 91.698L106.001 89.7323L114.867 94.3516L117.429 93.2705L116.542 91.2066L106.296 89.0443L105.705 86.8821L106.592 84.6216L119.103 88.4546L121.96 91.4031L120.581 96.8087L115.557 97.7915L103.538 93.8602Z" fill="#05497B"/>
<path d="M167.474 67.2258C167.474 67.2258 170.528 68.8966 169.148 73.5159C167.868 78.1352 160.479 75.8747 160.479 75.8747C160.479 75.8747 158.016 71.3537 160.578 68.2086C160.676 68.2086 163.237 64.867 167.474 67.2258Z" fill="#05497B"/>
<path d="M147.476 57.4957C147.476 57.4957 150.924 57.6922 151.712 62.4098C152.5 67.1274 144.915 68.2085 144.915 68.2085C144.915 68.2085 140.777 65.1617 141.664 61.2304C141.762 61.2304 142.649 57.2008 147.476 57.4957Z" fill="#EFAC48"/>
<path d="M93.4903 84.5233C93.4903 84.5233 94.3769 81.1817 99.2041 81.3782C104.031 81.5748 103.539 89.1426 103.539 89.1426C103.539 89.1426 99.6967 92.5825 96.0516 90.8134C95.9531 90.9117 92.2096 89.2409 93.4903 84.5233Z" fill="#05497B"/>
<path d="M123.931 57.594C123.931 57.594 126.787 55.7266 130.334 58.97C133.782 62.3116 128.364 67.6189 128.364 67.6189C128.364 67.6189 123.241 67.7172 121.566 63.8841C121.566 64.0807 119.793 60.3459 123.931 57.594Z" fill="#05497B"/>
<path d="M105.804 66.5375C105.804 66.5375 107.971 64.0805 112.601 66.0461C117.133 68.0118 113.783 74.3019 113.783 74.3019C113.783 74.3019 108.759 75.7762 105.804 72.9259C105.804 72.9259 102.75 70.0757 105.804 66.5375Z" fill="#EFAC48"/>
<path d="M89.9429 53.6626L94.2775 53.7609C94.2775 53.7609 93.5879 56.3162 93.982 57.4956C94.376 58.675 94.8686 60.4441 95.5582 60.9356C95.5582 60.9356 92.7013 63.5892 92.4058 65.0634L92.3072 61.3287C92.3072 61.3287 92.7998 61.1321 92.7998 60.739C92.7998 60.3459 92.4058 60.1493 92.1102 60.2476C91.7162 60.2476 91.5191 60.4441 91.5191 60.739C91.5191 61.0338 91.5191 61.3287 91.8147 61.3287L91.9132 65.3583C91.9132 65.3583 90.2385 61.427 88.7607 61.0338C88.7607 61.0338 90.0414 59.0682 90.1399 57.5939C90.0414 57.5939 90.4355 55.8248 89.9429 53.6626Z" fill="#DA9F49"/>
</svg>
