<svg width="320" height="72" viewBox="0 0 320 72" fill="none" xmlns="http://www.w3.org/2000/svg">
<path d="M275.721 15.9942C275.236 15.9403 274.698 15.9403 274.213 15.9942C274.159 15.9403 274.052 15.8865 274.105 15.8326C274.321 15.6711 274.267 15.4557 274.321 15.2403C274.429 13.6785 274.59 12.1707 274.698 10.609C275.021 10.7705 275.183 11.0398 275.398 11.3091C275.506 12.6554 275.613 14.0017 275.721 15.348C275.721 15.5095 275.721 15.6711 275.883 15.7788C276.044 15.9403 275.775 15.9403 275.721 15.9942Z" fill="#0A4979"/>
<path d="M265.651 39.6351C266.028 39.6351 266.405 39.689 266.782 39.689C273.89 40.2275 280.568 43.5125 286.599 47.3359C287.245 47.7668 287.892 48.1976 288.645 48.2514C289.776 48.3591 290.746 47.6591 291.661 47.0128C296.777 43.4586 302.647 41.0353 308.786 40.0121C310.509 39.689 312.34 39.5274 314.064 39.8505C315.787 40.1736 317.51 41.0891 318.479 42.5431C319.179 43.5663 319.341 45.128 318.426 45.9358C317.887 46.4205 317.133 46.4743 316.433 46.5282C306.363 47.4436 296.616 51.5902 288.969 58.214C280.46 50.9979 269.582 46.7436 258.435 46.2051C259.296 43.5663 259.781 40.8737 262.797 39.9582C263.712 39.689 264.681 39.6351 265.651 39.6351Z" fill="#0A4979"/>
<path d="M265.436 53.3135C266.19 53.3673 266.997 53.475 267.751 53.5827C274.375 54.7136 280.891 57.0831 286.384 60.9604C287.138 61.499 287.946 62.0913 288.807 62.0375C289.615 62.0375 290.315 61.5528 291.015 61.122C296.777 57.2985 303.24 54.229 310.079 53.5289C311.802 53.3673 313.579 53.3135 315.249 53.9059C316.918 54.4444 318.372 55.683 318.91 57.3524C319.18 58.2679 319.072 59.4526 318.21 59.9373C317.833 60.1527 317.403 60.1527 316.972 60.2065C306.632 60.9605 296.616 65.2147 288.807 72.0001C280.406 64.6762 269.421 60.3681 258.327 59.9911C259.35 57.3524 260.05 54.229 263.174 53.475C263.982 53.3673 264.736 53.3135 265.436 53.3135Z" fill="#DCA148"/>
<path d="M289.022 44.4279C287.299 41.7353 285.629 39.0427 283.906 36.3501C282.883 34.6807 281.806 33.0652 281.214 31.1804C279.652 26.5491 282.183 21.3793 287.083 20.2484C289.776 19.6561 292.684 20.4638 294.677 22.3487C296.669 24.2335 297.585 27.1415 297.046 29.8341C296.669 31.7727 295.646 33.496 294.623 35.1654C292.738 38.3427 290.853 41.3584 289.022 44.4279Z" fill="#DCA148"/>
<path d="M274.536 10.7167C274.374 10.5551 274.267 10.3936 274.159 10.1782C273.136 8.77801 273.028 8.07794 274.698 7.21631C279.06 4.95453 283.368 2.69275 287.73 0.430975C288.161 0.215568 288.591 0.000160217 289.076 0.000160217C289.453 0.000160217 289.83 0.215568 290.153 0.377123C295.107 3.01586 300.062 5.65461 305.016 8.2395C303.67 9.8012 302.27 11.4168 300.923 12.9785C300.762 13.14 300.654 13.3016 300.439 13.3554C300.116 13.4631 299.793 13.3016 299.523 13.14C293.115 9.96276 285.199 9.9089 278.736 13.0323C278.413 13.1939 277.983 13.3554 277.606 13.3016C277.39 13.2477 277.175 13.14 277.013 12.9785C276.098 12.3861 275.236 11.5783 274.536 10.7167Z" fill="#DCA148"/>
<path d="M277.714 20.033C277.552 19.1714 277.337 17.7174 277.66 16.8558C277.983 16.1019 279.06 15.5633 279.706 15.1864C285.576 11.8476 293.277 12.063 298.931 15.7249C299.308 15.9941 299.739 16.2634 299.954 16.6942C300.493 17.6636 299.847 18.9021 300.062 19.9792C297.154 17.0173 293.008 15.2941 288.861 15.2941C284.768 15.3479 280.622 17.0712 277.714 20.033Z" fill="#0A4979"/>
<path d="M274.159 15.9941H275.829C275.829 15.9941 275.56 16.9635 275.721 17.4481C275.883 17.9328 276.044 18.579 276.314 18.7944C276.314 18.7944 275.236 19.8176 275.129 20.41L275.075 18.956C275.075 18.956 275.237 18.8483 275.237 18.7406C275.237 18.579 275.075 18.5252 274.967 18.5252C274.806 18.5252 274.752 18.6329 274.752 18.7406C274.752 18.8483 274.752 18.956 274.86 18.956L274.913 20.5177C274.913 20.5177 274.267 19.0098 273.675 18.8483C273.675 18.8483 274.159 18.0944 274.213 17.502C274.213 17.502 274.375 16.8019 274.159 15.9941Z" fill="#DCA148"/>
<path d="M2.36914 32.4727C2.36914 32.2573 2.36914 32.0419 2.36914 31.7726C2.36914 31.5034 2.42299 31.1803 2.42299 30.8572C2.42299 30.534 2.47684 30.2109 2.5307 29.8878C2.58455 29.5647 2.6384 29.2416 2.69225 28.9185C2.7461 28.7569 2.79996 28.5954 2.85381 28.5415C2.90766 28.4338 3.06921 28.4338 3.23077 28.4338H5.81566C6.13877 28.4338 6.30033 28.5954 6.30033 28.9185C6.24648 29.2955 6.24648 29.6186 6.24648 29.9955C6.24648 30.3186 6.24648 30.6418 6.24648 30.8572C6.24648 31.7726 6.30033 32.6343 6.40803 33.442C6.51573 34.196 6.73114 34.8961 7.10811 35.4346C7.43122 35.9731 7.96974 36.4039 8.56211 36.727C9.15448 37.0501 10.07 37.1578 11.147 37.1578C11.5778 37.1578 11.9548 37.1578 12.2779 37.104C12.601 37.104 12.9241 37.0501 13.2472 36.9963C13.2472 36.6193 13.3011 36.2423 13.3011 35.9192C13.3011 35.5961 13.3011 35.273 13.3011 35.0038C13.3011 34.7345 13.3011 34.4114 13.3011 34.1421C13.3011 33.8729 13.3011 33.5498 13.3011 33.1728V31.2341C13.3011 29.1339 13.8934 27.626 15.132 26.6029C16.3706 25.6335 18.1477 25.095 20.4634 25.095C21.2173 25.095 21.9712 25.1489 22.7251 25.2027C23.4791 25.2566 24.0176 25.3643 24.4484 25.4181C24.61 25.472 24.7177 25.5258 24.7715 25.5797C24.8792 25.6335 24.8792 25.7951 24.8792 25.9566V31.6111C24.8792 31.988 24.9331 32.2035 25.0946 32.3112C25.2562 32.4189 25.5254 32.4727 25.9563 32.4727H27.141V36.5116H24.8792C24.233 36.5116 23.6945 36.4578 23.156 36.4039C22.6713 36.2962 22.2405 36.1346 21.9174 35.8654C21.5943 35.5961 21.325 35.2192 21.1096 34.7883C20.948 34.3037 20.8403 33.7113 20.8403 32.9035V28.8646C20.6249 28.8108 20.4634 28.8108 20.3557 28.8108C20.248 28.8108 20.0864 28.8108 19.871 28.8108C18.9555 28.8108 18.2554 29.0262 17.8785 29.457C17.4477 29.8878 17.2323 30.5879 17.2323 31.6649V35.7038C17.2323 36.4578 17.2323 37.1578 17.2323 37.9118C17.2323 38.6657 17.1784 39.3658 17.1784 40.0658C17.1784 40.3889 16.963 40.5505 16.586 40.6582C15.8321 40.8198 14.9166 40.9275 14.0011 40.9813C13.0857 41.0352 12.0625 41.089 11.0393 41.089C8.07744 41.089 5.92336 40.3889 4.46936 39.0426C3.06922 37.4809 2.36914 35.3269 2.36914 32.4727ZM5.76181 43.0815C5.76181 42.92 5.81566 42.7584 5.92336 42.7046C6.03107 42.5969 6.19262 42.543 6.35418 42.543H8.61596C8.77751 42.543 8.88522 42.5969 9.04677 42.7046C9.15448 42.8123 9.20833 42.92 9.20833 43.0815V45.2895C9.20833 45.3972 9.15448 45.5049 8.99292 45.6126C8.88522 45.7203 8.72366 45.7741 8.61596 45.7741H6.40803C6.24648 45.7741 6.08492 45.7203 5.97722 45.6126C5.86951 45.5049 5.81566 45.3972 5.81566 45.2895V43.0815H5.76181ZM10.9854 43.0815C10.9854 42.92 11.0393 42.7584 11.147 42.7046C11.2547 42.5969 11.4163 42.543 11.524 42.543H13.7857C13.9473 42.543 14.055 42.5969 14.1627 42.7046C14.2704 42.8123 14.3243 42.92 14.3243 43.0815V45.2895C14.3243 45.3972 14.2704 45.5049 14.1627 45.6126C14.1088 45.7203 14.0011 45.7741 13.8396 45.7741H11.5778C11.4163 45.7741 11.3086 45.7203 11.2008 45.6126C11.0931 45.5049 11.0393 45.3972 11.0393 45.2895V43.0815H10.9854Z" fill="#0A4979"/>
<path d="M26.1719 32.6881C26.1719 32.5804 26.2796 32.5266 26.495 32.4727C26.7104 32.4188 26.872 32.4188 27.0335 32.4188H30.2646L28.6491 28.2184C28.5952 28.1107 28.5414 28.003 28.5414 27.7876C28.5414 27.626 28.5414 27.4645 28.5414 27.3568L28.5952 25.6874C28.5952 25.5258 28.6491 25.4181 28.7568 25.3104C28.8645 25.2027 28.9722 25.095 29.1337 24.9873C29.4568 24.7719 29.8338 24.5026 30.3185 24.2872C30.8031 24.0718 31.2878 23.9103 31.7725 23.7487C32.311 23.5871 32.8495 23.4794 33.388 23.3717C33.9265 23.264 34.4651 23.264 34.9497 23.264C35.8114 23.264 36.673 23.3717 37.4808 23.5333C38.2885 23.6948 38.9886 24.018 39.581 24.3949C40.1734 24.8257 40.658 25.3643 40.9811 26.0105C41.3042 26.7105 41.5197 27.5183 41.5197 28.5415V29.1877C41.5197 29.7801 41.412 30.3725 41.1965 31.0187C40.9811 31.6649 40.7119 32.1496 40.3888 32.4727H43.2429V36.5116H27.0335C26.872 36.5116 26.7104 36.5116 26.495 36.4577C26.2796 36.4039 26.1719 36.35 26.1719 36.2423V32.6881ZM35.5421 32.5266C35.9191 32.5266 36.2422 32.4188 36.5114 32.2573C36.7807 32.0957 36.9961 31.8265 37.1577 31.5572C37.3192 31.2341 37.4808 30.911 37.5346 30.534C37.6423 30.1571 37.6423 29.7801 37.6423 29.4031V29.1877C37.6423 28.3261 37.4269 27.7337 36.9422 27.3568C36.4576 26.9798 35.8114 26.7644 35.0036 26.7644C34.6805 26.7644 34.2497 26.8183 33.7111 26.8721C33.2265 26.926 32.7418 27.0875 32.311 27.3568L34.3035 32.5804H35.5421V32.5266Z" fill="#0A4979"/>
<path d="M42.1652 32.6881C42.1652 32.5804 42.2729 32.5266 42.4883 32.4727C42.7037 32.4189 42.8653 32.4189 43.0268 32.4189H43.7807C43.9961 32.4189 44.2654 32.365 44.5347 32.3112C44.8039 32.2573 44.9655 32.0957 45.0193 31.8265C45.0732 31.7188 45.0732 31.6649 45.0732 31.5572C45.0732 31.4495 45.0732 31.3957 45.0732 31.288V29.3493C45.0732 28.38 45.2347 27.5183 45.504 26.7644C45.8271 26.0105 46.2041 25.4181 46.7426 24.9334C47.2811 24.4488 47.9273 24.0718 48.6813 23.8026C49.4352 23.5333 50.243 23.4256 51.1584 23.4256C52.0739 23.4256 52.8817 23.5333 53.6356 23.8026C54.3896 24.0718 54.9819 24.3949 55.5204 24.8796C56.059 25.3643 56.4359 25.9566 56.7052 26.7106C56.9744 27.4645 57.136 28.2723 57.136 29.2955V30.8572C57.136 31.8803 56.9744 32.742 56.7052 33.4959C56.4359 34.2498 56.0051 34.8422 55.5204 35.3269C54.9819 35.8115 54.3896 36.1885 53.6356 36.4039C52.8817 36.6193 52.0739 36.727 51.1584 36.727C50.7276 36.727 50.2968 36.727 49.866 36.6732C49.4352 36.6193 49.0044 36.5655 48.6274 36.4577C48.2504 36.35 47.8735 36.2423 47.4965 36.0808C47.1734 35.9192 46.9041 35.7577 46.6887 35.5423C46.3118 35.8654 45.8271 36.1346 45.2886 36.2423C44.7501 36.35 44.1038 36.4577 43.4038 36.4577H42.973C42.8114 36.4577 42.6499 36.4577 42.4344 36.4039C42.219 36.35 42.1113 36.2962 42.1113 36.1885V32.6881H42.1652ZM49.0044 30.6417C49.0044 30.9649 49.0044 31.3418 49.0582 31.6111C49.1659 32.1496 49.4352 32.5266 49.7583 32.742C50.1353 32.9574 50.5661 33.0651 51.1584 33.0651C51.8585 33.0651 52.397 32.9035 52.774 32.5266C53.151 32.1496 53.3125 31.5034 53.3125 30.534V29.5109C53.3125 28.5954 53.151 27.8953 52.774 27.5183C52.4509 27.1414 51.9124 26.926 51.1584 26.926C50.4584 26.926 49.866 27.1414 49.5429 27.5183C49.1659 27.8953 49.0044 28.5954 49.0044 29.5109V30.6417Z" fill="#0A4979"/>
<path d="M60.4748 17.0711C60.4748 16.9095 60.5286 16.8018 60.6363 16.6941C60.744 16.5864 60.8517 16.5326 61.0133 16.5326H63.9751C64.1367 16.5326 64.2982 16.5864 64.3521 16.6941C64.4598 16.8018 64.5136 16.9095 64.5136 17.0711V31.2341C64.5136 31.7188 64.6213 32.0419 64.8368 32.2035C65.0522 32.365 65.3753 32.4189 65.8061 32.4189H66.7754V36.4578H64.6213C63.9751 36.4578 63.4366 36.4039 62.8981 36.2962C62.4134 36.1885 61.9288 36.0269 61.6056 35.7577C61.2287 35.4884 60.9594 35.1115 60.744 34.5729C60.5286 34.0883 60.4209 33.3882 60.4209 32.5804V17.0711H60.4748Z" fill="#0A4979"/>
<path d="M66.5607 36.4577C66.3992 36.4577 66.1837 36.4039 66.0222 36.35C65.8068 36.2962 65.7529 36.2423 65.7529 36.1346V32.6881C65.7529 32.5804 65.8606 32.5266 66.076 32.4727C66.2914 32.4189 66.453 32.4189 66.6146 32.4189H77.008L76.4156 31.2341L75.9848 30.3186C75.7155 29.834 75.4463 29.4031 75.1232 28.9723C74.8 28.5415 74.3692 28.2184 73.8846 27.8953C73.3999 27.5722 72.8075 27.3568 72.1613 27.1952C71.5151 27.0337 70.7612 26.926 69.9534 26.926C69.8995 26.926 69.8457 26.926 69.738 26.926C69.6303 26.926 69.5226 26.926 69.4149 26.926C69.3072 26.926 69.1995 26.926 69.0917 26.926C68.984 26.926 68.8763 26.926 68.8225 26.926C68.4455 26.926 68.284 26.7644 68.284 26.4951V24.018C68.284 23.7487 68.4455 23.5871 68.8225 23.5333C69.3072 23.4256 69.738 23.3717 70.1149 23.3717C70.4919 23.3179 70.9227 23.3179 71.4074 23.3179C72.4306 23.3179 73.346 23.4256 74.2077 23.641C75.0693 23.8564 75.8771 24.2334 76.5772 24.718C77.2772 25.2027 77.9773 25.8489 78.6235 26.6567C79.2697 27.4645 79.8083 28.4338 80.3468 29.5647L80.7237 30.3186C80.8853 30.5879 80.993 30.911 81.1546 31.2341C81.3161 31.5572 81.4238 31.8265 81.5315 31.9342C81.6392 32.0957 81.7469 32.1496 81.8008 32.2573C81.9085 32.3111 82.0162 32.365 82.1778 32.365H82.447V36.4039H66.5607V36.4577ZM71.5689 39.2042C71.5689 39.0426 71.6228 38.8811 71.7843 38.7734C71.892 38.6657 72.0536 38.6118 72.2152 38.6118H74.8C74.9616 38.6118 75.1232 38.6657 75.2309 38.7734C75.3386 38.8811 75.4463 39.0426 75.4463 39.2042V41.6814C75.4463 41.8429 75.3924 41.9506 75.2309 42.0583C75.1232 42.166 74.9616 42.2199 74.8 42.2199H72.2152C72.0536 42.2199 71.892 42.166 71.7843 42.0583C71.6766 41.9506 71.5689 41.8429 71.5689 41.6814V39.2042Z" fill="#0A4979"/>
<path d="M81.3701 32.6881C81.3701 32.5804 81.4778 32.5266 81.6932 32.4727C81.9086 32.4189 82.0702 32.4189 82.2317 32.4189H83.7935C84.1704 32.4189 84.3858 32.365 84.5474 32.3112C84.7089 32.2573 84.7628 31.9881 84.7628 31.6111V17.0711C84.7628 16.9095 84.8166 16.8018 84.9243 16.6941C85.032 16.5864 85.1397 16.5326 85.3013 16.5326H88.2631C88.4247 16.5326 88.5324 16.5864 88.6401 16.6941C88.7478 16.8018 88.8017 16.9095 88.8017 17.0711V32.2573C88.8017 32.7958 88.8017 33.3344 88.7478 33.8729C88.7478 34.4114 88.694 34.9499 88.6401 35.4346C88.5863 35.5961 88.5324 35.7577 88.4786 35.8654C88.4247 35.9731 88.2632 36.0808 88.0477 36.1346C87.8323 36.1885 87.5631 36.2424 87.1323 36.2962C86.7553 36.3501 86.3245 36.3501 85.8937 36.4039C85.4629 36.4039 84.9782 36.4578 84.4935 36.4578C84.0089 36.4578 83.578 36.4578 83.2011 36.4578H82.2317C82.0702 36.4578 81.9086 36.4578 81.6932 36.4039C81.4778 36.3501 81.3701 36.2962 81.3701 36.1885V32.6881Z" fill="#0A4979"/>
<path d="M92.5713 17.0711C92.5713 16.9095 92.6251 16.8018 92.7328 16.6941C92.8406 16.5864 92.9483 16.5326 93.1098 16.5326H96.0717C96.2332 16.5326 96.3409 16.5864 96.4486 16.6941C96.5563 16.8018 96.6102 16.9095 96.6102 17.0711V35.9192C96.6102 36.0808 96.5563 36.1885 96.4486 36.2962C96.3409 36.4039 96.2332 36.4578 96.0717 36.4578H93.1098C92.9483 36.4578 92.7867 36.4039 92.7328 36.2962C92.6251 36.1885 92.5713 36.0808 92.5713 35.9192V17.0711Z" fill="#0A4979"/>
<path d="M106.842 35.8654C106.573 35.8654 106.411 35.7039 106.411 35.4346V33.0113C106.411 32.742 106.573 32.5804 106.842 32.5804H107.865C107.488 32.0419 107.273 31.288 107.273 30.211C107.273 29.2955 107.434 28.5416 107.704 27.9492C107.973 27.3568 108.35 26.8721 108.834 26.4952C109.319 26.1182 109.858 25.9028 110.504 25.7413C111.15 25.5797 111.796 25.5258 112.55 25.5258C112.981 25.5258 113.412 25.5258 113.735 25.5797C114.058 25.6336 114.435 25.6874 114.866 25.7951C115.189 25.849 115.351 26.0105 115.351 26.2259V28.2723C115.351 28.5416 115.189 28.7031 114.92 28.7031C114.543 28.7031 114.22 28.6493 113.95 28.6493C113.681 28.6493 113.466 28.6493 113.25 28.6493C112.335 28.6493 111.689 28.8108 111.258 29.0801C110.881 29.3493 110.665 29.8878 110.665 30.6418C110.665 31.1803 110.773 31.665 110.989 31.9881C111.204 32.365 111.419 32.5804 111.689 32.6881H115.512C115.781 32.6881 115.943 32.8497 115.943 33.119V35.5423C115.943 35.8116 115.781 35.9731 115.512 35.9731H106.842V35.8654Z" fill="#0A4979"/>
<path d="M119.335 17.0711C119.335 16.9095 119.389 16.8018 119.497 16.6941C119.604 16.5864 119.712 16.5326 119.874 16.5326H122.835C122.997 16.5326 123.159 16.5864 123.212 16.6941C123.32 16.8018 123.374 16.9095 123.374 17.0711V31.2341C123.374 31.7188 123.482 32.0419 123.697 32.2035C123.913 32.365 124.236 32.4189 124.666 32.4189H125.636V36.4578H123.482C122.835 36.4578 122.297 36.4039 121.758 36.2962C121.274 36.1885 120.789 36.0269 120.466 35.7577C120.089 35.4884 119.82 35.1115 119.604 34.5729C119.389 34.0883 119.281 33.3882 119.281 32.5804V17.0711H119.335Z" fill="#0A4979"/>
<path d="M124.612 32.6882C124.612 32.5805 124.72 32.5266 124.935 32.4728C125.151 32.4189 125.312 32.4189 125.474 32.4189H128.059C127.79 32.1497 127.574 31.7188 127.413 31.288C127.251 30.8034 127.197 30.2648 127.197 29.6186V29.1878C127.197 28.1646 127.359 27.303 127.736 26.5491C128.059 25.7951 128.597 25.1489 129.19 24.6642C129.836 24.1796 130.59 23.8026 131.451 23.5334C132.313 23.318 133.282 23.1564 134.359 23.1564C134.736 23.1564 135.113 23.1564 135.544 23.2102C135.975 23.2102 136.406 23.2641 136.783 23.3179C137.16 23.3718 137.537 23.4257 137.914 23.4795C138.237 23.5334 138.56 23.5872 138.722 23.6411C138.937 23.6949 139.045 23.7488 139.098 23.8565C139.152 23.9642 139.206 24.0719 139.206 24.1796V32.4189H141.468V36.4578H125.474C125.312 36.4578 125.151 36.4578 124.935 36.404C124.72 36.3501 124.612 36.2962 124.612 36.1885V32.6882ZM129.028 17.8251C129.028 17.6635 129.082 17.5019 129.19 17.3942C129.297 17.2865 129.459 17.2327 129.621 17.2327H131.882C132.044 17.2327 132.205 17.2865 132.313 17.3942C132.421 17.5019 132.529 17.6635 132.529 17.8251V20.3022C132.529 20.4638 132.475 20.5715 132.313 20.6792C132.152 20.7869 132.044 20.8408 131.882 20.8408H129.621C129.459 20.8408 129.297 20.7869 129.19 20.6792C129.082 20.5715 129.028 20.4099 129.028 20.3022V17.8251ZM135.167 32.5266V26.7645C134.79 26.7106 134.359 26.7106 133.875 26.7106C132.044 26.7106 131.128 27.6261 131.128 29.4032V29.7802C131.128 30.6957 131.344 31.3957 131.721 31.8265C132.098 32.3112 132.69 32.5266 133.552 32.5266H135.167ZM134.306 17.8251C134.306 17.6635 134.359 17.5019 134.521 17.3942C134.683 17.2865 134.79 17.2327 134.952 17.2327H137.214C137.375 17.2327 137.537 17.2865 137.644 17.3942C137.752 17.5019 137.806 17.6635 137.806 17.8251V20.3022C137.806 20.4638 137.752 20.5715 137.644 20.6792C137.537 20.7869 137.375 20.8408 137.214 20.8408H134.952C134.79 20.8408 134.629 20.7869 134.521 20.6792C134.359 20.5715 134.306 20.4099 134.306 20.3022V17.8251Z" fill="#0A4979"/>
<path d="M140.392 32.6882C140.392 32.5804 140.499 32.5266 140.715 32.4727C140.93 32.4189 141.092 32.4189 141.253 32.4189H142.761C143.138 32.4189 143.407 32.365 143.515 32.3112C143.623 32.2573 143.73 31.9881 143.73 31.6111C143.73 30.8033 143.73 29.834 143.73 28.7031C143.73 27.5722 143.73 26.4413 143.677 25.2566C143.677 25.095 143.73 24.9873 143.838 24.8796C143.946 24.7719 144.054 24.7181 144.215 24.7181H147.069C147.285 24.7181 147.392 24.7719 147.5 24.8796C147.608 24.9873 147.662 25.095 147.662 25.2566C147.662 25.7951 147.715 26.2798 147.715 26.7106C147.715 27.1414 147.715 27.5722 147.715 27.9492C147.715 28.3261 147.715 28.7031 147.715 29.1339C147.715 29.5647 147.715 29.9417 147.715 30.3725C147.715 31.665 147.715 32.6882 147.715 33.4959C147.715 34.3037 147.662 34.9499 147.608 35.4346C147.554 35.5962 147.5 35.7577 147.446 35.8654C147.392 35.9731 147.231 36.0808 147.015 36.1347C146.8 36.1885 146.531 36.2424 146.154 36.2962C145.777 36.3501 145.4 36.3501 144.915 36.4039C144.484 36.4039 144 36.4578 143.569 36.4578C143.084 36.4578 142.653 36.4578 142.276 36.4578H141.253C141.092 36.4578 140.93 36.4578 140.715 36.4039C140.499 36.3501 140.392 36.2962 140.392 36.1885V32.6882ZM141.199 19.2252C141.199 19.0636 141.253 18.9021 141.361 18.7944C141.469 18.6867 141.63 18.6328 141.792 18.6328H144.054C144.215 18.6328 144.377 18.6867 144.484 18.7944C144.592 18.9021 144.7 19.0636 144.7 19.2252V21.7024C144.7 21.8639 144.646 21.9716 144.484 22.0793C144.323 22.187 144.215 22.2409 144.054 22.2409H141.792C141.63 22.2409 141.469 22.187 141.361 22.0793C141.253 21.9716 141.199 21.8101 141.199 21.7024V19.2252ZM146.477 19.2252C146.477 19.0636 146.531 18.9021 146.692 18.7944C146.854 18.6867 146.962 18.6328 147.123 18.6328H149.385C149.546 18.6328 149.708 18.6867 149.816 18.7944C149.923 18.9021 149.977 19.0636 149.977 19.2252V21.7024C149.977 21.8639 149.923 21.9716 149.816 22.0793C149.708 22.187 149.546 22.2409 149.385 22.2409H147.123C146.962 22.2409 146.8 22.187 146.692 22.0793C146.531 21.9716 146.477 21.8101 146.477 21.7024V19.2252Z" fill="#0A4979"/>
<path d="M148.469 39.635C148.469 39.3119 148.63 39.2042 148.953 39.2042H149.492C149.923 39.2042 150.3 39.2042 150.623 39.1503C150.946 39.0965 151.215 39.0426 151.377 38.8811C151.592 38.7195 151.7 38.5041 151.808 38.2348C151.915 37.9656 151.969 37.5348 151.969 37.0501V25.3643C151.969 25.2027 152.023 25.095 152.131 25.0411C152.238 24.9334 152.346 24.8796 152.508 24.8796H155.416C155.577 24.8796 155.685 24.9334 155.793 25.0411C155.9 25.1488 155.954 25.2565 155.954 25.4181V36.6193C155.954 37.3194 155.9 38.0194 155.846 38.6657C155.793 39.3119 155.577 39.9043 155.308 40.4966C154.877 41.3044 154.285 41.8968 153.531 42.2737C152.777 42.5968 151.861 42.8123 150.731 42.8123C150.623 42.8123 150.515 42.8123 150.354 42.8123C150.192 42.8123 150.03 42.8123 149.869 42.8123C149.707 42.8123 149.492 42.8123 149.33 42.7584C149.169 42.7584 149.007 42.7046 148.9 42.7046C148.63 42.6507 148.523 42.4891 148.523 42.166V39.635H148.469Z" fill="#0A4979"/>
<path d="M158.97 32.9035C158.97 32.5804 159.132 32.4189 159.455 32.4189H169.148C169.525 32.4189 169.741 32.365 169.902 32.3112C170.064 32.2573 170.117 31.9881 170.117 31.6111V17.0711C170.117 16.9095 170.171 16.8018 170.279 16.6941C170.387 16.5864 170.494 16.5326 170.656 16.5326H173.618C173.779 16.5326 173.887 16.5864 173.995 16.6941C174.103 16.8018 174.156 16.9095 174.156 17.0711V32.2573C174.156 32.9035 174.156 33.4959 174.103 33.9806C174.103 34.4652 174.049 34.9499 173.995 35.4346C173.941 35.5961 173.887 35.7577 173.833 35.8654C173.779 35.9731 173.618 36.0808 173.402 36.1346C173.187 36.1885 172.864 36.2423 172.433 36.2962C172.002 36.3501 171.571 36.3501 171.033 36.4039C170.548 36.4039 170.01 36.4578 169.525 36.4578C168.987 36.4578 168.556 36.4578 168.125 36.4578H159.347C159.186 36.4578 159.078 36.4039 158.97 36.3501C158.862 36.2423 158.809 36.1346 158.809 36.0269V32.9035H158.97ZM161.34 43.1892C161.232 43.1892 161.124 43.1892 161.07 43.1354C161.017 43.0815 160.963 43.0277 160.963 42.92V41.9506C160.963 41.8429 161.017 41.7891 161.07 41.7891C161.124 41.7352 161.232 41.7352 161.34 41.7352H161.878C161.717 41.5198 161.663 41.2506 161.555 41.0352C161.501 40.7659 161.447 40.5505 161.447 40.2812C161.447 38.7734 162.309 38.0733 164.086 38.0733C164.248 38.0733 164.463 38.0733 164.732 38.0733C165.002 38.0733 165.271 38.1272 165.486 38.181C165.648 38.2349 165.755 38.2887 165.755 38.4503V39.3119C165.755 39.4735 165.648 39.5812 165.432 39.5812H164.463C164.032 39.5812 163.763 39.635 163.548 39.7966C163.332 39.9581 163.224 40.1735 163.224 40.5505C163.224 40.8198 163.278 41.089 163.332 41.2506C163.44 41.466 163.548 41.5737 163.709 41.6814H165.594C165.863 41.6814 165.971 41.7891 165.971 41.9506V42.92C165.971 43.1354 165.863 43.2431 165.594 43.2431H161.34V43.1892ZM161.77 18.6328C161.77 18.4712 161.824 18.3635 161.932 18.2558C162.04 18.1481 162.147 18.0943 162.309 18.0943H165.163C165.486 18.0943 165.702 18.2558 165.702 18.5789V30.1571C165.702 30.3186 165.648 30.4263 165.54 30.5341C165.432 30.6418 165.325 30.6956 165.163 30.6956H162.309C162.147 30.6956 162.04 30.6418 161.932 30.5341C161.824 30.4263 161.77 30.3186 161.77 30.1571V18.6328Z" fill="#0A4979"/>
<path d="M177.872 17.0711C177.872 16.9095 177.926 16.8018 178.034 16.6941C178.141 16.5864 178.249 16.5326 178.411 16.5326H181.372C181.534 16.5326 181.642 16.5864 181.749 16.6941C181.857 16.8018 181.911 16.9095 181.911 17.0711V35.9192C181.911 36.0808 181.857 36.1885 181.749 36.2962C181.642 36.4039 181.534 36.4578 181.372 36.4578H178.411C178.249 36.4578 178.087 36.4039 178.034 36.2962C177.926 36.1885 177.872 36.0808 177.872 35.9192V17.0711Z" fill="#0A4979"/>
<path d="M189.612 39.635C189.612 39.3119 189.774 39.2042 190.097 39.2042H190.635C191.066 39.2042 191.443 39.2042 191.766 39.1504C192.089 39.0965 192.359 39.0427 192.52 38.8811C192.736 38.7196 192.843 38.5042 192.951 38.2349C193.059 37.9656 193.113 37.5348 193.113 37.0502V25.3643C193.113 25.2027 193.167 25.095 193.274 25.0412C193.382 24.9335 193.49 24.8796 193.651 24.8796H196.559C196.721 24.8796 196.828 24.9335 196.936 25.0412C197.044 25.1489 197.098 25.2566 197.098 25.4181V32.4727H199.359V36.5116H196.99V37.4271C196.99 38.0195 196.936 38.6119 196.882 39.0965C196.775 39.635 196.667 40.0659 196.451 40.4967C196.021 41.3044 195.428 41.8968 194.674 42.2738C193.92 42.5969 193.005 42.8123 191.874 42.8123C191.766 42.8123 191.659 42.8123 191.497 42.8123C191.336 42.8123 191.174 42.8123 191.012 42.8123C190.851 42.8123 190.635 42.8123 190.474 42.7584C190.312 42.7584 190.151 42.7046 190.043 42.7046C189.774 42.6507 189.666 42.4892 189.666 42.1661V39.635H189.612ZM193.22 19.2252C193.22 19.0636 193.274 18.9021 193.382 18.7944C193.49 18.6867 193.651 18.6328 193.813 18.6328H196.451C196.613 18.6328 196.721 18.6867 196.828 18.7944C196.936 18.9021 196.99 19.0636 196.99 19.2252V21.7024C196.99 21.8639 196.936 21.9716 196.828 22.0793C196.721 22.187 196.559 22.2409 196.398 22.2409H193.867C193.651 22.2409 193.543 22.187 193.436 22.0793C193.328 21.9716 193.274 21.8101 193.274 21.7024V19.2252H193.22Z" fill="#0A4979"/>
<path d="M198.336 32.9035C198.336 32.742 198.444 32.6343 198.605 32.5266C198.767 32.4189 198.982 32.365 199.144 32.365H208.837C208.891 32.365 209.106 32.365 209.429 32.365C209.753 32.365 210.13 32.365 210.506 32.365C210.883 32.365 211.26 32.365 211.584 32.365C211.907 32.365 212.122 32.365 212.23 32.365C212.23 32.1496 212.284 31.9342 212.284 31.6649C212.284 31.3957 212.284 31.1803 212.284 30.9649C212.284 29.6724 211.853 28.7569 211.045 28.2184C210.237 27.6799 209.052 27.4106 207.491 27.4106H201.675C201.244 27.4106 201.029 27.2491 200.975 26.926C200.975 26.8721 200.975 26.8183 200.975 26.7106C200.975 26.6029 200.975 26.4952 200.975 26.3875C200.975 26.2798 200.975 26.1721 200.975 26.0643C200.975 25.9566 200.975 25.9028 200.975 25.9028C200.975 25.472 201.029 25.0412 201.082 24.6103C201.136 24.1795 201.298 23.8026 201.406 23.3718C201.567 22.9409 201.729 22.564 201.944 22.1332C202.159 21.7023 202.375 21.2177 202.698 20.733L204.69 17.0711C204.798 16.9095 204.852 16.8018 205.014 16.6941C205.121 16.5864 205.283 16.5326 205.444 16.5326H208.46C208.622 16.5326 208.676 16.5864 208.729 16.6403C208.783 16.6941 208.783 16.748 208.783 16.8557C208.783 16.9634 208.783 17.0172 208.729 17.1249L206.306 21.81C206.252 21.9178 206.144 22.0793 206.037 22.2947C205.929 22.5101 205.875 22.6717 205.768 22.8871C205.66 23.1025 205.606 23.264 205.552 23.4256C205.498 23.5872 205.444 23.6949 205.444 23.7487C206.091 23.6949 206.629 23.6949 207.006 23.6949C207.383 23.6949 207.76 23.6949 208.083 23.6949C209.645 23.6949 210.991 23.8564 212.068 24.2334C213.145 24.6103 214.007 25.1489 214.653 25.8489C215.299 26.549 215.73 27.4106 215.999 28.4338C216.269 29.457 216.376 30.5879 216.376 31.8265V32.5804C216.376 32.742 216.376 33.0112 216.376 33.2805C216.376 33.6036 216.376 33.8729 216.322 34.196C216.322 34.5191 216.269 34.8422 216.269 35.1115C216.269 35.4346 216.215 35.65 216.215 35.8654C216.161 36.1885 215.945 36.3501 215.569 36.3501C215.299 36.4039 214.868 36.4039 214.384 36.4039C213.899 36.4039 213.361 36.4039 212.822 36.4578C212.23 36.4578 211.691 36.4578 211.099 36.4578C210.506 36.4578 209.968 36.4578 209.483 36.4578H199.198C198.982 36.4578 198.821 36.4039 198.659 36.3501C198.497 36.2424 198.39 36.1346 198.39 36.0269V32.9035H198.336Z" fill="#0A4979"/>
<path d="M216.969 39.635C216.969 39.3119 217.13 39.2042 217.453 39.2042H217.992C218.423 39.2042 218.8 39.2042 219.123 39.1503C219.446 39.0965 219.715 39.0426 219.877 38.8811C220.092 38.7195 220.2 38.5041 220.308 38.2348C220.415 37.9656 220.469 37.5348 220.469 37.0501V25.3643C220.469 25.2027 220.523 25.095 220.631 25.0411C220.738 24.9334 220.846 24.8796 221.008 24.8796H223.916C224.077 24.8796 224.185 24.9334 224.293 25.0411C224.4 25.1488 224.454 25.2565 224.454 25.4181V32.4727H226.716V36.5116H224.346V37.4271C224.346 38.0194 224.293 38.6118 224.239 39.0965C224.131 39.635 224.023 40.0658 223.808 40.4966C223.377 41.3044 222.785 41.8968 222.031 42.2737C221.277 42.5968 220.361 42.8123 219.231 42.8123C219.123 42.8123 219.015 42.8123 218.854 42.8123C218.692 42.8123 218.53 42.8123 218.369 42.8123C218.207 42.8123 217.992 42.8123 217.83 42.7584C217.669 42.7584 217.507 42.7046 217.4 42.7046C217.13 42.6507 217.023 42.4891 217.023 42.166V39.635H216.969Z" fill="#0A4979"/>
<path d="M225.693 32.6881C225.693 32.5804 225.8 32.5266 226.016 32.4727C226.231 32.4189 226.393 32.4189 226.554 32.4189H227.308C227.523 32.4189 227.793 32.365 228.062 32.3112C228.331 32.2573 228.493 32.0957 228.547 31.8265C228.601 31.7188 228.601 31.6649 228.601 31.5572C228.601 31.4495 228.601 31.3957 228.601 31.288V29.3493C228.601 28.38 228.762 27.5183 229.031 26.7644C229.354 26.0105 229.731 25.4181 230.27 24.9334C230.808 24.4488 231.455 24.0718 232.209 23.8026C232.963 23.5333 233.77 23.4256 234.686 23.4256C235.601 23.4256 236.409 23.5333 237.163 23.8026C237.917 24.0718 238.509 24.3949 239.048 24.8796C239.586 25.3643 239.963 25.9566 240.233 26.7106C240.502 27.4645 240.663 28.2723 240.663 29.2955V30.8572C240.663 31.8803 240.502 32.742 240.233 33.4959C239.963 34.2498 239.532 34.8422 239.048 35.3269C238.509 35.8115 237.917 36.1885 237.163 36.4039C236.409 36.6193 235.601 36.727 234.686 36.727C234.255 36.727 233.824 36.727 233.393 36.6732C232.963 36.6193 232.532 36.5655 232.155 36.4577C231.778 36.35 231.401 36.2423 231.024 36.0808C230.701 35.9192 230.431 35.7577 230.216 35.5423C229.839 35.8654 229.354 36.1346 228.816 36.2423C228.277 36.35 227.631 36.4577 226.931 36.4577H226.5C226.339 36.4577 226.177 36.4577 225.962 36.4039C225.746 36.35 225.639 36.2962 225.639 36.1885V32.6881H225.693ZM232.478 30.6417C232.478 30.9649 232.478 31.3418 232.532 31.6111C232.639 32.1496 232.909 32.5266 233.232 32.742C233.609 32.9574 234.04 33.0651 234.632 33.0651C235.332 33.0651 235.871 32.9035 236.247 32.5266C236.624 32.1496 236.786 31.5034 236.786 30.534V29.5109C236.786 28.5954 236.624 27.8953 236.247 27.5183C235.924 27.1414 235.386 26.926 234.632 26.926C233.932 26.926 233.339 27.1414 233.016 27.5183C232.639 27.8953 232.478 28.5954 232.478 29.5109V30.6417Z" fill="#0A4979"/>
<path d="M11.632 65.8609C11.632 66.0763 11.5243 66.184 11.3089 66.184H10.1242C10.0164 66.184 9.96259 66.1302 9.90874 66.0763C9.85489 66.0225 9.80104 65.9686 9.80104 65.8609L8.5086 61.2297H3.17726L1.88482 65.8609C1.83096 65.9686 1.83096 66.0225 1.72326 66.0763C1.66941 66.1302 1.5617 66.184 1.50785 66.184H0.323111C0.107704 66.184 0 66.0763 0 65.8609C0 65.8071 0 65.7532 0 65.6994L3.76963 52.5595C3.87733 52.2364 3.98504 52.021 4.14659 51.8056C4.30815 51.5902 4.4697 51.4286 4.68511 51.3209C4.84667 51.2132 5.00822 51.1594 5.22363 51.1055C5.43904 51.0517 5.65445 51.0517 5.816 51.0517C6.03141 51.0517 6.19296 51.0517 6.40837 51.1055C6.62378 51.1594 6.78534 51.2132 7.00074 51.3209C7.21615 51.4286 7.37771 51.5902 7.53926 51.8056C7.70082 52.021 7.80852 52.2364 7.91622 52.5595L11.632 65.7532C11.632 65.7532 11.632 65.8071 11.632 65.8609ZM6.19296 52.9903C6.13911 52.7211 5.97756 52.6134 5.816 52.6134C5.60059 52.6134 5.49289 52.7211 5.38519 52.9903L3.55422 59.668H8.02393L6.19296 52.9903Z" fill="#DCA148"/>
<path d="M16.371 65.8069C16.371 65.9146 16.3172 66.0224 16.2633 66.0762C16.2094 66.1839 16.1017 66.1839 15.994 66.1839H14.917C14.8093 66.1839 14.7016 66.1301 14.6477 66.0762C14.5939 65.9685 14.54 65.9146 14.54 65.8069V51.3746C14.54 51.2669 14.5939 51.1592 14.6477 51.1054C14.7016 51.0515 14.8093 50.9977 14.917 50.9977H15.994C16.1017 50.9977 16.2094 51.0515 16.2633 51.1054C16.3172 51.1592 16.371 51.2669 16.371 51.3746V65.8069Z" fill="#DCA148"/>
<path d="M22.1326 52.8826C22.1326 52.9903 22.0787 53.098 22.0249 53.1519C21.9172 53.2596 21.8633 53.2596 21.7556 53.2596H20.7324C20.6247 53.2596 20.517 53.2057 20.4632 53.1519C20.3555 53.0442 20.3555 52.9903 20.3555 52.8826V51.2671C20.3555 51.1593 20.4093 51.0516 20.4632 50.9978C20.5709 50.8901 20.6247 50.8901 20.7324 50.8901H21.7556C21.8633 50.8901 21.971 50.9439 22.0249 50.9978C22.1326 51.1055 22.1326 51.1593 22.1326 51.2671V52.8826ZM22.0787 65.8071C22.0787 65.9148 22.0249 66.0225 21.971 66.0763C21.8633 66.184 21.8095 66.184 21.7018 66.184H20.7324C20.6247 66.184 20.517 66.1302 20.4632 66.0763C20.3555 65.9686 20.3555 65.9148 20.3555 65.8071V55.4675C20.3555 55.3598 20.4093 55.2521 20.4632 55.1982C20.5709 55.0905 20.6247 55.0905 20.7324 55.0905H21.7018C21.8095 55.0905 21.9172 55.1444 21.971 55.1982C22.0787 55.3059 22.0787 55.3598 22.0787 55.4675V65.8071Z" fill="#DCA148"/>
<path d="M30.8029 56.1136C30.8029 56.329 30.6413 56.4368 30.372 56.4368C29.8874 56.4368 29.4566 56.4906 29.0258 56.6522C28.5949 56.7599 28.1103 56.9753 27.6256 57.2984V65.7531C27.6256 65.8608 27.5718 65.9685 27.5179 66.0224C27.4102 66.1301 27.3563 66.1301 27.2486 66.1301H26.2793C26.1716 66.1301 26.0639 66.0762 26.01 66.0224C25.9562 65.9147 25.9023 65.8608 25.9023 65.7531V55.4674C25.9023 55.3597 25.9562 55.252 26.01 55.1982C26.0639 55.0905 26.1716 55.0905 26.2793 55.0905H27.2486C27.3563 55.0905 27.464 55.1443 27.5179 55.1982C27.5718 55.3059 27.6256 55.3597 27.6256 55.4674V55.8982C28.1641 55.5213 28.6488 55.3059 29.0796 55.1443C29.5643 54.9828 29.9951 54.9289 30.4798 54.9289C30.749 54.9289 30.9106 55.0366 30.9106 55.3059V56.1136H30.8029Z" fill="#DCA148"/>
<path d="M39.419 65.9148C39.419 66.1302 39.3113 66.2379 39.042 66.2379C38.8266 66.2917 38.6112 66.2917 38.3958 66.2917C38.1265 66.2917 37.9111 66.3456 37.7496 66.3456C37.2649 66.3456 36.8879 66.2917 36.511 66.2379C36.1879 66.184 35.8648 66.0225 35.6494 65.807C35.4339 65.5916 35.2724 65.3224 35.1647 64.9993C35.057 64.6223 35.0031 64.1915 35.0031 63.653V56.5984L33.0645 56.383C32.7952 56.3291 32.6875 56.2214 32.6875 56.006V55.4675C32.6875 55.1982 32.7952 55.0905 33.0645 55.0905H35.0031V53.098C35.0031 52.8826 35.1108 52.721 35.3801 52.6672L36.4571 52.5056H36.511C36.6187 52.5056 36.6725 52.5595 36.7264 52.6133C36.7802 52.6672 36.8341 52.7749 36.8341 52.8826V55.0905H39.042C39.1497 55.0905 39.2574 55.1444 39.3113 55.1982C39.419 55.3059 39.419 55.3598 39.419 55.4675V56.1676C39.419 56.2753 39.3651 56.383 39.3113 56.4368C39.2036 56.5445 39.1497 56.5445 39.042 56.5445H36.8341V63.5991C36.8341 64.1376 36.9418 64.5146 37.1034 64.6762C37.2649 64.8377 37.5342 64.8916 37.965 64.8916H39.0959C39.3651 64.8916 39.5267 64.9993 39.5267 65.1608V65.9148H39.419Z" fill="#DCA148"/>
<path d="M44.1043 52.8826C44.1043 52.9903 44.0504 53.098 43.9966 53.1519C43.8889 53.2596 43.835 53.2596 43.7273 53.2596H42.7041C42.5964 53.2596 42.4887 53.2057 42.4349 53.1519C42.3272 53.0442 42.3271 52.9903 42.3271 52.8826V51.2671C42.3271 51.1593 42.381 51.0516 42.4349 50.9978C42.5426 50.8901 42.5964 50.8901 42.7041 50.8901H43.7273C43.835 50.8901 43.9427 50.9439 43.9966 50.9978C44.1043 51.1055 44.1043 51.1593 44.1043 51.2671V52.8826ZM44.0504 65.8071C44.0504 65.9148 43.9966 66.0225 43.9427 66.0763C43.835 66.184 43.7811 66.184 43.6734 66.184H42.7041C42.5964 66.184 42.4887 66.1302 42.4349 66.0763C42.3272 65.9686 42.3271 65.9148 42.3271 65.8071V55.4675C42.3271 55.3598 42.381 55.2521 42.4349 55.1982C42.5426 55.0905 42.5964 55.0905 42.7041 55.0905H43.6734C43.7811 55.0905 43.8889 55.1444 43.9427 55.1982C44.0504 55.3059 44.0504 55.3598 44.0504 55.4675V65.8071Z" fill="#DCA148"/>
<path d="M56.0057 69.792C56.0057 69.8997 55.9518 70.0074 55.898 70.0613C55.8441 70.1151 55.7364 70.169 55.6287 70.169H54.6055C54.4978 70.169 54.3901 70.1151 54.3363 70.0613C54.2824 70.0074 54.2286 69.8997 54.2286 69.792V66.1301C53.8516 66.1839 53.4208 66.2378 52.99 66.2916C52.5591 66.3455 52.1822 66.3455 51.8591 66.3455C50.4051 66.3455 49.2742 65.9147 48.5741 65.0531C47.8202 64.1914 47.4971 62.9528 47.4971 61.3911V59.9371C47.4971 59.1832 47.6048 58.4831 47.7663 57.8908C47.9279 57.2984 48.1971 56.7599 48.5741 56.329C48.9511 55.8982 49.3819 55.5751 49.9743 55.3059C50.5128 55.0905 51.159 54.9289 51.9129 54.9289C52.5053 54.9289 53.1515 54.9828 53.7977 55.0366C54.444 55.0905 55.0902 55.252 55.6287 55.3597C55.8441 55.4136 55.9518 55.4674 56.0057 55.5213C56.0595 55.5751 56.0595 55.6828 56.0595 55.8444V69.792H56.0057ZM54.2286 56.6522C53.9593 56.5983 53.5823 56.5445 53.1515 56.4906C52.7207 56.4368 52.2899 56.4368 51.8591 56.4368C51.3744 56.4368 50.9436 56.5445 50.6205 56.706C50.2974 56.8676 50.0281 57.083 49.8127 57.4061C49.5973 57.7292 49.4896 58.0523 49.3819 58.4831C49.2742 58.9139 49.2742 59.3986 49.2742 59.9371V61.3911C49.2742 61.9296 49.328 62.4143 49.3819 62.8451C49.4896 63.2759 49.5973 63.6529 49.8127 63.9222C50.0281 64.2453 50.2974 64.4607 50.6205 64.6222C50.9436 64.7838 51.3744 64.8376 51.8591 64.8376C52.0206 64.8376 52.1822 64.8376 52.3976 64.8376C52.613 64.8376 52.8284 64.8376 53.0438 64.7838C53.2592 64.7838 53.4746 64.7299 53.69 64.7299C53.9054 64.6761 54.067 64.6761 54.2286 64.6222V56.6522Z" fill="#DCA148"/>
<path d="M67.3142 65.807C67.3142 65.9147 67.2604 66.0224 67.2065 66.0762C67.0988 66.1839 67.045 66.1839 66.9373 66.1839H66.0218C65.9141 66.1839 65.8064 66.1301 65.7525 66.0762C65.6448 65.9685 65.6448 65.9147 65.6448 65.807V65.3762C65.1602 65.6454 64.6755 65.9147 64.137 66.0762C63.5985 66.2916 63.0599 66.3455 62.5214 66.3455C62.0906 66.3455 61.6598 66.2917 61.2828 66.1839C60.9059 66.0762 60.5289 65.9147 60.2058 65.6454C59.8827 65.3762 59.6673 65.0531 59.4519 64.6222C59.2903 64.1914 59.1826 63.6529 59.1826 63.0605V62.7913C59.1826 62.2528 59.2903 61.7681 59.4519 61.3911C59.6134 60.9603 59.8827 60.6372 60.2597 60.3679C60.6366 60.0987 61.1213 59.8833 61.7675 59.7756C62.4137 59.614 63.1677 59.5602 64.0293 59.5602H65.5371V58.7524C65.5371 57.8908 65.3756 57.2984 65.0525 56.9753C64.7294 56.6522 64.1908 56.4906 63.3831 56.4906C62.7368 56.4906 62.1445 56.4906 61.6598 56.5445C61.1751 56.5983 60.6905 56.5983 60.3135 56.6522H60.2058C60.0981 56.6522 60.0442 56.6522 59.9365 56.5983C59.8827 56.5445 59.8288 56.4906 59.8288 56.3291V55.629C59.8288 55.4136 59.9904 55.3059 60.2597 55.252C60.6905 55.1982 61.1213 55.1443 61.606 55.0905C62.0906 55.0366 62.683 54.9828 63.3831 54.9828C64.7832 54.9828 65.8064 55.3059 66.3988 56.0059C66.9911 56.706 67.3142 57.6215 67.3142 58.8062V65.807ZM65.5371 60.8526H64.0293C63.4369 60.8526 62.8984 60.9065 62.5214 60.9603C62.0906 61.0142 61.8214 61.1757 61.5521 61.2834C61.3367 61.445 61.1751 61.6604 61.0674 61.8758C60.9597 62.1451 60.9059 62.4143 60.9059 62.7913V63.0605C60.9059 63.8145 61.0674 64.2991 61.3905 64.5145C61.7137 64.7838 62.1983 64.8915 62.7907 64.8915C63.2754 64.8915 63.7062 64.8376 64.137 64.6761C64.5678 64.5684 65.0525 64.353 65.5371 64.0837V60.8526Z" fill="#DCA148"/>
<path d="M87.0788 60.7449C87.0788 62.6836 86.648 64.0837 85.7325 64.9992C84.817 65.9147 83.5246 66.3455 81.909 66.3455C80.2396 66.3455 79.001 65.9147 78.0856 64.9992C77.1701 64.0837 76.7393 62.6836 76.7393 60.7449V51.5901C76.7393 51.4824 76.7931 51.3747 76.847 51.3208C76.9008 51.267 77.0085 51.2131 77.1162 51.2131H78.1933C78.301 51.2131 78.4087 51.267 78.4625 51.3208C78.5164 51.3747 78.5702 51.4824 78.5702 51.5901V60.7987C78.5702 61.445 78.6241 62.0373 78.7318 62.522C78.8395 63.0067 79.001 63.4375 79.2703 63.7606C79.5396 64.0837 79.8627 64.353 80.2935 64.5145C80.7243 64.6761 81.2628 64.7838 81.8552 64.7838C82.5014 64.7838 82.9861 64.6761 83.4169 64.5145C83.8477 64.353 84.1708 64.0837 84.4401 63.7606C84.7093 63.4375 84.8709 63.0067 84.9786 62.522C85.0863 62.0373 85.1402 61.445 85.1402 60.7987V51.5901C85.1402 51.4824 85.194 51.3747 85.2479 51.3208C85.3017 51.267 85.4094 51.2131 85.5171 51.2131H86.5942C86.7019 51.2131 86.8096 51.267 86.8634 51.3208C86.9173 51.3747 86.9711 51.4824 86.9711 51.5901V60.7449H87.0788Z" fill="#DCA148"/>
<path d="M99.2486 65.807C99.2486 65.9147 99.1947 66.0224 99.1408 66.0762C99.0331 66.1839 98.9793 66.1839 98.8716 66.1839H97.9023C97.7946 66.1839 97.6868 66.1301 97.633 66.0762C97.5253 65.9685 97.5253 65.9147 97.5253 65.807V59.1293C97.5253 58.5908 97.4714 58.2139 97.4176 57.8369C97.3099 57.5138 97.2022 57.2445 96.9868 57.0291C96.8252 56.8137 96.556 56.706 96.2867 56.5983C96.0174 56.4906 95.6943 56.4906 95.3174 56.4906C94.8865 56.4906 94.4557 56.5445 93.9711 56.706C93.4864 56.8676 93.0556 57.0291 92.5709 57.2984V65.8608C92.5709 65.9685 92.5171 66.0762 92.4632 66.1301C92.3555 66.2378 92.3017 66.2378 92.194 66.2378H91.2246C91.1169 66.2378 91.0092 66.1839 90.9554 66.1301C90.9015 66.0224 90.8477 65.9685 90.8477 65.8608V55.4674C90.8477 55.3597 90.9015 55.252 90.9554 55.1982C91.0092 55.0905 91.1169 55.0905 91.2246 55.0905H92.2478C92.3555 55.0905 92.4632 55.1443 92.5171 55.1982C92.5709 55.3059 92.6248 55.3597 92.6248 55.4674V55.8444C93.2171 55.5213 93.7018 55.3059 94.1865 55.1443C94.6711 54.9828 95.2097 54.9289 95.802 54.9289C97.0406 54.9289 97.9022 55.3059 98.4946 56.0059C99.087 56.706 99.3563 57.7831 99.3563 59.1293V65.807H99.2486Z" fill="#DCA148"/>
<path d="M104.796 52.8826C104.796 52.9903 104.742 53.098 104.688 53.1519C104.58 53.2596 104.526 53.2596 104.419 53.2596H103.396C103.288 53.2596 103.18 53.2057 103.126 53.1519C103.019 53.0442 103.019 52.9903 103.019 52.8826V51.2671C103.019 51.1593 103.072 51.0516 103.126 50.9978C103.234 50.8901 103.288 50.8901 103.396 50.8901H104.419C104.526 50.8901 104.634 50.9439 104.688 50.9978C104.796 51.1055 104.796 51.1593 104.796 51.2671V52.8826ZM104.796 65.8071C104.796 65.9148 104.742 66.0225 104.688 66.0763C104.58 66.184 104.526 66.184 104.419 66.184H103.396C103.288 66.184 103.18 66.1302 103.126 66.0763C103.019 65.9686 103.019 65.9148 103.019 65.8071V55.4675C103.019 55.3598 103.072 55.2521 103.126 55.1982C103.234 55.0905 103.288 55.0905 103.396 55.0905H104.365C104.473 55.0905 104.58 55.1444 104.634 55.1982C104.742 55.3059 104.742 55.3598 104.742 55.4675V65.8071H104.796Z" fill="#DCA148"/>
<path d="M117.074 55.4136C117.074 55.4674 117.074 55.5213 117.074 55.5751L114.327 65.2146C114.166 65.6993 113.95 65.9685 113.627 66.1301C113.304 66.2916 112.927 66.3455 112.496 66.3455C112.066 66.3455 111.689 66.2916 111.365 66.1301C111.042 65.9685 110.827 65.6454 110.665 65.2146L107.919 55.5751C107.919 55.5213 107.919 55.4674 107.919 55.4136C107.919 55.1982 108.027 55.0905 108.242 55.0905H109.373C109.535 55.0905 109.696 55.1982 109.75 55.4674L112.066 64.2991C112.119 64.5684 112.173 64.6761 112.227 64.7838C112.281 64.8376 112.389 64.8915 112.496 64.8915C112.604 64.8915 112.658 64.8376 112.712 64.7838C112.766 64.7299 112.819 64.5684 112.927 64.2991L115.243 55.4674C115.351 55.1982 115.458 55.0905 115.62 55.0905H116.751C116.966 55.0905 117.074 55.1982 117.074 55.4136Z" fill="#DCA148"/>
<path d="M128.222 60.7449C128.222 61.068 128.114 61.1757 127.845 61.1757H121.059V61.445C121.059 62.6297 121.275 63.4913 121.759 63.976C122.244 64.4607 122.944 64.7299 123.86 64.7299C124.452 64.7299 125.098 64.7299 125.744 64.6761C126.391 64.6222 126.983 64.5684 127.468 64.5145H127.575C127.683 64.5145 127.737 64.5145 127.791 64.5684C127.845 64.6222 127.899 64.6761 127.899 64.7838V65.4839C127.899 65.6454 127.845 65.6993 127.791 65.807C127.737 65.8608 127.629 65.9147 127.468 65.9685C126.875 66.0762 126.337 66.1839 125.744 66.2378C125.152 66.2916 124.56 66.3455 123.86 66.3455C123.267 66.3455 122.729 66.2916 122.136 66.1301C121.598 65.9685 121.113 65.6993 120.682 65.3223C120.252 64.9453 119.928 64.4607 119.659 63.8145C119.39 63.1682 119.282 62.4143 119.282 61.445V59.614C119.282 58.16 119.659 57.0291 120.413 56.1675C121.167 55.3059 122.298 54.875 123.752 54.875C124.506 54.875 125.152 54.9827 125.691 55.1982C126.229 55.4136 126.714 55.7367 127.091 56.1675C127.468 56.5983 127.737 57.083 127.952 57.6753C128.168 58.2677 128.222 58.9139 128.222 59.614V60.7449ZM126.391 59.6679C126.391 58.537 126.175 57.7292 125.744 57.2445C125.314 56.7599 124.667 56.4906 123.752 56.4906C122.89 56.4906 122.19 56.7599 121.759 57.2445C121.275 57.783 121.059 58.537 121.059 59.6679V59.8294H126.445V59.6679H126.391Z" fill="#DCA148"/>
<path d="M136.406 56.1136C136.406 56.329 136.245 56.4368 135.976 56.4368C135.491 56.4368 135.06 56.4906 134.629 56.6522C134.198 56.7599 133.714 56.9753 133.229 57.2984V65.7531C133.229 65.8608 133.175 65.9685 133.121 66.0224C133.014 66.1301 132.96 66.1301 132.852 66.1301H131.883C131.775 66.1301 131.667 66.0762 131.614 66.0224C131.56 65.9147 131.506 65.8608 131.506 65.7531V55.4674C131.506 55.3597 131.56 55.252 131.614 55.1982C131.667 55.0905 131.775 55.0905 131.883 55.0905H132.852C132.96 55.0905 133.068 55.1443 133.121 55.1982C133.175 55.3059 133.229 55.3597 133.229 55.4674V55.8982C133.768 55.5213 134.252 55.3059 134.683 55.1443C135.168 54.9828 135.599 54.9289 136.083 54.9289C136.353 54.9289 136.514 55.0366 136.514 55.3059V56.1136H136.406Z" fill="#DCA148"/>
<path d="M146.1 63.4375C146.1 63.976 145.993 64.4068 145.831 64.7838C145.67 65.1608 145.4 65.4839 145.077 65.6993C144.754 65.9147 144.323 66.1301 143.893 66.2378C143.408 66.3455 142.923 66.3994 142.331 66.3994C142.115 66.3994 141.9 66.3994 141.631 66.3994C141.362 66.3994 141.092 66.3993 140.823 66.3455C140.554 66.2916 140.231 66.2916 139.961 66.2378C139.638 66.1839 139.369 66.1301 139.154 66.0762C138.884 66.0224 138.723 65.8608 138.723 65.6454V64.9453C138.723 64.8376 138.777 64.7838 138.83 64.7299C138.884 64.6761 138.992 64.6222 139.1 64.6222H139.207C139.477 64.6761 139.692 64.6761 140.015 64.7299C140.285 64.7838 140.608 64.7838 140.877 64.7838C141.2 64.7838 141.469 64.8376 141.685 64.8376C141.954 64.8376 142.169 64.8376 142.331 64.8376C142.977 64.8376 143.516 64.7299 143.839 64.5145C144.162 64.2991 144.323 63.9222 144.323 63.3836C144.323 63.0605 144.216 62.7913 144 62.5759C143.785 62.3605 143.408 62.0373 142.816 61.7142L140.769 60.4756C140.123 60.0987 139.638 59.6679 139.261 59.2371C138.884 58.8062 138.669 58.2139 138.669 57.5676C138.669 57.0291 138.777 56.5983 138.938 56.2752C139.154 55.9521 139.369 55.629 139.692 55.4674C140.015 55.252 140.392 55.0905 140.823 55.0366C141.254 54.9289 141.739 54.9289 142.277 54.9289C142.869 54.9289 143.408 54.9289 143.946 54.9828C144.485 55.0366 144.97 55.0905 145.454 55.1982C145.724 55.252 145.831 55.3597 145.831 55.629V56.2752C145.831 56.4906 145.724 56.5983 145.508 56.5983H145.454C145.077 56.5445 144.647 56.5445 144.054 56.4906C143.462 56.4368 142.869 56.4368 142.331 56.4368C141.738 56.4368 141.308 56.4906 140.985 56.6522C140.661 56.8137 140.446 57.1368 140.446 57.6215C140.446 57.9446 140.554 58.2139 140.769 58.4293C140.985 58.6447 141.362 58.9139 141.846 59.1832L143.839 60.3679C144.7 60.8526 145.239 61.3373 145.562 61.8219C145.939 62.3066 146.1 62.8451 146.1 63.4375Z" fill="#DCA148"/>
<path d="M151.324 52.8826C151.324 52.9903 151.27 53.098 151.216 53.1519C151.109 53.2596 151.055 53.2596 150.947 53.2596H149.924C149.816 53.2596 149.708 53.2057 149.655 53.1519C149.547 53.0442 149.547 52.9903 149.547 52.8826V51.2671C149.547 51.1593 149.601 51.0516 149.655 50.9978C149.762 50.8901 149.816 50.8901 149.924 50.8901H150.947C151.055 50.8901 151.162 50.9439 151.216 50.9978C151.324 51.1055 151.324 51.1593 151.324 51.2671V52.8826ZM151.27 65.8071C151.27 65.9148 151.216 66.0225 151.162 66.0763C151.055 66.184 151.001 66.184 150.893 66.184H149.924C149.816 66.184 149.708 66.1302 149.655 66.0763C149.547 65.9686 149.547 65.9148 149.547 65.8071V55.4675C149.547 55.3598 149.601 55.2521 149.655 55.1982C149.762 55.0905 149.816 55.0905 149.924 55.0905H150.893C151.001 55.0905 151.109 55.1444 151.162 55.1982C151.27 55.3059 151.27 55.3598 151.27 55.4675V65.8071Z" fill="#DCA148"/>
<path d="M160.963 65.9148C160.963 66.1302 160.855 66.2379 160.586 66.2379C160.371 66.2917 160.155 66.2917 159.94 66.2917C159.67 66.2917 159.455 66.3456 159.294 66.3456C158.809 66.3456 158.432 66.2917 158.055 66.2379C157.732 66.184 157.409 66.0225 157.193 65.807C156.978 65.5916 156.816 65.3224 156.709 64.9993C156.601 64.6223 156.547 64.1915 156.547 63.653V56.5984L154.608 56.383C154.339 56.3291 154.231 56.2214 154.231 56.006V55.4675C154.231 55.1982 154.339 55.0905 154.608 55.0905H156.547V53.098C156.547 52.8826 156.655 52.721 156.924 52.6672L158.001 52.5056H158.055C158.163 52.5056 158.216 52.5595 158.27 52.6133C158.324 52.6672 158.378 52.7749 158.378 52.8826V55.0905H160.586C160.694 55.0905 160.801 55.1444 160.855 55.1982C160.963 55.3059 160.963 55.3598 160.963 55.4675V56.1676C160.963 56.2753 160.909 56.383 160.855 56.4368C160.748 56.5445 160.694 56.5445 160.586 56.5445H158.324V63.5991C158.324 64.1376 158.432 64.5146 158.593 64.6762C158.755 64.8377 159.024 64.8916 159.455 64.8916H160.586C160.855 64.8916 161.017 64.9993 161.017 65.1608V65.9148H160.963Z" fill="#DCA148"/>
<path d="M172.219 55.4136C172.219 55.4674 172.219 55.5213 172.219 55.5751L168.88 67.2071C168.718 67.7457 168.557 68.2303 168.341 68.6073C168.18 68.9842 167.91 69.3074 167.641 69.5228C167.372 69.7382 166.995 69.9536 166.618 70.0613C166.241 70.169 165.756 70.2228 165.164 70.2228C164.895 70.2228 164.572 70.2228 164.248 70.169C163.925 70.1151 163.656 70.1151 163.441 70.0613C163.333 70.0074 163.225 70.0074 163.118 69.9536C163.01 69.8997 163.01 69.8459 163.01 69.7382V68.9842C163.01 68.7688 163.118 68.6611 163.387 68.6611H163.441C163.656 68.715 163.979 68.715 164.356 68.7688C164.733 68.8227 165.002 68.8227 165.272 68.8227C165.541 68.8227 165.81 68.8227 166.026 68.7688C166.241 68.715 166.403 68.6073 166.564 68.4996C166.726 68.3919 166.833 68.1765 166.995 67.9611C167.103 67.7456 167.21 67.4764 167.264 67.0994L167.48 66.2916H167.21C167.049 66.2916 166.941 66.2916 166.78 66.2378C166.618 66.1839 166.51 66.1301 166.349 66.0762C166.241 65.9685 166.079 65.8608 165.972 65.6454C165.864 65.43 165.756 65.2146 165.649 64.8915L162.956 55.629C162.956 55.629 162.956 55.5751 162.956 55.4674C162.956 55.252 163.064 55.1443 163.333 55.1443H164.464C164.572 55.1443 164.625 55.1982 164.679 55.252C164.733 55.3059 164.787 55.4136 164.787 55.4674L167.156 64.2453C167.21 64.4607 167.264 64.5684 167.318 64.6222C167.372 64.6761 167.426 64.6761 167.533 64.6761H167.857L170.334 55.4136C170.334 55.3059 170.388 55.252 170.495 55.1982C170.549 55.1443 170.657 55.0905 170.765 55.0905H171.895C172.111 55.0905 172.219 55.1982 172.219 55.4136Z" fill="#DCA148"/>
<path d="M189.882 65.6994C189.882 65.8071 189.828 65.9148 189.774 65.9686C189.667 66.0225 189.613 66.0763 189.505 66.0763C189.29 66.1302 189.074 66.1302 188.859 66.184C188.643 66.2379 188.428 66.2379 188.159 66.2917C187.89 66.2917 187.62 66.3456 187.297 66.3456C186.974 66.3456 186.597 66.3456 186.166 66.3456C185.52 66.3456 184.928 66.2379 184.281 66.0763C183.635 65.8609 183.097 65.5378 182.558 65.0531C182.02 64.5685 181.643 63.9223 181.32 63.1145C180.997 62.3067 180.835 61.2835 180.835 60.0449V57.2446C180.835 56.006 180.997 54.9828 181.32 54.1751C181.643 53.3673 182.074 52.7211 182.558 52.2902C183.097 51.8056 183.635 51.4825 184.281 51.3209C184.928 51.1055 185.52 51.0517 186.166 51.0517C186.813 51.0517 187.405 51.1055 187.997 51.1594C188.59 51.2132 189.074 51.3209 189.559 51.3748C189.774 51.4286 189.882 51.4825 189.882 51.644V52.6672C189.882 52.7211 189.882 52.7749 189.828 52.8288C189.774 52.8826 189.721 52.8826 189.613 52.8826H189.559L188.913 52.8288C188.643 52.8288 188.374 52.7749 188.051 52.7749C187.728 52.7749 187.459 52.7211 187.136 52.7211C186.813 52.7211 186.489 52.7211 186.22 52.7211C185.735 52.7211 185.251 52.7749 184.82 52.9365C184.389 53.098 184.012 53.3673 183.689 53.6904C183.366 54.0674 183.097 54.4982 182.935 55.0905C182.774 55.6829 182.666 56.383 182.666 57.2446V60.0449C182.666 60.9065 182.774 61.6066 182.935 62.199C183.097 62.7914 183.366 63.276 183.689 63.5991C184.012 63.9761 184.389 64.1915 184.82 64.3531C185.251 64.5146 185.682 64.6223 186.22 64.6223C186.489 64.6223 186.813 64.6223 187.136 64.6223L188.051 64.5685C188.374 64.5685 188.643 64.5146 188.859 64.5146C189.128 64.5146 189.344 64.4608 189.505 64.4608H189.613C189.828 64.4608 189.936 64.5685 189.936 64.7839V65.6994H189.882Z" fill="#DCA148"/>
<path d="M201.298 60.7449C201.298 61.068 201.19 61.1757 200.921 61.1757H194.136V61.445C194.136 62.6297 194.351 63.4913 194.836 63.976C195.32 64.4607 196.02 64.7299 196.936 64.7299C197.528 64.7299 198.174 64.7299 198.821 64.6761C199.467 64.6222 200.059 64.5684 200.544 64.5145H200.652C200.759 64.5145 200.813 64.5145 200.867 64.5684C200.921 64.6222 200.975 64.6761 200.975 64.7838V65.4839C200.975 65.6454 200.921 65.6993 200.867 65.807C200.813 65.8608 200.705 65.9147 200.544 65.9685C199.952 66.0762 199.413 66.1839 198.821 66.2378C198.228 66.2916 197.636 66.3455 196.936 66.3455C196.343 66.3455 195.805 66.2916 195.213 66.1301C194.674 65.9685 194.189 65.6993 193.759 65.3223C193.328 64.9453 193.005 64.4607 192.735 63.8145C192.466 63.1682 192.358 62.4143 192.358 61.445V59.614C192.358 58.16 192.735 57.0291 193.489 56.1675C194.243 55.3059 195.374 54.875 196.828 54.875C197.582 54.875 198.228 54.9827 198.767 55.1982C199.305 55.4136 199.79 55.7367 200.167 56.1675C200.544 56.5983 200.813 57.083 201.029 57.6753C201.244 58.2677 201.298 58.9139 201.298 59.614V60.7449ZM199.521 59.6679C199.521 58.537 199.305 57.7292 198.874 57.2445C198.444 56.7599 197.797 56.4906 196.882 56.4906C196.02 56.4906 195.32 56.7599 194.889 57.2445C194.405 57.783 194.189 58.537 194.189 59.6679V59.8294H199.575V59.6679H199.521Z" fill="#DCA148"/>
<path d="M213.038 65.807C213.038 65.9147 212.984 66.0224 212.93 66.0762C212.822 66.1839 212.768 66.1839 212.661 66.1839H211.638C211.53 66.1839 211.422 66.1301 211.368 66.0762C211.261 65.9685 211.261 65.9147 211.261 65.807V59.1293C211.261 58.5908 211.207 58.2139 211.153 57.8369C211.045 57.5138 210.938 57.2445 210.722 57.0291C210.561 56.8137 210.291 56.706 210.022 56.5983C209.753 56.4906 209.43 56.4906 209.053 56.4906C208.622 56.4906 208.191 56.5445 207.706 56.706C207.222 56.8676 206.791 57.0291 206.306 57.2984V65.8608C206.306 65.9685 206.252 66.0762 206.199 66.1301C206.091 66.2378 206.037 66.2378 205.929 66.2378H204.96C204.852 66.2378 204.745 66.1839 204.691 66.1301C204.637 66.0224 204.583 65.9685 204.583 65.8608V55.4674C204.583 55.3597 204.637 55.252 204.691 55.1982C204.745 55.0905 204.852 55.0905 204.96 55.0905H205.983C206.091 55.0905 206.199 55.1443 206.252 55.1982C206.306 55.3059 206.36 55.3597 206.36 55.4674V55.8444C206.952 55.5213 207.437 55.3059 207.922 55.1443C208.406 54.9828 208.945 54.9289 209.537 54.9289C210.776 54.9289 211.638 55.3059 212.23 56.0059C212.822 56.706 213.092 57.7831 213.092 59.1293V65.807H213.038Z" fill="#DCA148"/>
<path d="M222.031 65.9148C222.031 66.1302 221.924 66.2379 221.654 66.2379C221.439 66.2917 221.224 66.2917 221.008 66.2917C220.739 66.2917 220.523 66.3456 220.362 66.3456C219.877 66.3456 219.5 66.2917 219.123 66.2379C218.8 66.184 218.477 66.0225 218.262 65.807C218.046 65.5916 217.885 65.3224 217.777 64.9993C217.669 64.6223 217.615 64.1915 217.615 63.653V56.5984L215.677 56.383C215.408 56.3291 215.3 56.2214 215.3 56.006V55.4675C215.3 55.1982 215.408 55.0905 215.677 55.0905H217.615V53.098C217.615 52.8826 217.723 52.721 217.992 52.6672L219.069 52.5056H219.123C219.231 52.5056 219.285 52.5595 219.339 52.6133C219.393 52.6672 219.446 52.7749 219.446 52.8826V55.0905H221.654C221.762 55.0905 221.87 55.1444 221.924 55.1982C222.031 55.3059 222.031 55.3598 222.031 55.4675V56.1676C222.031 56.2753 221.977 56.383 221.924 56.4368C221.816 56.5445 221.762 56.5445 221.654 56.5445H219.446V63.5991C219.446 64.1376 219.554 64.5146 219.716 64.6762C219.877 64.8377 220.146 64.8916 220.577 64.8916H221.708C221.977 64.8916 222.139 64.9993 222.139 65.1608V65.9148H222.031Z" fill="#DCA148"/>
<path d="M233.286 60.7449C233.286 61.068 233.178 61.1757 232.909 61.1757H226.124V61.445C226.124 62.6297 226.339 63.4913 226.824 63.976C227.309 64.4607 228.009 64.7299 228.924 64.7299C229.516 64.7299 230.163 64.7299 230.809 64.6761C231.455 64.6222 232.047 64.5684 232.532 64.5145H232.64C232.748 64.5145 232.801 64.5145 232.855 64.5684C232.909 64.6222 232.963 64.6761 232.963 64.7838V65.4839C232.963 65.6454 232.909 65.6993 232.855 65.807C232.801 65.8608 232.694 65.9147 232.532 65.9685C231.94 66.0762 231.401 66.1839 230.809 66.2378C230.217 66.2916 229.624 66.3455 228.924 66.3455C228.332 66.3455 227.793 66.2916 227.201 66.1301C226.662 65.9685 226.178 65.6993 225.747 65.3223C225.316 64.9453 224.993 64.4607 224.724 63.8145C224.454 63.1682 224.347 62.4143 224.347 61.445V59.614C224.347 58.16 224.724 57.0291 225.478 56.1675C226.231 55.3059 227.362 54.875 228.816 54.875C229.57 54.875 230.217 54.9827 230.755 55.1982C231.294 55.4136 231.778 55.7367 232.155 56.1675C232.532 56.5983 232.801 57.083 233.017 57.6753C233.232 58.2677 233.286 58.9139 233.286 59.614V60.7449ZM231.455 59.6679C231.455 58.537 231.24 57.7292 230.809 57.2445C230.378 56.7599 229.732 56.4906 228.816 56.4906C227.955 56.4906 227.255 56.7599 226.824 57.2445C226.339 57.783 226.124 58.537 226.124 59.6679V59.8294H231.509V59.6679H231.455Z" fill="#DCA148"/>
<path d="M241.472 56.1136C241.472 56.329 241.31 56.4368 241.041 56.4368C240.556 56.4368 240.126 56.4906 239.695 56.6522C239.264 56.7599 238.779 56.9753 238.295 57.2984V65.7531C238.295 65.8608 238.241 65.9685 238.187 66.0224C238.079 66.1301 238.025 66.1301 237.918 66.1301H236.948C236.841 66.1301 236.733 66.0762 236.679 66.0224C236.625 65.9147 236.571 65.8608 236.571 65.7531V55.4674C236.571 55.3597 236.625 55.252 236.679 55.1982C236.733 55.0905 236.841 55.0905 236.948 55.0905H237.918C238.025 55.0905 238.133 55.1443 238.187 55.1982C238.241 55.3059 238.295 55.3597 238.295 55.4674V55.8982C238.833 55.5213 239.318 55.3059 239.749 55.1443C240.233 54.9828 240.664 54.9289 241.149 54.9289C241.418 54.9289 241.58 55.0366 241.58 55.3059V56.1136H241.472Z" fill="#DCA148"/>
</svg>
