<svg width="816" height="161" viewBox="0 0 816 161" fill="none" xmlns="http://www.w3.org/2000/svg">
<path d="M257.754 98.3667C256.006 98.2968 254.235 98.2735 252.487 98.1571C249.519 97.9476 246.551 97.6449 243.558 97.5751C242.96 97.5751 242.338 97.4354 241.763 97.2724C241.093 97.0862 240.662 96.3179 240.782 95.6893C240.877 95.2469 240.973 94.8046 241.165 94.4088C241.476 93.7336 241.859 93.0818 242.242 92.4299C243.199 90.8235 244.181 89.217 245.162 87.6339C245.426 87.1916 245.737 86.7492 246.072 86.3534C246.67 85.6317 247.436 85.1661 248.442 85.1428C249.208 85.1195 249.974 85.0264 250.74 85.0497C253.349 85.0962 255.934 84.8168 258.52 84.584C259.669 84.4676 260.818 84.3745 261.943 84.3046C264.025 84.1882 266.06 84.4211 268.047 85.1195C269.842 85.7714 271.661 86.3534 273.457 86.982C273.912 87.145 284.157 90.4044 284.42 90.451C285.234 90.6372 286.096 90.7071 286.862 91.033C289.399 92.1039 292.104 92.686 294.738 93.431C297.61 94.2226 300.507 94.8977 303.427 95.5729C306.635 96.3179 309.866 96.8766 313.122 97.3656C317.431 98.0174 321.763 98.6228 326.072 99.2514C327.891 99.5075 329.711 99.7868 331.53 100.066C331.913 100.113 332.272 100.229 332.631 100.322C332.942 100.415 333.182 100.928 333.086 101.254C333.038 101.393 333.014 101.533 332.942 101.673C332.823 101.952 332.727 102.231 332.583 102.487C331.362 104.56 330.166 106.632 329.064 108.75C328.37 110.054 327.197 110.659 325.689 110.683C323.846 110.706 322.027 110.613 320.183 110.403C318.197 110.194 316.234 109.984 314.247 109.798C310.704 109.449 307.209 109.798 303.738 110.38C298.52 111.265 293.469 112.801 288.514 114.571C287.724 114.85 286.934 115.153 286.144 115.432C285.282 115.735 284.755 116.293 284.468 117.132C283.942 118.691 283.319 120.205 282.84 121.788C282.266 123.65 281.715 125.513 281.284 127.399C280.686 129.936 280.327 132.521 280.447 135.151C280.542 137.247 280.83 139.319 281.643 141.274C281.907 141.903 282.17 142.508 282.505 143.09C284.205 146.117 286.838 147.607 290.381 147.56C292.775 147.537 295.097 146.978 297.299 146.094C301.847 144.231 306.06 141.81 309.77 138.644C315.109 134.057 320.375 129.401 325.354 124.442C327.868 121.928 330.381 119.436 333.182 117.201C333.349 117.062 333.517 116.899 333.684 116.736C336.126 114.175 338.903 111.916 341.536 109.542C344.361 107.004 347.425 104.792 350.632 102.72C354.51 100.206 358.46 97.7613 362.386 95.2935C362.96 94.921 363.559 94.5951 364.181 94.2924C366.12 93.2447 368.083 92.2436 370.022 91.1727C372.56 89.7525 375.288 88.7514 377.993 87.7503C378.855 87.4244 379.717 87.1217 380.579 86.7958C381.01 86.6328 381.417 86.4465 381.823 86.237C382.566 85.8645 382.733 85.492 382.374 84.8168C382.135 84.3512 381.871 83.9089 381.632 83.4432C380.746 81.7204 379.861 79.9743 379.142 78.1583C378.592 76.7615 378.233 75.318 378.329 73.8047C378.424 72.2449 378.424 70.6617 378.688 69.1251C379.142 66.3314 380.459 63.9101 382.542 61.9312C383.954 60.6041 385.63 59.7893 387.593 59.44C390.154 58.9977 392.619 59.3236 395.085 60.0221C398.795 61.093 402.147 62.8857 405.307 64.981C408.371 67.0065 411.099 69.3579 413.637 71.9655C413.948 72.2914 414.259 72.6406 414.547 72.9666C415.6 74.2471 416.079 75.6905 415.935 77.3202C415.887 77.8324 415.839 78.3679 415.696 78.8568C415.36 80.0907 415.025 81.3013 414.642 82.512C414.259 83.7226 413.828 84.91 413.374 86.0973C413.182 86.5862 412.943 87.0519 412.703 87.5175C412.488 87.9366 412.129 88.1927 411.674 88.3789C411.459 88.4488 411.243 88.5186 411.028 88.5884C407.222 89.7525 403.439 90.9166 399.633 92.0574C397.886 92.5928 396.114 93.0585 394.343 93.5241C393.146 93.8501 392.907 94.1294 392.859 95.4099C392.835 95.8523 392.859 96.2946 392.859 96.7602C392.859 97.7381 392.619 98.6693 392.236 99.5773C392.141 99.7868 391.997 99.9498 391.853 100.113C391.71 100.299 391.231 100.369 391.016 100.276C390.489 100.066 390.106 99.6937 389.891 99.2048C389.531 98.3899 389.22 97.5518 388.885 96.7137C388.67 96.1782 388.119 95.9221 387.569 96.1316C386.156 96.6904 384.744 97.2492 383.332 97.8312C380.579 98.9487 377.826 100.066 375.073 101.184C374.163 101.556 373.254 101.975 372.368 102.418C369.041 104.094 365.689 105.724 362.386 107.47C358.771 109.402 355.348 111.684 352.069 114.128C347.521 117.551 343.307 121.345 339.07 125.094C333.301 130.216 327.748 135.57 322.242 140.948C320.351 142.788 318.436 144.604 316.401 146.326C314.391 148.049 312.404 149.795 310.393 151.518C308.023 153.544 305.414 155.243 302.613 156.64C299.836 158.037 296.82 158.573 293.708 158.456C291.29 158.363 289.04 157.618 287.053 156.268C283.774 154.079 281.237 151.239 279.417 147.793C277.694 144.557 276.904 141.111 276.856 137.48C276.784 133.801 277.383 130.216 278.196 126.654C278.771 124.186 279.465 121.741 280.303 119.343C280.399 119.064 280.471 118.761 280.518 118.482C280.566 118.226 280.183 117.853 279.944 117.923C279.441 118.063 278.915 118.202 278.412 118.389C274.151 120.088 269.914 121.788 265.677 123.487C262.278 124.838 258.807 126.025 255.264 126.98C252.367 127.748 249.447 128.283 246.431 128.213C244.971 128.19 243.534 127.981 242.146 127.515C239.776 126.747 238.053 125.21 236.928 123.068C236.449 122.137 236.066 121.159 235.874 120.135C235.683 119.11 235.419 118.086 235.204 117.085C235.132 116.712 235.036 116.363 234.941 115.991C234.773 115.455 234.175 115.176 233.672 115.409C233.098 115.665 232.619 116.014 232.188 116.456C231.661 117.015 231.182 117.574 230.68 118.133C229.627 119.32 228.597 120.507 227.544 121.695C224.552 125.094 220.961 127.701 216.724 129.424C213.516 130.751 210.141 131.426 206.646 131.31C204.037 131.217 201.476 130.705 199.058 129.727C197.167 128.959 195.635 127.794 194.438 126.165C193.409 124.768 192.571 123.255 191.948 121.648C191.134 119.483 190.512 117.248 190.081 114.966C189.004 109.309 188.477 103.605 188.382 97.8545C188.286 92.3368 188.118 86.8423 187.951 81.3246C187.927 80.5796 187.807 79.8346 187.735 79.1129C187.52 77.3435 187.448 75.5508 187.496 73.7581C187.568 71.3136 187.544 68.8458 187.424 66.3779C187.113 60.0454 186.658 53.7361 186.443 47.4035C186.371 45.0288 186.371 42.6308 186.251 40.2561C186.131 37.8116 185.94 35.3437 185.653 32.8992C185.389 30.6874 184.911 28.499 184.528 26.2872C183.69 21.6542 182.493 17.1143 181.416 12.5512C180.913 10.3627 180.961 8.2441 181.679 6.17205C182.277 4.40266 183.019 2.70311 183.714 0.956998C183.881 0.537932 184.599 0.444806 184.887 0.794028C185.03 0.956998 185.198 1.11997 185.294 1.3295C185.485 1.65544 185.629 2.00466 185.772 2.3306C187.209 5.56673 188.142 8.94254 188.932 12.3416C189.315 14.0179 189.602 15.6942 189.961 17.3704C190.727 20.7928 191.087 24.285 191.47 27.754C191.9 31.5954 192.14 35.4834 192.451 39.3249C192.475 39.5577 192.475 39.7672 192.475 40C192.379 44.9124 192.906 49.8248 193.073 54.7372C193.145 57.6474 193.241 60.5343 193.313 63.4445C193.409 67.9843 193.504 72.5242 193.6 77.0641C193.624 77.879 193.576 78.6938 193.624 79.532C193.648 80.3468 193.696 81.1617 193.815 81.9765C194.007 83.094 194.079 84.1882 194.079 85.3058C194.103 90.5906 194.318 95.8755 194.558 101.16C194.653 103.093 194.797 105.025 195.084 106.934C195.491 109.775 196.497 112.429 197.981 114.896C199.441 117.318 201.739 118.575 204.516 118.971C207.173 119.367 209.878 119.297 212.511 118.715C218.807 117.364 224.264 114.571 228.813 110.077C230.536 108.378 232.236 106.678 233.959 104.979C234.653 104.28 235.348 103.582 236.185 103.07C236.928 102.627 237.694 102.371 238.555 102.348C239.01 102.325 239.489 102.72 239.465 103.163C239.441 103.768 239.393 104.35 239.369 104.955C239.345 106.213 239.273 107.493 239.345 108.75C239.417 110.426 240.087 111.916 241.093 113.29C241.978 114.501 243.199 115.246 244.66 115.548C245.33 115.688 246.024 115.781 246.694 115.804C248.681 115.898 250.668 115.758 252.631 115.409C254.881 114.99 257.107 114.431 259.286 113.732C263.14 112.499 266.994 111.265 270.848 110.007C274.845 108.704 278.771 107.26 282.649 105.677C283.774 105.211 284.851 104.629 285.928 104.094C286.024 104.047 286.096 103.838 286.096 103.721C286.096 103.605 286.024 103.419 285.928 103.349C285.737 103.232 285.521 103.139 285.306 103.07C282.96 102.348 280.638 101.626 278.292 100.928C276.76 100.462 275.204 100.02 273.648 99.6471M385.797 72.5708C385.271 72.5708 384.72 72.5708 384.193 72.5708C383.858 72.5708 383.499 73.0131 383.547 73.3624C383.571 73.5719 383.595 73.8047 383.643 74.0142C383.906 75.1085 384.433 76.1096 384.935 77.1107C385.821 78.8335 386.755 80.5563 387.664 82.2792C387.76 82.4887 387.88 82.6749 387.999 82.8612C388.143 83.094 388.55 83.257 388.789 83.2104C389.005 83.1639 389.244 83.094 389.46 83.0475C392.835 82.0696 396.114 80.8124 399.394 79.5552C399.609 79.4621 399.801 79.3457 400.016 79.2526C400.232 79.1362 400.351 78.6938 400.256 78.461C400.088 77.9488 399.729 77.553 399.25 77.2736C397.694 76.3424 396.114 75.3878 394.391 74.7593C393.17 74.3169 391.949 73.8978 390.728 73.4322C389.125 72.8502 387.497 72.5475 385.797 72.5708Z" fill="#114C7B"/>
<path d="M725.189 71.2206C725.189 75.4578 725.141 79.9279 725.189 84.3979C725.261 91.4755 725.572 98.5531 726.362 105.584C726.793 109.426 727.391 113.267 728.636 116.969C728.995 118.04 729.402 119.064 729.857 120.088C730.12 120.694 730.527 121.253 730.91 121.811C732.107 123.581 733.806 124.605 735.985 124.931C739.551 125.49 742.998 125.071 746.374 123.837C746.876 123.65 747.307 123.348 747.786 123.092C748.001 122.975 748.169 122.51 748.121 122.3C748.073 122.091 748.025 121.858 747.93 121.648C746.493 118.016 746.182 114.245 746.517 110.427C747.02 104.769 748.887 99.5309 751.832 94.6418C752.574 93.4311 753.435 92.2904 754.489 91.2893C754.752 91.0332 755.039 90.7538 755.302 90.4977C756.116 89.6596 756.619 88.6584 756.787 87.5409C756.882 86.9589 756.906 86.3536 756.978 85.7715C757.218 83.7693 757.481 81.7904 757.744 79.7882C757.768 79.5554 757.816 79.3459 757.864 79.1363C758.008 78.5077 758.582 78.1818 759.276 78.368C759.42 78.4146 759.563 78.4379 759.707 78.4844C763.968 79.9745 768.061 81.837 771.82 84.3281C772.777 84.9567 773.663 85.6784 774.429 86.5165C774.573 86.6795 774.644 86.9123 774.74 87.0986C774.812 87.2616 774.644 87.6108 774.477 87.6341C773.95 87.7039 773.423 87.7272 772.897 87.8436C772.203 87.9833 771.341 87.5875 770.838 88.4256C770.838 89.2405 771.58 89.5199 772.059 89.9389C774.668 92.2671 777.637 94.1296 780.725 95.7826C782.472 96.7138 784.219 97.6451 785.919 98.6462C790.156 101.114 792.741 104.793 793.866 109.402C794.417 111.661 794.513 113.965 794.369 116.294C794.202 118.994 793.627 121.602 792.598 124.116C792.263 124.931 791.856 125.746 791.377 126.514C789.582 129.354 786.901 130.938 783.525 131.38C781.155 131.683 778.786 131.636 776.416 131.566C773.424 131.496 770.455 131.147 767.535 130.542C766.122 130.262 764.686 129.96 763.298 129.541C760.976 128.819 758.941 129.331 757.002 130.635C754.991 132.009 752.885 133.219 750.706 134.29C748.432 135.384 746.086 136.316 743.645 136.898C740.653 137.619 737.636 137.992 734.548 137.503C731.101 136.944 728.42 135.268 726.386 132.567C725.284 131.124 724.471 129.517 723.776 127.864C722.819 125.49 722.172 123.045 721.622 120.577C721.478 119.995 721.287 119.437 721.095 118.878C721.071 118.785 720.88 118.738 720.736 118.715C720.688 118.715 720.593 118.785 720.569 118.831C720.449 119.111 720.305 119.367 720.257 119.669C719.635 122.673 718.821 125.606 717.864 128.516C715.925 134.453 712.717 139.622 707.953 143.836C707.499 144.231 707.044 144.65 706.613 145.046C704.004 147.398 701.035 149.19 697.804 150.657C691.963 153.311 685.883 155.337 679.611 156.78C676.93 157.409 674.225 157.991 671.448 157.874C670.993 157.851 670.538 157.804 670.084 157.781C669.725 157.758 669.509 157.199 669.749 156.896C669.988 156.617 670.227 156.291 670.515 156.082C671.616 155.29 672.717 154.475 673.89 153.777C675.925 152.566 677.983 151.425 680.042 150.308C686.601 146.769 692.968 142.881 699.168 138.783C701.945 136.944 704.554 134.849 706.924 132.497C711.377 128.121 714.417 122.952 716.236 117.062C717.744 112.173 718.51 107.167 718.654 102.092C718.773 97.9245 718.678 93.7571 718.678 89.5897C718.678 88.9844 718.678 88.4024 718.654 87.797C718.582 84.6773 718.51 81.5343 718.438 78.4146C718.366 75.9468 718.319 73.5022 718.223 71.0344C718.007 66.1918 717.816 61.3493 717.481 56.53C717.098 50.9657 716.691 45.3782 715.925 39.8372C715.661 37.9281 715.398 35.9958 715.087 34.0867C714.225 28.9415 713.579 23.773 713.052 18.5812C712.669 14.9493 712.597 11.2941 712.861 7.63893C713.004 5.61344 713.531 3.68108 714.321 1.79528C714.369 1.65559 714.488 1.53919 714.56 1.42278C714.728 1.1434 715.35 1.09684 715.566 1.35293C715.709 1.5159 715.853 1.70216 715.973 1.88841C717.193 4.14671 717.912 6.59127 718.534 9.03582C719.3 11.9926 719.898 14.9959 720.353 18.0225C720.832 21.1887 721.406 24.355 721.789 27.5213C722.316 31.8749 722.771 36.2519 723.202 40.6288C723.872 47.6831 724.471 54.7373 724.758 61.7916C724.806 62.9091 724.901 64.0267 724.949 65.1442C724.997 67.1231 725.093 69.0554 725.189 71.2206ZM768.061 106.352C768.061 106.422 768.014 105.98 767.99 105.538C767.894 104.42 767.415 103.372 767.008 102.348C766.218 100.392 765.189 98.5996 763.729 97.0398C763.37 96.6673 762.987 96.2948 762.556 95.9921C761.766 95.4566 760.952 95.2471 759.97 95.6196C759.109 95.9455 758.247 96.2249 757.481 96.7138C753.411 99.3214 750.922 102.93 750.467 107.656C750.18 110.776 751.472 113.29 754.297 114.99C755.494 115.688 756.787 116.107 758.127 116.387C759.109 116.596 760.09 116.48 761.048 116.154C763.705 115.246 765.548 113.407 766.888 111.102C767.654 109.798 768.109 108.401 768.061 106.352ZM782.281 120.624C782.281 120.647 782.281 120.67 782.281 120.717C783.358 120.647 784.411 120.624 785.488 120.484C786.637 120.345 787.738 120.042 788.792 119.576C789.725 119.157 790.18 118.482 790.132 117.458C790.084 116.48 789.845 115.572 789.27 114.734C788.744 113.989 788.193 113.29 787.475 112.731C786.637 112.08 785.799 111.428 784.89 110.869C783.358 109.891 781.754 109.006 780.198 108.075C778.379 106.981 776.559 105.887 775.003 104.42C774.884 104.327 774.764 104.234 774.644 104.141C774.309 103.885 773.83 103.954 773.663 104.304C773.4 104.839 773.136 105.375 772.945 105.933C771.652 109.588 770.742 113.36 769.737 117.108C769.665 117.388 769.617 117.69 769.593 117.993C769.546 118.435 769.881 118.901 770.312 118.994C773.974 119.716 777.66 120.391 781.419 120.647C781.682 120.647 781.993 120.624 782.281 120.624Z" fill="#114C7B" stroke="white" stroke-width="0.25" stroke-miterlimit="10"/>
<path d="M451.746 107.889C451.77 114.571 449.927 120.321 446.576 125.676C444.804 128.493 442.674 131.008 440.304 133.359C435.133 138.458 429.532 143.091 423.524 147.235C419.263 150.168 414.834 152.799 410.071 154.894C406.145 156.64 402.099 157.898 397.79 158.387C395.229 158.666 392.763 158.503 390.322 157.665C389.388 157.339 388.455 156.99 387.473 156.803C387.042 156.734 386.611 156.501 386.204 156.291C383.26 154.801 381.034 152.59 379.382 149.842C377.563 146.862 376.534 143.58 376.031 140.18C375.744 138.202 375.624 136.176 375.456 134.174C375.313 132.451 375.456 130.751 375.624 129.052C375.887 126.095 376.222 123.115 376.893 120.205C377.73 116.48 378.76 112.825 380.435 109.379C380.89 108.448 381.369 107.493 382.087 106.702C382.183 106.609 382.35 106.585 382.494 106.562C382.662 106.515 382.901 106.795 382.901 107.004C382.901 107.237 382.901 107.447 382.853 107.68C382.71 108.401 382.59 109.146 382.398 109.868C381.584 113.127 380.747 116.364 379.957 119.623C379.31 122.23 378.832 124.861 378.736 127.562C378.616 130.426 379.047 133.196 380.005 135.897C381.537 140.18 384.577 143.067 388.862 144.697C392.189 145.978 395.684 146.327 399.251 145.978C402.865 145.605 406.312 144.697 409.616 143.23C412.464 141.95 415.217 140.483 417.898 138.9C424.936 134.779 431.567 130.123 437.671 124.768C439.49 123.185 441.19 121.462 442.865 119.716C444.182 118.366 445.355 116.876 446.241 115.223C446.456 114.827 446.6 114.408 446.695 113.966C446.815 113.5 446.672 113.081 446.312 112.732C445.427 111.87 444.373 111.265 443.224 110.869C441.86 110.403 440.448 110.008 438.987 109.868C436.402 109.635 433.817 109.356 431.208 109.17C429.436 109.053 427.737 108.704 426.013 108.262C425.104 108.029 424.266 107.656 423.476 107.214C421.273 105.98 420.053 104.071 419.574 101.696C419.143 99.5543 419.239 97.3891 419.694 95.2472C420.603 91.0566 422.614 87.4479 425.846 84.4912C427.378 83.0943 429.101 82.0001 431.088 81.3482C433.003 80.7196 434.99 80.6498 436.977 81.0688C437.408 81.162 437.838 81.3715 438.245 81.581C440.041 82.4657 441.573 83.6996 442.913 85.1431C446.001 88.4491 448.18 92.2672 449.688 96.4579C451.076 100.299 451.842 104.234 451.746 107.889ZM435.157 98.1341C436.163 98.1341 437.072 98.1341 437.982 98.1341C438.198 98.1341 438.437 98.0643 438.652 98.041C438.796 98.0177 439.035 97.6685 438.987 97.5056C438.916 97.296 438.892 97.0399 438.748 96.9002C437.671 95.7594 436.57 94.6419 435.301 93.6874C434.463 93.0588 433.554 92.5233 432.548 92.1275C430.202 91.173 428.096 91.7085 426.468 93.7339C425.989 94.3393 426.013 95.1774 426.54 95.7827C426.731 96.0155 426.923 96.2483 427.162 96.4113C427.952 96.9934 428.814 97.459 429.795 97.6685C431.591 98.0177 433.41 98.0643 435.157 98.1341Z" fill="#114C7B" stroke="white" stroke-width="0.25" stroke-miterlimit="10"/>
<path d="M636.091 25.7287C636.163 24.2387 636.235 22.7487 636.306 21.2587C636.33 20.956 636.378 20.6766 636.426 20.374C636.474 20.1411 636.881 19.8618 637.12 19.9083C637.407 19.9782 637.743 20.0015 637.982 20.1411C639.251 20.8396 640.519 21.538 641.716 22.3296C646.145 25.2864 650.382 28.4526 654.236 32.1078C654.786 32.62 655.313 33.1555 655.84 33.7142C655.983 33.8772 656.079 34.0868 656.175 34.273C656.294 34.5058 656.031 34.9482 655.768 34.9482C654.786 34.9016 653.781 34.855 652.799 34.8085C652.201 34.7619 651.579 34.6688 650.98 34.6688C650.789 34.6688 650.573 34.8085 650.406 34.9249C650.238 35.018 650.286 35.3672 650.454 35.5302C653.111 38.2309 655.361 41.2342 657.874 44.0512C660.053 46.4492 662.279 48.8239 664.553 51.1288C668.072 54.6676 671.639 58.1365 675.205 61.6287C678.126 64.4691 681.022 67.356 684.038 70.1032C686.552 72.4081 688.826 74.9225 691.244 77.2972C693.614 79.6253 695.912 82.0233 698.162 84.4679C701.489 88.0765 704.505 91.9179 706.971 96.1552C708.599 98.9489 709.867 101.906 710.777 105.002C711.711 108.262 712.022 111.591 711.902 114.967C711.806 117.737 711.543 120.461 710.992 123.185C710.801 124.139 710.514 125.071 709.939 125.862C709.867 125.955 709.676 126.002 709.556 125.979C709.437 125.955 709.269 125.839 709.245 125.723C709.006 124.698 708.79 123.697 708.551 122.673C707.952 120.065 707.402 117.434 706.708 114.827C705.798 111.358 704.529 108.005 702.83 104.816C701.465 102.301 699.837 99.95 697.898 97.8314C694.619 94.2926 691.316 90.7539 687.94 87.3082C685.834 85.143 683.56 83.1408 681.381 81.0688C680.184 79.928 678.964 78.7872 677.791 77.6231C677.456 77.3204 677.144 76.9712 676.881 76.622C676.57 76.1797 676.163 75.877 675.756 75.5278C674.391 74.3171 673.075 73.0832 671.806 71.8027C664.385 64.3759 657.348 56.5999 650.214 48.9403C647.892 46.4492 645.905 43.702 644.062 40.8849C643.942 40.6987 643.823 40.4892 643.703 40.3029C641.932 37.3229 639.777 34.6222 637.144 32.3174C636.929 32.1078 636.713 31.8983 636.498 31.6888C636.163 31.3628 635.995 30.9438 635.995 30.4781C635.995 29.803 636.043 29.1278 636.067 28.4759C636.067 27.5912 636.067 26.6832 636.067 25.7985C636.067 25.7287 636.067 25.7287 636.091 25.7287Z" fill="#114C7B" stroke="white" stroke-width="0.25" stroke-miterlimit="10"/>
<path d="M231.182 81.7672C231.038 81.581 230.871 81.4413 230.799 81.255C230.727 81.0455 230.727 80.7894 230.799 80.6031C231.397 79.0666 232.02 77.5533 232.666 76.04C232.81 75.714 233.121 75.4114 233.432 75.2251C233.935 74.8992 234.485 74.6198 235.06 74.4335C241.164 72.4779 247.172 70.3127 253.181 68.101C257.322 66.5877 261.487 65.0744 265.629 63.5611C268.98 62.3272 272.331 61.07 275.706 59.8361C281.069 57.8804 286.455 55.9481 291.841 54.039C292.918 53.6432 294.019 53.3172 295.12 52.9913C295.407 52.8982 295.718 52.9447 296.03 52.9447C296.197 52.9447 296.461 53.2474 296.461 53.4104C296.461 53.5501 296.484 53.713 296.461 53.8527C296.221 54.9702 295.718 55.9713 295.12 56.9259C294.546 57.8571 293.588 58.346 292.559 58.7186C289.902 59.6731 287.268 60.6742 284.635 61.652C280.781 63.0955 276.951 64.5622 273.097 65.9824C267.735 67.9846 262.373 69.9169 257.035 71.9424C249.686 74.7129 242.385 77.53 235.06 80.3238C233.983 80.7428 232.953 81.2085 231.9 81.6275C231.685 81.7439 231.445 81.7206 231.182 81.7672Z" fill="#E19F46"/>
<path d="M157.862 158.503C157.79 158.41 157.694 158.34 157.67 158.247C157.646 158.154 157.646 158.014 157.67 157.897C157.981 157.106 158.293 156.314 158.652 155.546C158.724 155.383 158.891 155.22 159.035 155.127C159.298 154.964 159.585 154.824 159.873 154.731C163.032 153.73 166.144 152.589 169.256 151.448C171.411 150.657 173.565 149.889 175.696 149.097C177.443 148.468 179.167 147.793 180.914 147.165C183.691 146.164 186.491 145.162 189.268 144.161C189.819 143.952 190.393 143.789 190.968 143.626C191.112 143.579 191.279 143.603 191.423 143.603C191.518 143.603 191.662 143.766 191.662 143.835C191.662 143.905 191.686 143.998 191.662 144.068C191.542 144.65 191.279 145.162 190.968 145.651C190.657 146.14 190.178 146.373 189.651 146.583C188.287 147.072 186.922 147.584 185.534 148.096C183.547 148.841 181.536 149.609 179.55 150.354C176.773 151.379 173.996 152.403 171.219 153.451C167.413 154.894 163.631 156.338 159.825 157.804C159.274 158.014 158.724 158.27 158.173 158.479C158.125 158.479 157.981 158.479 157.862 158.503Z" fill="#E19F46"/>
<path d="M541.728 5.63668C541.728 7.19654 541.441 8.33733 540.819 9.385C540.436 10.0602 539.407 10.2464 538.832 9.73422C538.497 9.43156 538.234 9.05906 537.875 8.77968C537.396 8.40718 536.917 8.03467 536.39 7.75529C535.648 7.38279 534.906 7.4992 534.26 8.03467C533.47 8.66327 532.967 9.47812 532.56 10.3861C531.746 12.2486 531.22 14.181 530.813 16.1599C530.262 18.7907 529.712 21.3982 529.209 24.0523C528.946 25.4492 528.467 26.7763 528.036 28.1266C527.749 29.0578 527.342 29.9425 526.6 30.641C526.432 30.8039 526.265 30.9204 526.073 31.06C525.786 31.2696 525.211 31.1299 525.092 30.8272C525.02 30.6177 524.9 30.4082 524.876 30.1986C524.589 27.8239 523.895 25.5423 523.009 23.3073C522.195 21.2353 521.286 19.1632 520.376 17.1144C520.017 16.2996 519.538 15.5313 519.059 14.763C518.868 14.4604 518.581 14.181 518.317 13.9249C518.03 13.6688 517.647 13.5757 517.264 13.7154C517.192 13.7386 517.12 13.7619 517.049 13.8085C515.971 14.5768 514.87 14.3207 513.793 13.8318C512.596 13.2963 511.567 12.528 510.801 11.4803C510.083 10.4792 509.891 9.385 510.394 8.31405C511.064 6.82403 511.902 5.38058 512.979 4.12338C513.123 3.96041 513.314 3.82073 513.482 3.68104C513.793 3.42494 514.152 3.33181 514.559 3.3551C514.87 3.37838 515.181 3.40166 515.469 3.49478C517.503 4.07682 519.227 5.12449 520.543 6.77747C522.482 9.22203 523.919 11.8994 524.828 14.8561C525.283 16.2763 525.69 17.7198 526.025 19.1632C526.145 19.6754 526.36 20.141 526.552 20.6299C526.576 20.6765 526.672 20.7231 526.743 20.7464C526.887 20.8162 527.055 20.7929 527.102 20.6067C527.462 19.2331 527.797 17.8595 528.108 16.4858C528.706 13.9482 529.281 11.4105 529.903 8.8728C530.286 7.26638 530.933 5.75309 531.746 4.30964C532.345 3.26197 533.111 2.33071 534.044 1.53914C534.38 1.23648 534.763 1.00367 535.17 0.770853C536.51 -0.0207171 537.827 0.188816 539.024 1.07351C540.364 2.05133 541.154 3.40166 541.705 4.89167C541.752 5.21761 541.728 5.59012 541.728 5.63668Z" fill="#E19F46"/>
<path d="M305.079 6.59123C305.007 6.96373 304.839 7.84843 304.6 8.68656C304.504 9.03578 304.241 9.33844 303.978 9.61782C303.571 10.0834 302.757 10.1533 302.326 9.78079C301.991 9.47813 301.656 9.15219 301.368 8.82625C300.89 8.31406 300.339 7.94155 299.693 7.68546C299.094 7.45264 298.496 7.49921 297.945 7.84843C297.227 8.31406 296.701 8.94266 296.317 9.68766C295.504 11.2941 294.929 12.9936 294.57 14.7397C293.924 17.7198 293.349 20.7231 292.727 23.7031C292.368 25.3794 291.865 27.0091 291.243 28.6155C290.955 29.3838 290.525 30.1055 289.926 30.6876C289.782 30.8505 289.567 30.9669 289.376 31.0833C289.136 31.2463 288.705 31.1299 288.586 30.8738C288.49 30.6643 288.394 30.478 288.322 30.2452C288.179 29.6632 288.035 29.0811 287.939 28.4991C287.556 26.2175 286.718 24.0523 285.857 21.9104C285.186 20.2575 284.492 18.6045 283.75 16.9748C283.367 16.1599 282.888 15.3916 282.41 14.6466C282.218 14.344 281.907 14.0879 281.62 13.855C281.38 13.6688 281.069 13.5757 280.758 13.6921C280.542 13.7619 280.327 13.8318 280.136 13.9482C279.346 14.4138 278.532 14.344 277.718 14.0413C276.497 13.5757 275.42 12.8772 274.534 11.8994C274.007 11.3174 273.696 10.6422 273.577 9.8972C273.505 9.54798 273.529 9.12891 273.648 8.80297C274.319 6.96373 275.324 5.31075 276.641 3.84401C277.095 3.3551 277.694 3.21541 278.316 3.33182C280.255 3.68104 281.907 4.56574 283.247 5.96263C284.181 6.94045 284.995 8.03468 285.689 9.19875C286.575 10.6888 287.341 12.2253 287.891 13.855C288.633 15.9737 289.256 18.1156 289.663 20.304C289.711 20.5135 290.022 20.7464 290.165 20.6765C290.285 20.6067 290.429 20.5135 290.501 20.4204C290.596 20.304 290.644 20.1643 290.692 20.0246C290.764 19.8151 290.836 19.6056 290.86 19.3728C291.291 16.9515 291.937 14.5768 292.464 12.1788C292.799 10.6422 293.11 9.12891 293.613 7.63889C294.283 5.72981 295.097 3.89058 296.485 2.354C297.203 1.56243 297.993 0.887267 299.022 0.468201C299.765 0.165541 300.483 0.14226 301.249 0.398356C302.996 1.02696 305.27 3.89058 305.079 6.59123Z" fill="#E19F46"/>
<path d="M331.148 75.0621C329.807 75.0854 328.275 75.132 326.767 75.1785C326.169 75.2018 325.546 75.1785 324.924 75.1553C324.326 75.132 323.966 74.5965 324.134 74.061C324.158 73.9912 324.158 73.9213 324.182 73.8515C325.092 72.0355 326.097 70.2894 327.414 68.7529C328.754 67.1697 330.621 66.4945 332.68 66.4247C334.427 66.3549 336.199 66.3316 337.946 66.4247C340.388 66.5411 342.829 66.7274 345.271 66.9369C346.42 67.03 347.545 67.2396 348.599 67.6819C348.814 67.775 349.005 67.8682 349.221 67.9846C349.843 68.3338 350.226 69.2185 350.083 69.9169C350.011 70.1963 349.963 70.499 349.843 70.7783C349.628 71.244 349.436 71.7329 349.149 72.1752C346.947 75.5976 344.338 78.694 341.274 81.418C340.603 82.0233 339.813 82.4889 338.975 82.8381C336.941 83.7228 334.858 84.398 332.728 85.0266C330.669 85.6319 328.61 86.1674 326.552 86.7261C326.264 86.796 325.953 86.8193 325.642 86.796C325.522 86.796 325.331 86.6796 325.283 86.5865C325.235 86.47 325.259 86.2372 325.331 86.1907C325.858 85.7716 326.408 85.3525 326.983 85.0033C329.376 83.5366 331.866 82.2561 334.355 80.9523C336.366 79.8814 338.353 78.7872 340.34 77.6697C340.675 77.4834 340.938 77.2273 341.226 76.9945C341.489 76.7617 341.393 76.2029 341.058 76.0632C340.651 75.877 340.22 75.6674 339.789 75.5976C338.664 75.4346 337.515 75.2949 336.366 75.2251C334.715 75.1087 333.015 75.1087 331.148 75.0621Z" fill="#E19F46"/>
<path d="M625.869 19.5824C625.869 19.6056 625.893 19.8385 625.821 20.048C625.606 20.6067 625.342 21.1422 625.127 21.701C624.529 23.191 623.403 24.099 621.871 24.6577C614.929 27.2187 608.011 29.8029 601.093 32.4104C596.449 34.1566 591.853 35.9492 587.233 37.7419C583.26 39.2785 579.286 40.8383 575.312 42.3982C575.025 42.5146 574.738 42.6077 574.45 42.6776C574.115 42.7707 573.637 42.3516 573.708 42.0257C573.756 41.8162 573.78 41.5833 573.852 41.3738C574.235 40.0002 574.881 38.743 575.432 37.416C575.791 36.5313 576.485 35.9725 577.395 35.6466C578.185 35.3672 578.975 35.1111 579.789 34.855C584.241 33.4581 588.598 31.8517 592.954 30.2685C598.101 28.3827 603.224 26.4038 608.418 24.6112C611.65 23.4936 614.858 22.2364 618.089 21.0491C619.813 20.4205 621.536 19.8385 623.284 19.2797C623.93 19.0702 624.624 18.977 625.295 18.8606C625.486 18.8141 625.845 19.14 625.869 19.5824Z" fill="#E19F46"/>
<path d="M524.542 54.5978C522.412 54.6676 520.736 54.7142 519.036 54.7375C518.51 54.7375 517.983 54.6676 517.456 54.5978C517.193 54.5745 516.954 54.1787 517.026 53.8993C517.073 53.62 517.121 53.294 517.265 53.0379C518.031 51.7574 518.821 50.477 519.635 49.2198C519.922 48.7774 520.257 48.3583 520.64 48.0091C521.694 46.9847 522.938 46.2863 524.446 46.1466C524.973 46.1 525.524 46.0535 526.05 46.0302C529.497 45.9604 532.944 46.0768 536.367 46.2397C537.971 46.3096 539.551 46.5657 541.107 47.0313C541.394 47.1244 541.706 47.2176 541.945 47.3572C542.663 47.7996 543.285 48.5446 542.998 49.6155C542.831 50.2674 542.615 50.896 542.232 51.4781C540.03 54.9004 537.421 57.9969 534.405 60.7674C533.447 61.6521 532.274 62.2341 531.077 62.6765C529.449 63.3051 527.774 63.8871 526.098 64.3993C524.135 65.0046 522.124 65.4935 520.138 66.029C519.707 66.1454 519.228 66.192 518.797 66.2618C518.534 66.3084 518.294 66.1221 518.318 65.9126C518.342 65.7729 518.342 65.5633 518.438 65.5168C518.988 65.121 519.539 64.7019 520.138 64.376C523.13 62.723 526.146 61.1166 529.138 59.4869C530.67 58.6488 532.178 57.7873 533.71 56.9026C533.95 56.763 534.141 56.5069 534.333 56.274C534.5 56.0645 534.381 55.5989 534.117 55.5058C533.83 55.3893 533.567 55.2729 533.255 55.1798C531.987 54.8539 530.694 54.7142 529.401 54.6676C527.606 54.6443 525.859 54.6211 524.542 54.5978Z" fill="#E19F46"/>
<path d="M763.585 47.9858C762.148 48.0323 760.545 48.1022 758.941 48.1255C758.414 48.1255 757.887 48.0556 757.337 48.0091C757.026 47.9858 756.738 47.427 756.834 47.1244C756.882 46.9847 756.906 46.8217 756.978 46.7053C757.816 45.1222 758.725 43.5623 759.826 42.1421C761.095 40.5124 762.747 39.5346 764.877 39.488C766.409 39.4415 767.941 39.4415 769.473 39.4648C771.532 39.488 773.615 39.5346 775.673 39.6277C777.421 39.6976 779.192 39.9071 780.868 40.4426C781.227 40.559 781.586 40.6987 781.921 40.8849C782.783 41.3738 783.166 42.2818 782.855 43.1898C782.639 43.8184 782.376 44.447 782.017 45.0057C781.514 45.8439 780.94 46.6354 780.365 47.4037C778.761 49.4991 777.038 51.478 775.171 53.3405C773.806 54.7141 772.202 55.6687 770.383 56.3205C767.798 57.2518 765.188 58.0899 762.507 58.7418C761.311 59.0212 760.138 59.3471 758.965 59.6265C758.773 59.6731 758.51 59.6032 758.318 59.5334C758.223 59.4868 758.151 59.2773 758.175 59.1609C758.199 59.0212 758.294 58.8815 758.414 58.7884C758.917 58.4392 759.395 58.0899 759.922 57.7873C762.986 56.111 766.074 54.458 769.138 52.7818C770.598 51.9902 772.059 51.1521 773.495 50.3139C773.758 50.1742 773.95 49.9181 774.141 49.7086C774.309 49.5223 774.165 49.0334 773.95 48.917C773.112 48.498 772.202 48.3816 771.293 48.2652C769.473 48.0323 767.63 48.0091 765.787 47.9625C765.141 47.9625 764.47 47.9858 763.585 47.9858Z" fill="#E19F46"/>
<path d="M219.621 54.0621C219.86 57.6474 218.807 61.1397 217.61 64.6086C217.514 64.888 217.371 65.1673 217.323 65.4467C217.299 65.6563 217.347 65.9356 217.466 66.0753C217.825 66.4711 218.208 66.797 218.615 67.1463C219.812 68.1939 220.889 69.358 221.655 70.7549C222.421 72.1052 222.78 73.5254 222.685 75.0387C222.613 75.9234 222.493 76.8081 222.374 77.6928C222.014 80.5564 220.267 82.3723 217.682 83.5597C216.7 84.0021 215.647 84.165 214.57 84.165C213.517 84.165 212.631 83.746 211.889 83.0708C211.434 82.6517 211.099 82.1628 211.003 81.5342C210.907 80.9522 210.764 80.3469 210.812 79.7648C210.907 78.1351 211.051 76.5054 211.554 74.9223C212.487 71.8491 213.66 68.8691 214.977 65.9356C215.767 64.143 216.389 62.3037 216.82 60.4179C217.777 56.204 217.323 52.1297 215.216 48.2883C214.235 46.5189 213.11 44.8426 211.697 43.3526C211.29 42.9103 210.883 42.4679 210.476 42.0256C209.447 40.8615 209.04 40.2562 210.117 38.673C210.452 38.1841 210.764 37.6486 211.099 37.1597C211.29 36.8804 211.817 36.7872 212.128 36.9735C212.439 37.183 212.774 37.3693 213.062 37.6021C215.934 40.1863 217.897 43.3293 218.855 47.0311C219.405 49.3127 219.669 51.6175 219.621 54.0621ZM213.062 77.5065C213.062 78.2981 213.852 79.0664 214.689 79.0664C214.833 79.0664 215.001 79.0897 215.144 79.0664C217.083 78.7637 218.783 78.0187 220.219 76.6917C220.626 76.3192 220.65 75.7139 220.291 75.2715C219.022 73.7349 217.418 72.6407 215.647 71.7327C215.216 71.4999 214.785 71.6862 214.522 72.1751C213.732 73.6418 213.325 75.2249 213.086 76.8314C213.038 77.0642 213.062 77.297 213.062 77.5065Z" fill="#E19F46"/>
<path d="M742.4 44.9359C742.592 48.7308 741.634 52.3162 740.342 55.8549C740.27 56.0645 740.15 56.274 740.102 56.4835C740.03 56.7862 740.102 57.0889 740.318 57.3217C740.581 57.6011 740.892 57.8106 741.179 58.0434C742.496 59.0911 743.573 60.325 744.411 61.7917C745.129 63.0489 745.536 64.376 745.512 65.8427C745.488 67.3327 745.201 68.7994 744.866 70.2662C744.674 71.081 744.243 71.7795 743.669 72.4081C742.855 73.316 741.874 74.0145 740.772 74.5732C739.576 75.1786 738.307 75.3648 736.99 75.2484C735.291 75.1087 733.95 73.9679 733.735 72.3149C733.615 71.2906 733.663 70.2429 733.735 69.1952C733.854 67.4026 734.405 65.6797 735.003 64.0035C735.841 61.6986 736.799 59.417 737.732 57.1354C738.283 55.7385 738.81 54.3649 739.24 52.9215C740.03 50.2907 740.126 47.6366 739.863 44.9592C739.719 43.6089 739.312 42.3284 738.786 41.0945C737.756 38.7431 736.392 36.6012 734.644 34.6921C733.878 33.854 733.136 32.9925 732.442 32.1311C732.155 31.7586 732.107 31.2697 732.322 30.8506C732.777 29.9892 733.304 29.1744 733.807 28.3363C734.046 27.9405 734.644 27.8473 735.027 28.15C735.578 28.5458 736.129 28.9649 736.607 29.4538C738.738 31.6422 740.342 34.1566 741.323 37.0435C741.802 38.4637 742.113 39.9304 742.233 41.4204C742.281 42.5612 742.328 43.7486 742.4 44.9359ZM737.637 70.173C737.732 70.173 737.972 70.173 738.187 70.1265C739.935 69.7773 741.491 69.0788 742.831 67.9147C743.286 67.519 743.358 66.774 742.951 66.3083C741.682 64.795 740.102 63.6775 738.307 62.8161C737.972 62.6531 737.493 62.8161 737.325 63.1188C736.751 64.1664 736.392 65.3072 736.129 66.448C735.985 67.0999 735.841 67.7518 735.793 68.4037C735.745 69.2884 736.631 70.1498 737.637 70.173Z" fill="#E19F46"/>
<path d="M698.378 31.3395C698.546 34.8085 697.995 38.161 696.918 41.4437C696.176 43.702 695.29 45.937 694.5 48.172C694.045 49.4991 693.638 50.8727 693.231 52.223C692.872 53.4569 692.848 54.7141 693.04 55.9946C693.16 56.8095 693.447 57.5777 693.926 58.2762C694.141 58.5788 694.404 58.8582 694.692 59.091C695.218 59.5334 696.008 59.58 696.631 59.2307C697.301 58.8582 697.851 58.3228 698.282 57.7174C698.617 57.2285 698.929 56.7163 699.288 56.2274C699.359 56.111 699.551 56.0645 699.671 56.0179C699.838 55.948 700.173 56.1576 700.197 56.3205C700.269 57.1587 699.982 57.9503 699.766 58.7185C699.312 60.4414 698.665 62.1176 697.468 63.5378C697.085 64.0034 696.631 64.3759 696.104 64.7019C694.261 65.8194 692.25 64.7252 691.556 63.4912C691.101 62.6997 690.838 61.8383 690.67 60.9768C690.383 59.58 690.359 58.1598 690.479 56.7629C690.67 54.3882 691.125 52.0368 691.867 49.7785C692.585 47.59 693.327 45.3783 694.141 43.2364C695.027 40.9082 695.482 38.5102 695.625 36.0424C695.673 35.4603 695.625 34.855 695.673 34.2497C695.888 29.7331 694.261 25.7985 691.484 22.2598C690.239 20.6533 688.899 19.14 687.606 17.5802C687.51 17.4638 687.414 17.3474 687.319 17.231C686.864 16.6489 686.768 15.9505 687.103 15.3219C687.606 14.3208 688.228 13.3895 688.827 12.435C689.042 12.0857 689.712 12.0392 690.072 12.3186C690.598 12.7609 691.101 13.2033 691.58 13.6689C693.949 15.9505 695.721 18.6046 696.87 21.6777C697.468 23.2841 697.899 24.9604 698.067 26.66C698.187 28.2198 698.282 29.7797 698.378 31.3395Z" fill="#E19F46"/>
<path d="M470.537 31.3162C470.753 34.7851 470.083 38.1377 469.077 41.4203C468.503 43.2829 467.808 45.0755 467.114 46.8915C466.54 48.4281 466.037 49.9879 465.558 51.5478C465.056 53.2241 464.936 54.9003 465.343 56.6231C465.534 57.438 465.917 58.1597 466.468 58.7883C467.138 59.5333 468.12 59.673 468.934 59.1375C469.891 58.4857 470.609 57.6242 471.136 56.6231C471.399 56.1342 471.782 55.9713 472.022 56.1575C472.309 56.3671 472.333 56.6464 472.285 56.9491C471.95 59.0211 471.303 61.0001 470.178 62.7927C469.652 63.6309 469.005 64.306 468.096 64.8182C466.444 65.7262 464.314 64.7251 463.715 63.561C463.236 62.6298 462.877 61.6519 462.734 60.6043C462.446 58.1364 462.59 55.6919 463.093 53.2706C463.524 51.2218 464.098 49.2196 464.84 47.264C465.486 45.5179 466.157 43.7718 466.707 42.0024C467.234 40.3727 467.641 38.6964 467.713 36.9736C467.785 35.3439 467.785 33.7142 467.785 32.0612C467.785 30.6177 467.33 29.2674 466.827 27.9404C466.061 25.9149 465.103 23.9825 463.667 22.283C462.351 20.7464 461.202 19.0701 459.765 17.6034C459.717 17.5568 459.67 17.487 459.622 17.4404C458.927 16.6721 458.927 15.8107 459.382 14.9493C459.765 14.2276 460.196 13.5291 460.627 12.8074C460.699 12.691 460.819 12.5746 460.914 12.4582C461.202 12.109 461.752 12.0391 462.159 12.3185C462.279 12.4116 462.422 12.4815 462.542 12.5746C464.936 14.6932 466.923 17.1145 468.311 20.0014C469.388 22.2364 469.987 24.6344 470.25 27.079C470.394 28.4758 470.442 29.896 470.537 31.3162Z" fill="#E19F46"/>
<path d="M620.579 78.6242C620.675 77.8559 620.771 76.9712 621.178 76.1564C621.776 74.9458 622.446 73.7817 623.332 72.7573C624.17 71.8028 625.055 70.8715 626.037 70.0334C627.138 69.0788 628.359 68.3571 629.723 67.8216C635.157 65.6332 640.615 63.4913 646.193 61.6753C648.371 60.9769 650.573 60.3483 652.752 59.7197C652.895 59.6731 653.063 59.7197 653.206 59.7197C653.446 59.7197 653.781 60.0922 653.781 60.325C653.685 61.3727 653.35 62.3738 652.823 63.2817C652.464 63.8638 651.914 64.2828 651.315 64.6088C650.382 65.1443 649.352 65.4702 648.347 65.7729C644.565 66.9369 640.878 68.3804 637.168 69.7773C635.181 70.5223 633.146 71.2207 631.16 71.989C629.963 72.4546 628.766 72.9901 627.593 73.5256C626.635 73.9679 625.726 74.55 624.936 75.2717C624.72 75.4812 624.505 75.6908 624.289 75.9003C623.811 76.3892 623.859 77.0411 624.361 77.4602C625.008 77.9956 625.702 78.4613 626.468 78.7872C627.018 79.02 627.593 79.2528 628.143 79.5322C628.55 79.7417 628.933 79.9746 629.292 80.2539C629.604 80.4867 629.819 80.836 629.795 81.2085C629.747 82.2329 629.652 83.2805 629.556 84.3049C629.532 84.6308 629.029 84.9335 628.694 84.8637C627.114 84.5377 625.558 84.2583 624.098 83.5366C623.332 83.1641 622.638 82.7218 622.015 82.163C620.986 81.2317 620.579 80.091 620.579 78.6242Z" fill="#E19F46"/>
<path d="M804.758 3.19217C804.662 4.75203 804.351 6.10236 803.441 7.26643C803.273 7.47597 802.819 7.56909 802.627 7.38284C802.292 7.08018 801.933 6.8008 801.622 6.47486C800.88 5.75314 799.994 5.66001 799.084 5.98595C798.007 6.38174 797.05 7.01033 796.379 7.96488C796.14 8.3141 796.164 8.82629 796.475 9.19879C796.906 9.75755 797.48 10.1068 798.079 10.4327C799.898 11.4105 801.717 11.4571 803.537 10.4327C804.47 9.92052 805.356 9.33848 806.242 8.75645C807.247 8.08128 808.324 7.49925 809.449 7.0569C809.88 6.89393 810.359 7.28971 810.335 7.77862C810.287 9.17551 809.737 10.3629 808.803 11.4105C808.133 12.1323 807.391 12.7841 806.529 13.2731C802.22 15.834 798.127 18.6976 793.914 21.3983C793.603 21.6078 793.267 21.7708 792.908 21.957C792.477 22.1899 791.903 21.8639 791.903 21.4216C791.903 20.1178 792.262 18.9072 793.243 17.9759C793.77 17.4404 794.393 16.9981 794.967 16.4859C795.135 16.3462 795.254 16.1367 795.374 15.9504C795.47 15.834 795.374 15.4149 795.278 15.3218C795.158 15.2287 795.063 15.1123 794.919 15.0424C794.656 14.9028 794.345 14.8329 794.081 14.6932C791.951 13.4826 791.185 11.6433 791.903 9.38505C792.118 8.6866 792.454 7.98816 792.813 7.33628C793.148 6.75424 793.555 6.21877 793.986 5.68329C795.182 4.21656 796.571 2.93608 798.007 1.72544C799.132 0.770901 800.473 0.28199 801.981 0.142301C803.13 0.0258941 803.968 0.491524 804.446 1.70216C804.614 2.26092 804.662 2.79639 804.758 3.19217Z" fill="#114C7B" stroke="white" stroke-width="0.25" stroke-miterlimit="10"/>
<path d="M747.378 7.66222C747.474 7.21987 747.498 6.84737 747.641 6.49815C748.144 5.40392 748.718 4.35625 749.484 3.42499C750.083 2.70327 750.777 2.5403 751.735 2.81968C753.338 3.26202 754.631 4.17 755.636 5.4272C757.336 7.5691 758.653 9.89724 759.275 12.5513C759.514 13.6223 759.682 14.7398 760.257 15.7409C760.28 15.7875 760.376 15.8573 760.424 15.8573C760.568 15.834 760.687 15.7875 760.807 15.7176C760.855 15.6943 760.903 15.6012 760.927 15.5314C761.238 13.9948 761.549 12.4815 761.884 10.9449C762.315 8.89614 762.746 6.87065 763.512 4.91501C763.919 3.86734 764.493 2.9128 765.236 2.02811C765.762 1.37622 766.385 0.84075 767.151 0.444965C768.036 -0.0206647 768.898 0.0258983 769.76 0.514809C770.358 0.864031 770.885 1.30638 771.244 1.88842C771.435 2.19108 771.555 2.56358 771.627 2.9128C771.747 3.42499 771.388 4.03031 770.909 4.17C770.622 4.23985 770.31 4.30969 770.023 4.35625C769.257 4.47266 768.539 4.65891 768.084 5.38064C767.893 5.66002 767.51 5.86955 767.175 6.03252C766.169 6.54471 765.547 7.33628 765.14 8.33739C764.517 9.85068 764.015 11.4105 763.656 13.017C763.081 15.6245 762.722 18.3019 761.932 20.8628C761.669 21.701 761.334 22.5391 760.951 23.3539C760.759 23.7264 760.376 24.0291 760.065 24.355C759.897 24.5413 759.395 24.4016 759.275 24.1688C759.179 23.9593 759.06 23.773 758.988 23.5635C758.892 23.2841 758.844 22.9814 758.796 22.7021C758.485 20.8628 757.911 19.0934 757.145 17.3706C756.474 15.8573 755.828 14.3673 755.158 12.854C754.966 12.4582 754.727 12.0624 754.487 11.6899C753.841 10.7587 753.578 10.6655 752.405 11.1079C751.854 11.3174 751.376 11.2941 750.849 11.1079C749.628 10.619 748.527 9.96709 747.857 8.80301C747.593 8.47707 747.498 8.03473 747.378 7.66222Z" fill="#E19F46"/>
<path d="M348.861 152.357C348.957 151.798 349.077 150.774 349.268 149.749C350.106 145.419 351.662 141.298 353.433 137.27C353.84 136.316 354.271 135.361 354.75 134.43C355.061 133.848 355.468 133.289 355.875 132.754C356.043 132.521 356.354 132.381 356.617 132.242C356.904 132.102 357.215 132.148 357.479 132.311C357.718 132.451 357.886 132.87 357.814 133.103C357.575 133.801 357.335 134.523 357.072 135.198C356.689 136.176 356.234 137.107 355.827 138.085C355.612 138.597 355.731 139.133 356.21 139.482C357.239 140.25 358.173 141.135 359.035 142.09C359.705 142.811 360.28 143.603 360.71 144.488C361.381 145.861 361.692 147.281 361.644 148.818C361.572 150.471 361.237 152.054 360.806 153.637C360.734 153.917 360.615 154.196 360.447 154.452C358.795 156.92 356.473 158.293 353.481 158.619C352.859 158.689 352.26 158.619 351.662 158.41C350.609 158.037 349.819 157.409 349.364 156.361C348.861 155.197 348.813 154.033 348.861 152.357ZM353.29 153.032C355.181 152.892 357.192 152.124 358.843 150.587C359.49 150.005 359.513 149.284 358.915 148.608C358.724 148.376 358.508 148.166 358.269 147.98C356.976 147.072 355.683 146.164 354.391 145.256C354.271 145.163 354.127 145.093 354.008 145.023C353.697 144.837 353.17 144.953 353.002 145.233C352.859 145.489 352.667 145.745 352.572 146.024C352.236 146.932 351.925 147.84 351.662 148.771C351.494 149.4 351.375 150.075 351.303 150.727C351.255 151.076 351.327 151.472 351.422 151.821C351.566 152.52 352.189 152.985 353.29 153.032Z" fill="#E19F46"/>
<path d="M603.367 118.552C603.511 117.015 603.655 115.292 604.086 113.639C605.163 109.519 606.623 105.538 608.442 101.673C608.849 100.788 609.184 99.8801 609.735 99.0653C610.094 98.5531 610.477 98.134 611.004 97.8081C611.267 97.6451 611.578 97.5985 611.889 97.7382C612.177 97.8546 612.416 98.3435 612.344 98.6695C612.296 98.879 612.248 99.1118 612.153 99.3214C611.961 99.8103 611.722 100.276 611.53 100.765C611.123 101.812 610.692 102.837 610.309 103.885C610.166 104.257 610.286 104.63 610.597 104.909C611.147 105.421 611.77 105.863 612.296 106.399C612.991 107.097 613.661 107.819 614.259 108.564C615.791 110.496 616.27 112.708 616.031 115.083C615.959 115.828 615.815 116.55 615.743 117.295C615.528 119.53 614.307 121.183 612.536 122.486C610.956 123.627 609.137 124.163 607.15 124.093C606.192 124.046 605.354 123.744 604.66 123.092C604.277 122.719 603.966 122.3 603.798 121.788C603.511 120.903 603.344 119.763 603.367 118.552ZM605.737 116.247C605.69 117.807 606.671 118.692 607.916 118.529C609.208 118.366 610.429 118.04 611.578 117.411C612.32 117.015 612.967 116.526 613.541 115.921C613.972 115.479 613.996 114.78 613.565 114.315C613.326 114.035 613.062 113.756 612.775 113.523C611.554 112.638 610.333 111.777 609.089 110.939C608.849 110.776 608.538 110.706 608.251 110.59C608.011 110.496 607.557 110.659 607.461 110.892C606.599 112.638 606.073 114.478 605.737 116.363C605.737 116.41 605.737 116.503 605.737 116.247Z" fill="#E19F46"/>
<path d="M555.78 145.791C555.086 145.721 554.176 145.605 553.267 145.535C552.884 145.512 552.501 145.652 552.237 145.931C552.07 146.094 551.926 146.257 551.783 146.443C548.168 150.634 543.644 153.59 538.425 155.593C536.51 156.338 534.595 157.059 532.656 157.781C532.465 157.851 532.201 157.781 532.01 157.688C531.914 157.641 531.818 157.385 531.866 157.316C532.201 156.803 532.728 156.501 533.255 156.198C535.72 154.824 538.162 153.474 540.604 152.077C543.5 150.424 546.325 148.632 548.982 146.629C549.293 146.397 549.556 146.164 549.844 145.908C550.107 145.652 550.059 145.116 549.748 144.93C549.413 144.744 549.054 144.604 548.718 144.418C547.474 143.719 546.875 142.671 546.947 141.275C546.971 140.599 546.995 139.924 547.306 139.319C547.785 138.341 547.929 137.34 547.785 136.269C547.761 136.129 547.785 135.966 547.761 135.827C547.641 134.476 549.125 133.103 550.586 133.242C551.519 133.336 552.405 133.592 553.195 134.034C554.751 134.965 556.283 135.943 557.528 137.317C558.198 138.038 558.796 138.807 559.275 139.668C559.586 140.204 559.682 140.786 559.682 141.391C559.658 142.695 559.132 143.859 558.461 144.953C558.126 145.489 557.599 145.791 556.929 145.814C556.618 145.814 556.307 145.791 555.78 145.791ZM550.945 138.271C550.801 138.271 550.729 138.271 550.657 138.295C549.82 138.551 549.221 139.086 548.814 139.854C548.599 140.273 548.862 140.972 549.365 141.158C549.915 141.391 550.514 141.554 551.088 141.717C551.591 141.857 552.19 141.461 552.285 140.949C552.429 140.017 552.237 139.179 551.519 138.504C551.352 138.388 551.088 138.341 550.945 138.271ZM556.45 142.555C556.666 142.555 556.762 142.555 556.809 142.532C557.001 142.439 557.216 142.369 557.36 142.229C557.552 142.043 557.48 141.81 557.384 141.624C556.833 140.646 556.02 139.878 555.11 139.226C554.847 139.04 554.224 139.226 554.176 139.552C554.057 140.204 553.961 140.856 553.865 141.507C553.841 141.717 554.152 142.136 554.368 142.183C555.134 142.322 555.852 142.462 556.45 142.555Z" fill="#E19F46"/>
<path d="M767.343 145.791C766.864 145.745 766.026 145.628 765.189 145.558C764.614 145.489 764.135 145.698 763.776 146.117C763.681 146.234 763.585 146.35 763.489 146.466C760.425 150.098 756.619 152.799 752.238 154.708C749.653 155.826 746.996 156.78 744.387 157.804C744.195 157.874 743.932 157.828 743.74 157.781C743.645 157.758 743.549 157.548 743.549 157.432C743.549 157.316 743.669 157.153 743.788 157.083C744.291 156.733 744.794 156.408 745.32 156.105C747.69 154.755 750.084 153.428 752.454 152.077C755.494 150.354 758.414 148.445 761.191 146.35C761.43 146.164 761.598 145.931 761.789 145.698C761.885 145.558 761.813 145.163 761.694 145.093C761.287 144.883 760.88 144.674 760.497 144.464C759.396 143.859 758.845 142.951 758.773 141.74C758.725 140.995 758.749 140.25 759.037 139.552C759.515 138.434 759.707 137.293 759.587 136.06C759.515 135.291 759.755 134.593 760.329 134.034C760.832 133.545 761.454 133.289 762.173 133.289C763.202 133.289 764.159 133.592 764.997 134.104C766.745 135.152 768.492 136.269 769.761 137.899C769.952 138.132 770.12 138.364 770.335 138.597C771.676 140.157 771.652 141.857 770.934 143.626C770.886 143.766 770.814 143.905 770.742 144.022C770 145.535 769.45 145.884 767.343 145.791ZM763.345 141.717C763.465 141.624 763.681 141.531 763.8 141.368C763.944 141.205 764.04 140.972 764.064 140.762C764.183 139.901 763.872 139.156 763.274 138.527C763.058 138.295 762.508 138.201 762.22 138.341C761.574 138.621 761.071 139.063 760.688 139.622C760.353 140.111 760.545 140.902 761.119 141.135C761.742 141.391 762.412 141.554 763.058 141.764C763.106 141.787 763.178 141.764 763.345 141.717ZM765.62 140.949C765.524 141.67 765.811 142.136 766.242 142.206C767.056 142.346 767.87 142.439 768.707 142.532C769.019 142.578 769.354 141.996 769.186 141.717C768.588 140.669 767.798 139.808 766.721 139.203C766.505 139.086 766.003 139.249 765.955 139.482C765.835 140.041 765.715 140.623 765.62 140.949Z" fill="#E19F46"/>
<path d="M235.778 149.33C235.707 149.726 235.683 150.122 235.563 150.448C235.18 151.495 234.797 152.566 234.294 153.567C233.648 154.825 232.906 156.059 232.164 157.269C231.972 157.595 231.709 157.874 231.422 158.107C231.278 158.224 230.991 158.27 230.799 158.224C230.512 158.154 230.225 158.014 229.962 157.851C229.004 157.246 228.046 156.617 227.113 155.965C225.294 154.731 223.474 153.474 221.679 152.24C221.009 151.775 220.817 151.402 221.081 150.75C222.014 148.399 222.996 146.047 224.384 143.882C224.695 143.37 225.006 142.858 225.557 142.532C225.82 142.369 226.131 142.322 226.443 142.392C226.586 142.439 226.73 142.485 226.85 142.579C229.507 144.069 232.02 145.768 234.414 147.631C234.773 147.91 235.108 148.236 235.395 148.562C235.539 148.771 235.635 149.074 235.778 149.33Z" fill="#114C7B" stroke="white" stroke-width="0.25" stroke-miterlimit="10"/>
<path d="M342.35 30.734C342.35 32.061 342.374 33.4114 342.326 34.7384C342.303 35.5533 342.255 36.3681 341.8 37.1131C341.776 37.1597 341.68 37.2295 341.632 37.2295C341.56 37.2295 341.465 37.183 341.441 37.1364C341.345 36.9501 341.201 36.7406 341.177 36.5311C341.106 35.8559 341.034 35.204 341.034 34.5289C340.986 31.2462 340.507 28.0101 339.933 24.7739C339.43 21.9103 338.808 19.07 338.209 16.2296C337.97 15.0656 337.826 13.8782 337.826 12.6908C337.85 11.7829 338.018 10.9215 338.353 10.0833C338.855 8.77956 339.693 7.75518 340.986 7.12658C341.608 6.82392 342.255 6.61438 342.853 6.31173C343.021 6.24188 343.164 5.93922 343.14 5.77625C343.116 5.59 342.949 5.35718 342.781 5.24078C342.279 4.9614 341.728 4.9614 341.273 5.31062C340.914 5.56672 340.627 5.93922 340.292 6.24188C340.124 6.38157 339.933 6.52126 339.741 6.61438C339.622 6.66095 339.43 6.66095 339.31 6.5911C339.191 6.52126 339.071 6.38157 339.047 6.26516C338.951 5.42703 339.239 4.65874 339.382 3.84389C339.526 3.09888 339.837 2.42372 340.22 1.79512C340.579 1.1898 341.13 0.794016 341.752 0.491357C342.255 0.258542 342.781 0.188698 343.308 0.328386C343.739 0.444794 344.194 0.561201 344.601 0.747453C346.563 1.70199 348.096 3.09888 349.245 4.91484C349.532 5.38047 349.604 5.91594 349.46 6.42813C349.245 7.12658 348.933 7.82502 348.622 8.50018C348.383 8.98909 347.928 9.29175 347.425 9.50129C346.923 9.68754 346.396 9.80395 345.893 9.94363C344.265 10.3627 342.638 10.805 341.13 11.5035C340.866 11.6432 340.555 11.7363 340.316 11.9226C339.717 12.3416 339.358 12.9004 339.478 13.6454C339.55 14.0877 339.645 14.5301 339.789 14.9492C341.537 20.0711 342.446 25.3327 342.35 30.734Z" fill="#E19F46"/>
<path d="M672.429 126.305C672.429 124.302 672.621 122.603 672.932 120.927C673.77 116.526 675.11 112.266 676.953 108.145C677.48 106.981 678.078 105.863 678.653 104.723C678.868 104.327 679.108 103.931 679.539 103.722C679.658 103.652 679.85 103.652 679.969 103.698C680.065 103.768 680.161 103.954 680.161 104.071C680.137 104.373 680.089 104.653 679.993 104.932C679.132 107.47 678.198 110.008 677.36 112.545C676.618 114.803 675.9 117.085 675.589 119.46C675.326 121.392 675.302 123.325 675.924 125.21C676.115 125.792 676.403 126.305 676.81 126.747C677.624 127.632 678.629 127.818 679.706 127.282C680.688 126.793 681.43 126.048 682.004 125.164C682.411 124.535 682.818 123.907 683.249 123.301C683.297 123.231 683.536 123.208 683.656 123.255C683.776 123.301 683.871 123.441 683.943 123.557C683.991 123.604 683.991 123.697 683.967 123.767C683.847 124.582 683.8 125.397 683.56 126.188C683.153 127.608 682.698 129.052 682.004 130.379C681.525 131.31 680.927 132.171 680.209 132.94C678.629 134.663 675.804 134.406 674.44 133.056C673.482 132.125 672.98 130.984 672.692 129.727C672.429 128.563 672.405 127.306 672.429 126.305Z" fill="#E19F46"/>
<path d="M255.838 155.08C258.089 155.011 260.267 154.708 262.421 154.172C263.235 153.963 264.049 153.753 264.863 153.567C265.079 153.521 265.318 153.567 265.533 153.567C265.701 153.567 265.916 153.94 265.845 154.079C265.725 154.266 265.629 154.498 265.462 154.615C264.193 155.593 262.828 156.407 261.368 157.059C259.046 158.107 256.557 158.526 254.019 158.573C253.014 158.596 252.056 158.363 251.099 158.06C249.782 157.665 248.418 156.361 248.394 154.545C248.37 153.497 248.537 152.473 248.968 151.495C249.686 149.819 250.764 148.375 252.032 147.095C253.157 145.977 254.283 144.86 255.384 143.719C255.599 143.51 255.791 143.277 255.982 143.044C256.269 142.718 256.078 142.113 255.647 141.926C255.36 141.81 255.072 141.694 254.785 141.624C253.421 141.298 252.056 141.251 250.692 141.507C250.237 141.577 249.782 141.624 249.327 141.67C249.064 141.694 248.753 141.275 248.825 141.042C249.303 139.505 250.357 138.481 251.913 138.015C253.876 137.41 255.838 137.573 257.777 138.155C257.849 138.178 257.921 138.201 257.993 138.248C259.405 138.97 259.884 139.971 259.357 141.391C258.998 142.369 258.448 143.277 257.73 144.068C256.652 145.232 255.599 146.396 254.498 147.537C253.828 148.236 253.062 148.888 252.391 149.609C251.769 150.261 251.218 150.983 250.692 151.705C250.405 152.077 250.357 152.519 250.357 152.985C250.357 153.451 250.572 153.847 250.931 154.149C251.362 154.498 251.841 154.708 252.368 154.778C253.564 154.894 254.689 154.987 255.838 155.08Z" fill="#E19F46"/>
<path d="M651.293 20.2575C651.174 20.0945 650.91 19.9082 650.934 19.7686C651.126 18.5114 651.652 17.3473 652.299 16.253C652.442 16.0202 652.706 15.8107 652.969 15.671C653.495 15.3684 654.046 15.089 654.573 14.8329C659.241 12.6211 663.956 10.5258 668.768 8.64001C669.893 8.19766 671.066 7.82516 672.215 7.45265C672.43 7.38281 672.67 7.38281 672.885 7.33625C673.196 7.28968 673.627 7.75531 673.555 8.08125C673.172 9.73424 672.478 11.1544 670.755 11.8994C667.978 13.1101 665.201 14.3673 662.424 15.5779C659.288 16.9515 656.177 18.3251 653.041 19.6754C652.514 19.9082 651.987 20.2109 651.293 20.2575Z" fill="#E19F46"/>
<path d="M223.212 7.77861C223.236 7.94158 223.284 8.01143 223.26 8.08127C222.948 9.78082 222.206 11.1544 220.483 11.8994C218.304 12.8307 216.174 13.8318 214.02 14.7631C210.333 16.3928 206.623 17.9992 202.936 19.6056C202.577 19.7686 202.242 19.9083 201.883 20.0479C201.524 20.1876 201.165 20.3739 200.83 20.0479C200.566 19.8151 200.686 19.4892 200.782 19.2098C200.95 18.6511 201.189 18.0923 201.356 17.5103C201.739 16.2763 202.625 15.5313 203.774 14.9959C208.681 12.7608 213.589 10.5025 218.64 8.5469C219.693 8.12783 220.794 7.77861 221.871 7.42939C222.158 7.33626 222.47 7.33626 222.757 7.40611C222.972 7.47595 223.116 7.68549 223.212 7.77861Z" fill="#E19F46"/>
<path d="M423.811 20.1876C423.715 20.0944 423.548 20.0013 423.524 19.8849C423.476 19.6754 423.476 19.4193 423.548 19.233C423.883 18.3251 424.218 17.4171 424.649 16.5324C424.792 16.2064 425.104 15.9503 425.415 15.7408C425.846 15.4381 426.324 15.1821 426.803 14.9725C431.615 12.7142 436.474 10.5258 441.453 8.59339C442.435 8.19761 443.464 7.87167 444.469 7.52245C444.756 7.42932 445.068 7.40604 445.379 7.38276C445.714 7.33619 446.169 7.80182 446.073 8.10448C445.882 8.73308 445.714 9.40825 445.403 9.99028C444.996 10.8051 444.373 11.457 443.488 11.8295C442.794 12.1322 442.099 12.4581 441.405 12.7608C436.043 15.1122 430.681 17.4636 425.319 19.8151C424.96 19.978 424.625 20.1177 424.266 20.2341C424.122 20.2574 423.954 20.1876 423.811 20.1876Z" fill="#E19F46"/>
<path d="M424.935 13.2731C424.863 13.1101 424.647 12.8773 424.695 12.7376C425.007 11.8296 425.318 10.8984 425.749 10.037C426.179 9.12898 426.874 8.50038 427.831 8.08131C432.499 6.00926 437.119 3.86737 441.883 2.02813C443.223 1.51594 444.612 1.07359 445.976 0.607962C446.192 0.538117 446.407 0.491554 446.646 0.444991C447.077 0.351866 447.556 0.840777 447.436 1.28312C446.958 3.00595 446.096 4.37956 444.277 5.10129C441.093 6.35849 437.957 7.73209 434.797 9.08242C431.853 10.3163 428.908 11.5735 426.084 13.0403C425.749 13.2265 425.413 13.4128 424.935 13.2731Z" fill="#E19F46"/>
<path d="M202.338 13.3894C202.195 13.2265 202.027 13.11 201.931 12.9238C201.86 12.8074 201.86 12.6211 201.907 12.4814C202.243 11.6433 202.554 10.8052 202.961 10.0136C203.415 9.12891 204.086 8.47703 205.067 8.05796C208.083 6.77748 211.052 5.3806 214.068 4.10011C216.509 3.05245 218.999 2.09791 221.489 1.14337C222.279 0.840709 223.092 0.654457 223.906 0.421642C224.241 0.328516 224.648 0.747583 224.648 1.07352C224.648 1.53915 224.409 1.93494 224.265 2.354C223.787 3.70433 222.829 4.56574 221.465 5.10122C218.927 6.1256 216.414 7.21983 213.876 8.29078C210.214 9.82736 206.551 11.3174 203.056 13.1566C202.841 13.273 202.602 13.3196 202.338 13.3894Z" fill="#E19F46"/>
<path d="M674.846 0.980528C674.87 1.05037 674.894 1.12022 674.87 1.19006C674.463 2.93617 673.65 4.33306 671.806 5.05479C669.125 6.12573 666.492 7.26653 663.835 8.40732C660.268 9.92061 656.678 11.3641 653.254 13.18C653.135 13.2499 652.967 13.2731 652.824 13.3197C652.608 13.3896 652.177 13.0636 652.177 12.8308C652.177 12.761 652.153 12.6678 652.153 12.6213C652.441 11.5503 652.871 10.5027 653.446 9.54811C653.829 8.89623 654.427 8.4306 655.146 8.12794C658.138 6.82418 661.082 5.42729 664.098 4.14681C666.612 3.07586 669.173 2.09804 671.711 1.12022C672.477 0.817558 673.314 0.677869 674.128 0.468336C674.416 0.421773 674.846 0.770995 674.846 0.980528Z" fill="#E19F46"/>
<path d="M375.863 18.2787C375.983 17.2077 376.031 16.0902 376.222 14.996C376.964 10.8053 378.257 6.77764 380.124 2.91292C380.435 2.23776 380.794 1.58588 381.321 1.0504C381.393 0.957275 381.632 0.933994 381.728 0.980557C381.848 1.02712 381.943 1.21337 381.943 1.32978C381.967 1.53931 381.943 1.77213 381.872 1.98166C381.489 3.09917 381.058 4.21668 380.675 5.35747C380.052 7.26655 379.43 9.17563 378.903 11.108C378.353 13.0636 378.305 15.0658 378.568 17.0681C378.688 17.9993 379.167 18.7443 379.861 19.3496C380.292 19.7454 381.034 19.8153 381.584 19.5359C382.422 19.1168 383.069 18.4882 383.547 17.7199C383.835 17.2776 384.05 16.7887 384.553 16.5326C384.672 16.486 384.84 16.5093 384.96 16.5559C385.008 16.5559 385.055 16.6723 385.079 16.7421C385.103 16.8818 385.151 17.0448 385.127 17.1845C384.888 18.1856 384.696 19.2332 384.337 20.2111C383.978 21.1889 383.595 22.1667 382.949 23.0048C382.638 23.4239 382.303 23.843 381.943 24.1922C380.794 25.2631 378.999 25.2864 377.778 24.262C376.797 23.4472 376.27 22.3762 376.079 21.1889C375.959 20.2343 375.959 19.2798 375.863 18.2787Z" fill="#E19F46"/>
<path d="M312.499 41.6299C312.499 39.5812 312.859 37.7419 313.242 35.926C313.984 32.3406 315.228 28.9182 316.856 25.6123C317.143 25.0302 317.359 24.3551 317.981 23.9826C318.077 23.9127 318.268 23.9593 318.412 23.9826C318.46 23.9826 318.508 24.099 318.532 24.1688C318.556 24.3085 318.58 24.4715 318.556 24.6112C318.436 25.1234 318.316 25.6356 318.125 26.1012C317.311 28.1034 316.665 30.1754 316.042 32.2242C315.54 33.8539 315.085 35.5069 315.037 37.2297C315.013 37.9049 315.037 38.5568 315.061 39.2319C315.109 40.0701 315.42 40.8151 315.827 41.5368C316.042 41.9326 316.401 42.212 316.808 42.4448C317.167 42.631 317.526 42.6776 317.909 42.5612C318.723 42.2818 319.394 41.7929 319.872 41.1177C320.255 40.5823 320.638 40.0002 321.045 39.4647C321.117 39.3716 321.333 39.3483 321.452 39.3949C321.572 39.4415 321.716 39.5812 321.716 39.6976C321.739 40.0002 321.763 40.3029 321.716 40.5823C321.309 42.3284 320.782 44.0279 319.872 45.5878C319.465 46.2862 318.939 46.9381 318.221 47.427C317.263 48.0789 315.97 48.1487 314.989 47.5667C313.96 46.9614 313.289 46.1232 312.978 44.9825C312.667 43.8184 312.404 42.6543 312.499 41.6299Z" fill="#E19F46"/>
<path d="M253.756 41.4901C253.828 40.6753 253.876 39.8604 253.995 39.0456C254.57 35.3671 255.455 31.7585 256.964 28.3128C257.562 26.9392 258.232 25.6122 258.903 24.2851C258.998 24.0989 259.214 23.9592 259.405 23.8661C259.501 23.8195 259.669 23.8893 259.812 23.9359C259.86 23.9592 259.932 24.0523 259.932 24.0989C259.716 24.8904 259.525 25.682 259.262 26.4503C258.4 28.988 257.49 31.5024 256.82 34.1099C256.389 35.7862 256.317 37.4857 256.389 39.1853C256.437 40.0234 256.676 40.7917 257.131 41.4901C257.323 41.7928 257.61 42.0489 257.921 42.2817C258.448 42.7008 259.022 42.6775 259.621 42.3748C260.458 41.9325 261.057 41.2806 261.584 40.5356C261.847 40.1631 262.062 39.7906 262.326 39.4181C262.397 39.325 262.589 39.2784 262.709 39.3017C262.828 39.325 262.948 39.4646 263.02 39.5811C263.092 39.6975 263.092 39.8837 263.068 40.0234C262.757 41.9558 262.158 43.7717 261.177 45.4713C260.722 46.2628 260.147 46.938 259.357 47.4502C258.352 48.0788 257.131 48.0788 256.126 47.4269C255.264 46.8682 254.689 46.1231 254.354 45.1686C253.947 43.9813 253.804 43.0733 253.756 41.4901Z" fill="#E19F46"/>
<path d="M501.753 59.2772C501.801 56.9491 502.351 54.6908 502.878 52.4557C503.596 49.4757 504.649 46.6121 506.014 43.8416C506.349 43.1664 506.732 42.5378 507.115 41.886C507.163 41.7928 507.378 41.7695 507.522 41.7695C507.737 41.7463 507.953 42.0024 507.905 42.2352C507.809 42.6775 507.761 43.1199 507.594 43.5389C506.469 46.3094 505.607 49.1498 504.817 52.0367C504.314 53.9225 504.147 55.8316 504.458 57.7872C504.578 58.5555 504.913 59.2074 505.391 59.7894C505.966 60.5344 507.043 60.6974 507.857 60.1852C508.432 59.8127 508.934 59.3471 509.341 58.7883C509.7 58.2994 510.035 57.8105 510.418 57.3448C510.49 57.2517 510.706 57.2284 510.825 57.275C510.945 57.3216 511.041 57.4845 511.065 57.6009C511.113 57.8105 511.113 58.0433 511.065 58.2528C510.706 59.8592 510.275 61.4424 509.461 62.8858C509.102 63.5377 508.695 64.1896 508.168 64.7251C506.229 66.7506 503.788 65.7029 502.782 64.0266C502.351 63.3282 502.064 62.5366 501.968 61.7218C501.873 60.9069 501.825 60.0921 501.753 59.2772Z" fill="#E19F46"/>
<path d="M576.439 25.007C575.098 25.0303 573.758 24.1922 573.183 22.9117C572.8 22.027 572.537 21.0957 572.489 20.1179C572.417 18.3252 572.465 16.5558 572.776 14.7865C573.231 12.1324 573.925 9.54812 574.859 7.03372C575.577 5.14792 576.319 3.2854 577.373 1.56257C577.516 1.32976 577.779 1.14351 578.019 0.957256C578.067 0.910693 578.354 1.0271 578.378 1.12023C578.426 1.3996 578.498 1.72554 578.402 1.98164C578.019 3.19228 577.54 4.35635 577.157 5.56699C576.487 7.61576 575.817 9.66453 575.242 11.7366C574.811 13.3197 574.835 14.9727 574.979 16.6024C575.075 17.6035 575.458 18.4649 576.176 19.1866C576.75 19.7454 577.588 19.8385 578.282 19.4195C579 18.9771 579.599 18.4416 580.054 17.7199C580.365 17.231 580.628 16.6722 581.203 16.3696C581.274 16.323 581.562 16.4162 581.562 16.5093C581.633 16.7887 581.753 17.1146 581.681 17.3707C581.25 19.0237 580.796 20.6767 579.982 22.2132C579.599 22.9582 579.072 23.5868 578.474 24.1689C577.923 24.7276 577.229 24.9837 576.439 25.007Z" fill="#E19F46"/>
<path d="M785.248 75.6907C785.416 73.3393 785.727 71.0111 786.35 68.683C787.187 65.5167 788.312 62.4436 789.821 59.5101C790.06 59.0445 790.323 58.6021 790.706 58.2296C790.874 58.0666 791.209 57.9968 791.305 58.1598C791.376 58.2762 791.472 58.4624 791.448 58.5556C790.85 60.3249 790.227 62.0711 789.653 63.8405C788.887 66.1686 788.121 68.4967 787.81 70.9413C787.642 72.2916 787.762 73.5954 788.121 74.8992C788.288 75.4812 788.624 75.9701 789.054 76.4125C789.629 76.9712 790.467 77.0876 791.161 76.6918C791.975 76.2262 792.549 75.551 793.052 74.7827C793.292 74.4102 793.411 73.9446 793.89 73.7584C794.01 73.7118 794.177 73.7351 794.321 73.7816C794.369 73.7816 794.417 73.8981 794.44 73.9679C794.464 74.0377 794.488 74.1076 794.488 74.1774C794.488 74.3171 794.488 74.4801 794.464 74.6198C794.177 76.3892 793.579 78.0654 792.741 79.6719C792.43 80.2772 791.999 80.7894 791.52 81.2783C790.227 82.5588 788.049 82.5122 786.804 81.1852C786.23 80.5798 785.823 79.8581 785.631 79.0433C785.392 77.949 785.224 76.8548 785.248 75.6907Z" fill="#E19F46"/>
<path d="M400.256 124.558C400.28 122.626 400.543 120.926 400.878 119.25C401.692 115.292 403.105 111.521 404.924 107.912C405.163 107.446 405.45 107.004 406.001 106.841C406.073 106.818 406.145 106.864 406.216 106.888C406.288 106.934 406.36 107.004 406.36 107.051C406.336 107.26 406.336 107.493 406.264 107.702C405.427 110.24 404.517 112.778 403.727 115.339C403.32 116.689 403.033 118.086 402.793 119.483C402.554 120.973 402.626 122.44 403.152 123.883C403.368 124.465 403.703 124.954 404.182 125.327C404.708 125.722 405.307 125.769 405.905 125.513C406.695 125.164 407.27 124.582 407.772 123.906C408.084 123.487 408.347 123.022 408.658 122.603C408.73 122.509 408.945 122.486 409.065 122.533C409.185 122.556 409.328 122.696 409.376 122.812C409.424 122.929 409.448 123.115 409.424 123.254C409.137 125.094 408.586 126.886 407.605 128.493C407.294 129.005 406.911 129.471 406.528 129.936C405.379 131.333 402.865 131.263 401.668 129.866C401.166 129.284 400.807 128.656 400.639 127.911C400.352 126.723 400.232 125.536 400.256 124.558Z" fill="#E19F46"/>
<path d="M328.92 56.2964C328.849 56.436 328.801 56.6686 328.657 56.8082C328.442 57.0176 328.178 57.227 327.891 57.2735C327.149 57.4596 326.431 57.6457 325.785 58.0412C325.569 58.1808 325.186 57.8086 325.21 57.5294C325.258 56.7152 325.593 56.087 326.359 55.7613C326.838 55.552 327.364 55.3891 327.867 55.2728C328.346 55.1332 328.944 55.7148 328.92 56.2964Z" fill="#E19F46"/>
<path d="M596.354 150.679C596.331 150.818 596.331 151.005 596.235 151.074C595.971 151.307 595.66 151.54 595.349 151.703C595.11 151.842 594.679 151.703 594.559 151.493C594.2 150.865 593.865 150.214 593.889 149.469C593.889 149.33 594.224 149.05 594.368 149.097C595.205 149.306 595.852 149.748 596.283 150.47C596.331 150.539 596.331 150.609 596.354 150.679Z" fill="#114C7B" stroke="white" stroke-width="0.25" stroke-miterlimit="10"/>
<path d="M771.867 6.96306C771.819 7.28876 771.508 7.7773 770.885 8.00994C770.694 8.07973 770.43 8.05646 770.239 7.98667C769.856 7.87035 769.617 7.56792 769.449 7.24223C769.21 6.82348 769.401 6.28841 769.832 6.14883C770.335 5.98598 770.861 5.89293 771.388 6.00925C771.651 6.07904 771.939 6.40473 771.867 6.96306Z" fill="#E19F46"/>
<path d="M168.034 107.214C163.295 105.864 161.547 108.331 160.087 111.288C159.824 111.8 159.584 112.313 159.393 112.848C155.395 124.419 141.559 127.026 132.487 119.53C127.651 115.549 123.845 110.334 119.704 105.584C116.544 101.976 113.576 98.1807 110.344 94.2694C111.11 99.368 112.211 103.908 112.403 108.494C112.834 119.204 108.238 124.396 97.3698 126.212C96.4601 126.375 95.5505 126.584 94.21 126.863C94.21 130.1 94.2818 133.382 94.186 136.665C94.1142 139.435 92.7498 140.646 89.8533 139.622C83.7731 137.48 76.4002 132.172 77.4056 123.86C77.6689 121.695 76.4002 121.392 74.7724 121.183C68.2613 120.298 62.5641 122.393 57.202 125.676C47.6508 131.52 40.3498 139.645 33.0966 147.863C30.7507 150.541 28.309 153.148 25.6998 155.616C21.3192 159.783 15.8853 161.832 10.0205 159.318C4.68234 157.036 1.33104 152.17 0.445339 146.56C-1.18244 136.292 3.62908 125.606 9.54173 117.388C9.85292 116.946 10.3796 116.596 10.8583 116.294C11.2892 116.038 11.9834 116.038 12.3903 116.131C11.2174 119.902 9.06297 123.557 7.55489 127.213C6.0468 130.845 4.39509 134.43 3.60514 138.295C2.76731 142.346 2.83913 147.305 5.97499 150.448C11.0259 155.546 18.5902 151.495 23.1145 147.77C32.2588 140.25 39.5598 130.728 48.2014 122.673C54.497 116.806 61.8699 112.336 70.8466 111.218C72.6898 110.985 74.5809 111.218 76.4241 111.055C77.7168 110.939 78.9615 110.497 80.8048 110.077C81.8341 111.032 83.39 113.104 85.4966 114.245C92.3428 117.923 99.3566 117.271 106.346 114.291C109.339 113.011 109.937 110.706 108.764 108.145C107.112 104.537 105.628 100.648 103.091 97.6452C95.5505 88.7051 87.6749 79.9978 79.6318 71.4535C75.3709 66.9369 70.4636 63.0024 66.059 58.6022C64.9579 57.5079 63.9286 55.6221 64.0722 54.2253C64.7185 48.0324 65.0536 40.5823 70.9663 36.9271C79.9669 31.3396 90.2842 27.1489 99.9551 22.8418C110.224 18.2787 120.661 13.9949 131.122 9.85077C131.338 9.75765 131.553 9.6878 131.745 9.59467C136.293 7.802 140.865 6.00933 145.413 4.21666C148.19 3.12243 151.302 2.70336 154.294 2.4007C163.654 1.46944 161.428 10.8984 158.77 16.2997C157.406 18.0691 156.592 20.7465 155.611 22.7487C154.509 25.007 153.408 27.2653 152.307 29.5003C150.464 33.2719 148.836 37.0901 146.682 40.6987C146.466 41.0479 144.503 43.3528 144.791 41.6998C145.748 36.2985 148.669 31.5258 151.182 26.7066C152.259 24.6112 158.028 14.1346 153.001 13.3197C149.411 12.7377 145.7 13.5758 142.301 14.7166C121.427 21.7476 101.128 30.3385 81.3553 39.8839C77.2859 41.8395 72.5701 43.4925 68.8598 46.0535C65.5803 48.2885 68.3571 50.4769 70.679 52.2463C76.6396 56.8095 82.8874 61.0234 89.0873 65.3305C103.594 75.4114 115.036 88.5421 126.765 101.37C129.782 104.653 132.941 108.005 136.628 110.497C145.581 116.596 154.677 114.222 159.895 104.886C161.068 102.79 162.026 100.555 163.438 98.6463C164.037 97.8314 165.617 97.3425 166.694 97.4124C167.197 97.4357 167.891 99.1119 167.986 100.113C168.178 102.325 168.034 104.467 168.034 107.214Z" fill="#114C7B" stroke="white" stroke-width="0.25" stroke-miterlimit="10"/>
<path d="M13.373 60.8837C30.4407 47.1942 51.3146 38.58 67.3529 22.8883C65.031 21.6311 63.0681 20.6999 61.2727 19.5591C58.1129 17.5336 57.0357 15.2287 58.8311 12.0391C60.8418 8.47708 63.3793 4.98486 66.4433 2.23765C69.8185 -0.812225 73.6486 0.794196 73.9119 5.24096C74.1274 9.0824 73.3374 12.9937 72.9305 17.4172C73.5768 17.7664 74.9173 18.4648 76.569 19.3262C75.7073 21.0956 74.8934 22.7952 74.0077 24.6111C72.3799 24.1921 71.0154 23.8428 69.8185 23.5402C55.0249 41.9791 33.9117 50.989 13.373 60.8837ZM70.7521 16.742C70.7042 16.0668 70.8718 15.3451 70.8957 14.6467C70.9915 11.946 69.5792 9.61787 68.1908 7.35957C67.9753 7.01035 67.6881 7.05691 67.3529 7.24316C65.8927 8.0813 64.3846 8.89615 63.0681 9.94381C61.3924 11.2709 61.9669 12.5746 63.7383 13.436C66.0603 14.6001 68.3823 15.7642 70.7521 16.742Z" fill="#E19F46"/>
<path d="M32.6415 107.772C32.6654 107.726 32.6893 107.726 32.7372 107.703C35.9449 106.236 39.1526 104.769 42.3363 103.302C43.9641 102.557 45.5918 101.812 47.1957 101.067C48.0096 100.695 48.8235 100.322 49.6373 99.9499C50.0682 99.7636 50.4991 99.5774 50.9061 99.3678C51.2891 99.1583 51.4087 98.8789 51.3369 98.4366C51.313 98.2503 51.2172 98.0641 51.0257 97.971C50.93 97.9244 50.8103 97.9011 50.6906 97.9011C43.7965 97.3191 36.9263 96.7137 30.0322 96.1317C32.45 93.0586 34.6522 90.0552 37.1418 87.2848C37.7642 86.5863 39.2722 86.2604 40.3255 86.3768C45.9749 86.9588 51.6721 87.471 57.2496 88.4954C61.5584 89.287 62.4441 91.7548 60.1461 95.5497C57.3693 100.136 53.4674 104.117 48.3926 106.259C43.7965 108.215 38.6738 108.308 33.7426 108.797C33.5272 108.82 33.2878 108.843 33.0723 108.774C32.5936 108.634 32.7372 108.261 32.6175 107.912C32.6415 107.842 32.6415 107.796 32.6415 107.772Z" fill="#E19F46"/>
<path d="M106.489 145.419C105.795 148.329 103.617 149.819 101.151 151.03C94.161 154.382 87.1712 157.735 79.2717 158.573C78.5296 158.643 77.7875 158.759 76.9258 158.503C78.2902 157.967 79.6786 157.432 81.0431 156.896C87.2909 154.359 93.5865 151.891 99.8104 149.283C102.97 147.956 105.843 146.21 107.04 142.765C107.183 142.322 107.542 141.926 107.854 141.531C109.84 138.923 111.708 139.156 113.072 142.159C113.12 142.276 113.216 142.392 113.192 142.508C113.096 144.045 113 145.582 112.88 147.118C111.516 146.979 110.104 146.932 108.763 146.653C107.997 146.42 107.327 145.861 106.489 145.419ZM111.301 144.394C111.636 144.255 111.731 143.975 111.372 143.486C111.109 143.137 110.87 142.788 110.487 142.578C109.984 142.276 108.763 142.299 108.452 142.858C107.734 144.092 110.487 144.744 111.301 144.394Z" fill="#E19F46"/>
<path d="M152.882 70.8713C153.408 70.4057 153.408 68.7294 153.504 68.1939C153.959 65.6563 154.39 63.1186 154.844 60.6042C155.132 58.9279 155.491 57.1585 156.688 55.9246C158.148 54.4113 160.781 54.1552 162.528 55.3426C164.276 56.5299 164.898 59.0443 163.941 60.8836C163.773 61.1862 163.558 61.4889 163.247 61.6519C162.624 61.9312 161.882 61.5122 161.403 61.0465C160.901 60.5809 160.446 59.9989 159.776 59.8592C159.057 59.7195 158.291 60.1386 157.885 60.7439C157.454 61.3492 157.31 62.0709 157.142 62.7694C156.4 66.1685 155.898 69.5908 155.156 72.9899C154.868 74.2937 154.701 77.134 153.815 78.1584C152.786 79.3225 151.9 77.6462 151.349 76.5054C150.44 74.5964 149.53 72.664 148.621 70.7549C147.328 68.0077 145.317 66.96 142.732 65.5166C142.277 65.2605 137.729 62.3969 137.37 62.7228C129.662 69.9866 122.026 74.6662 115.802 75.3414C118.674 73.4788 121.14 72.0354 123.438 70.3824C126.765 67.9844 130.141 65.633 133.396 63.1186C135.718 61.3492 138.519 57.5776 141.894 58.1131C143.45 58.3692 144.623 59.5798 145.628 60.7904C147.663 63.235 149.458 65.8658 150.99 68.613C151.23 69.0554 151.972 70.9179 152.522 71.011C152.642 71.011 152.762 70.9644 152.882 70.8713Z" fill="#E19F46"/>
<path d="M148.263 143.929C150.058 140.786 151.638 138.062 153.314 135.105C156.928 137.177 160.232 139.039 163.798 141.088C162.099 144.092 160.495 146.932 158.795 149.912C155.205 147.863 151.925 146.001 148.263 143.929Z" fill="#114C7B"/>
<path d="M390.513 29.6865C389.986 29.5002 389.46 29.6632 388.933 29.8262C387.042 30.4315 385.151 31.0368 383.284 31.712C378.329 33.5046 373.421 35.3206 368.466 37.1366C362.889 39.1853 357.287 41.1643 351.71 43.2363C344.217 46.0301 336.701 48.754 329.065 51.2218C328.777 51.315 328.49 51.4314 328.227 51.5711L327.676 51.7573C327.676 51.7573 325.139 55.7617 325.043 57.7872C324.947 59.8127 331.77 56.0877 331.77 56.0877C331.889 56.0411 332.009 55.9945 332.153 55.948C333.924 55.2495 335.695 54.5278 337.467 53.8527C342.302 52.0134 347.162 50.1975 351.997 48.3582C356.641 46.6121 361.261 44.8893 365.905 43.1432C369.543 41.7929 373.182 40.4425 376.821 39.0922C379.741 37.998 382.661 36.8805 385.582 35.7862C386.085 35.6 386.611 35.4836 387.09 35.274C387.641 35.0412 388.239 34.7851 388.694 34.4126C390.034 33.2951 390.465 31.712 390.968 30.1056C390.824 29.9426 390.681 29.7563 390.513 29.6865Z" fill="#E19F46"/>
<path d="M619.264 54.3415C618.977 52.5488 618.259 50.9191 617.278 49.3825C617.038 48.9867 616.655 48.7306 616.248 48.5211C615.841 48.3116 615.267 48.4047 614.979 48.7306C613.495 50.5233 612.658 52.5488 612.442 54.8537C612.251 57.0654 612.753 59.1375 613.495 61.2095C613.639 61.6286 613.83 62.0477 613.95 62.4667C614.142 63.072 613.902 63.6541 613.328 64.0266C612.083 64.8414 610.719 65.2605 609.21 65.2605C606.984 65.2605 605.021 64.4922 603.346 63.072C601.981 61.908 601.383 60.4412 601.67 58.6718C601.814 57.7173 602.029 56.7628 602.149 55.8082C602.269 54.9235 602.316 54.0388 602.34 53.1308C602.364 52.4324 601.718 52.0366 601.096 52.2694C600.162 52.6419 599.324 53.1541 598.75 53.9923C598.127 54.9235 597.529 55.8781 596.906 56.8326C595.733 58.6718 594.608 60.5344 593.411 62.3503C592.502 63.7239 591.449 65.0277 590.108 66.0521C587.403 68.1241 584.315 68.9855 580.916 69.0088C577.804 69.0321 575.267 67.868 573.256 65.5864C572.202 64.3991 571.293 63.0953 570.575 61.6984C569.713 60.0222 568.923 58.3459 568.061 56.6696C567.511 55.5987 566.936 54.551 566.362 53.5033C566.003 52.8515 565.428 52.5488 564.662 52.5954C561.742 52.7583 559.132 53.6896 556.858 55.4823C556.332 55.9013 555.805 56.3437 555.302 56.8093C554.01 57.9967 552.933 59.347 551.975 60.7905C548.959 65.3536 547.092 70.3824 545.943 75.6673C545.703 76.7615 545.512 77.8558 545.272 78.95C545.177 79.4156 544.842 79.7416 544.339 79.858C543.884 79.9744 543.453 80.0675 542.998 80.1141C541.634 80.277 540.293 80.6495 538.977 81.0453C537.134 81.5808 535.434 82.4189 533.854 83.5132C531.987 84.8402 530.407 86.4466 528.971 88.216C527.319 90.2648 525.883 92.4765 524.494 94.7116C521.861 98.9488 520.425 103.512 520.305 108.471C520.257 110.473 520.257 112.499 520.233 114.501C520.233 115.106 520.233 115.688 520.186 116.293C520.138 116.852 519.803 117.248 519.204 117.388C516.595 117.97 513.986 118.528 511.352 119.087C510.539 119.273 509.701 119.413 508.863 119.553C507.044 119.902 505.224 120.065 503.381 119.995C500.197 119.856 497.636 118.575 495.841 115.968C495.506 115.479 495.194 114.943 494.931 114.431C493.686 112.08 493.016 109.565 492.585 106.981C491.699 101.649 491.388 96.2481 491.173 90.8468C491.34 90.7071 491.436 90.614 491.436 90.614L490.55 74.8292C490.55 74.5731 490.527 74.2937 490.527 74.0376H490.503L490.359 71.3835C490.359 71.3137 490.359 71.2206 490.335 71.1507C490.311 70.5687 490.263 69.9866 490.239 69.3813L490.191 68.5665C490.096 67.0532 490.024 65.5399 489.952 64.0033C489.761 60.2783 489.713 56.5765 489.449 52.8515C489.186 49.2196 489.114 45.5644 488.803 41.9325C488.42 37.346 488.109 32.7363 487.558 28.1498C486.888 22.6787 486.146 17.2308 484.925 11.8528C484.398 9.52465 483.752 7.21979 482.938 4.98477C482.459 3.65772 481.789 2.40052 481.191 1.12004C480.975 0.654413 480.137 0.654413 479.826 1.07348C479.348 1.74864 479.084 2.51693 478.869 3.33178C478.031 6.84728 477.911 10.4094 477.983 13.9714C478.055 17.5568 478.629 21.0955 479.084 24.6343C479.419 27.2186 479.922 29.7795 480.305 32.3405C480.832 35.8094 481.286 39.2551 481.717 42.7473C482.268 47.1009 482.603 51.4779 482.89 55.8548C483.154 60.0687 483.513 64.2594 483.585 68.4733L483.273 68.5432C483.273 68.5432 483.8 85.981 483.92 91.685C483.92 92.1273 483.991 92.4765 484.063 92.7792C484.063 93.4776 484.087 94.1994 484.111 94.9909C484.063 96.2481 484.039 98.1805 483.92 100.113C483.728 103.163 483.249 106.189 482.316 109.123C481.215 112.615 479.778 115.991 478.055 119.227C477.911 119.483 477.768 119.762 477.576 119.972C477.432 120.135 477.241 120.275 477.049 120.391C477.002 120.438 476.906 120.414 476.834 120.391C476.786 120.368 476.69 120.321 476.69 120.251C476.666 120.042 476.619 119.809 476.643 119.599C476.906 118.133 477.169 116.666 477.48 115.199C477.768 113.802 477.863 112.405 477.887 110.985C478.007 106.841 477.145 102.837 475.853 98.9022C474.68 95.3402 472.932 92.0342 470.85 88.8912C469.102 86.2604 467.211 83.746 465.2 81.3014C461.227 76.4589 456.918 71.919 452.441 67.5188C448.779 63.9102 445.045 60.3947 441.358 56.8093C437.744 53.2705 434.105 49.755 430.538 46.1697C427.235 42.8404 424.003 39.4646 420.819 36.0422C419.263 34.3893 417.851 32.6432 416.391 30.9203C416.104 30.5711 415.864 30.1986 415.625 29.8028C415.433 29.4769 415.721 29.0345 416.152 29.0578C416.463 29.0578 416.774 29.0578 417.061 29.1044C418.21 29.2441 419.335 29.3837 420.484 29.5002C420.772 29.5234 421.083 29.4769 421.394 29.4536C421.562 29.4536 421.753 29.1044 421.681 28.9181C421.609 28.7086 421.538 28.4758 421.394 28.3128C420.676 27.5445 419.982 26.7529 419.216 26.0312C416.056 23.0977 412.561 20.5601 408.97 18.1388C407.079 16.8583 405.116 15.7175 403.177 14.5302C402.914 14.3672 402.627 14.2741 402.339 14.1809C402.1 14.0878 401.645 14.3672 401.621 14.6C401.597 14.8328 401.573 15.0424 401.573 15.2752C401.502 17.3472 401.43 19.4426 401.358 21.5379C401.334 22.7252 401.31 23.9126 401.286 25.1232C401.286 25.682 401.502 26.1243 401.956 26.4736C402.076 26.5667 402.196 26.6598 402.315 26.7529C404.254 28.243 405.906 30.0123 407.342 31.9447C408.563 33.5744 409.664 35.274 410.837 36.9269C411.915 38.4635 412.944 40.0234 414.045 41.56C416.582 45.0289 419.503 48.1719 422.495 51.2683C425.272 54.132 428.12 56.9723 430.849 59.8825C434.225 63.4445 437.72 66.8669 441.31 70.2427C445.834 74.48 450.502 78.5542 454.811 83.001C457.636 85.9344 460.461 88.8679 462.998 92.0575C466.637 96.6206 469.629 101.533 471.544 107.004C472.645 110.124 473.435 113.29 473.77 116.573C473.914 117.9 474.033 119.25 474.105 120.577C474.177 121.625 474.177 122.649 474.177 123.697C474.177 124.163 473.985 124.582 473.674 124.908C473.267 125.35 472.836 125.769 472.382 126.188C471.137 127.282 469.892 128.377 468.623 129.471C464.817 132.707 460.82 135.734 456.583 138.411C449.712 142.741 442.747 146.932 435.445 150.564C435.302 150.634 435.182 150.703 435.062 150.797C434.799 150.983 434.656 151.239 434.656 151.542C434.656 151.798 434.943 152.077 435.23 152.17C435.972 152.403 436.738 152.403 437.504 152.356C438.964 152.24 440.425 152.17 441.837 151.914C445.38 151.309 448.899 150.587 452.346 149.539C457.923 147.84 463.213 145.512 468.073 142.322C471.52 140.064 474.608 137.41 477.265 134.29C480.09 130.961 482.1 127.236 483.202 123.068C483.752 120.973 484.279 118.878 484.829 116.782C485.117 115.711 485.428 114.617 485.739 113.546C485.763 113.453 485.954 113.337 486.074 113.313C486.194 113.29 486.409 113.36 486.457 113.453C486.673 113.849 486.912 114.245 487.008 114.664C487.391 116.177 487.75 117.714 488.061 119.25C488.3 120.507 488.588 121.718 488.947 122.952C489.449 124.558 490.287 125.955 491.484 127.143C494.476 130.123 498.091 131.939 502.376 132.334C505.129 132.59 507.881 132.404 510.61 131.869C514.297 131.147 517.864 129.983 521.311 128.563C523.345 127.725 525.38 126.84 527.415 125.955C528.348 125.536 529.33 125.42 530.335 125.653C530.862 125.769 531.365 125.932 531.867 126.095C532.729 126.374 533.591 126.7 534.476 126.98C536.655 127.725 538.905 128.12 541.227 128.097C543.693 128.074 546.11 127.911 548.552 127.515C552.19 126.933 555.733 126.002 559.204 124.814C561.454 124.046 563.585 123.068 565.62 121.834C568.564 120.065 570.766 117.644 572.346 114.664C573.399 112.662 574.141 110.543 574.692 108.378C575.219 106.352 575.482 104.28 575.386 102.185C575.219 99.0652 574.022 96.4111 571.628 94.2925C570.479 93.2914 569.21 92.4532 567.87 91.7548C566.05 90.8003 564.159 90.0087 562.244 89.2171C560.425 88.4721 558.606 87.6573 556.787 86.8424C555.59 86.3069 554.512 85.6085 553.483 84.8402C552.334 83.9555 551.353 82.9311 550.611 81.6739C549.653 80.0442 549.318 78.368 549.94 76.5287C550.299 75.4578 550.754 74.4334 551.377 73.5021C553.507 70.2427 556.308 67.6352 559.731 65.6796C559.994 65.5399 560.281 65.4002 560.545 65.2838C561.167 65.051 561.742 65.1441 562.244 65.5864C563.202 66.4478 564.016 67.449 564.614 68.5897C565.213 69.7073 565.763 70.848 566.338 71.9888C566.864 73.0598 567.367 74.154 567.894 75.225C568.42 76.2959 569.115 77.297 569.904 78.205C570.958 79.4389 572.25 80.3702 573.782 80.9056C576.583 81.8835 579.456 82.0697 582.376 81.3946C584.794 80.8358 586.948 79.7416 588.887 78.2283C590.635 76.8547 592.095 75.2482 593.411 73.5021C593.818 72.9667 594.177 72.3846 594.584 71.8492C594.752 71.6163 594.967 71.3835 595.159 71.1507C595.398 70.8713 595.901 70.8946 596.164 71.2205C596.404 71.4999 596.643 71.8026 596.882 72.1052C597.409 72.7571 597.912 73.409 598.438 74.0376C599.324 75.1086 600.425 75.8768 601.766 76.3425C604.16 77.2039 606.577 77.2039 608.971 76.4822C611.389 75.7372 613.304 74.317 614.788 72.3381C615.602 71.2438 616.248 70.0798 616.871 68.8691C619.336 64.2827 620.078 59.4401 619.264 54.3415ZM533.83 111.381C532.849 111.963 531.819 112.429 530.67 112.662C529.904 112.825 529.138 112.801 528.444 112.452C526.17 111.335 524.782 109.612 524.686 107.027C524.614 105.258 525.165 103.628 526.026 102.138C528.755 97.3191 532.753 93.92 538.115 92.104C538.833 91.8479 539.575 91.6617 540.341 91.6617C540.844 91.6617 541.251 91.8712 541.49 92.2903C542.424 94.0131 543.118 95.8058 543.525 97.7149C543.621 98.2271 543.621 98.7393 543.645 98.9721C543.645 100.322 543.453 101.323 543.022 102.301C542.352 103.815 541.442 105.188 540.269 106.376C538.33 108.331 536.2 110.007 533.83 111.381ZM549.964 96.9466C551.353 97.7381 552.789 98.4133 554.273 99.0186C555.973 99.7171 557.696 100.322 559.396 100.998C561.239 101.719 563.106 102.418 564.83 103.396C565.763 103.908 566.673 104.49 567.511 105.095C568.684 105.956 569.641 107.004 570.264 108.331C570.431 108.68 570.383 109.076 570.144 109.379C569.928 109.682 569.665 109.961 569.402 110.217C568.325 111.172 567.056 111.893 565.715 112.429C563.657 113.244 561.526 113.849 559.348 114.291C555.063 115.199 550.73 115.618 546.445 115.874C544.985 115.898 543.621 115.944 542.232 115.968C541.945 115.968 541.634 115.874 541.347 115.805C541.179 115.781 540.988 115.409 541.035 115.269C541.083 115.06 541.131 114.827 541.227 114.64C542.113 113.15 542.998 111.684 543.884 110.194C544.818 108.657 545.823 107.144 546.397 105.444C546.852 104.094 547.283 102.744 547.69 101.393C548.025 100.253 548.336 99.0885 548.672 97.9477C548.743 97.6683 548.935 97.4122 549.102 97.1561C549.27 96.9466 549.749 96.8069 549.964 96.9466Z" fill="#114C7B" stroke="white" stroke-width="0.25" stroke-miterlimit="10"/>
<path d="M662.422 105.118C661.752 100.183 660.077 95.573 657.396 91.3358C656.103 89.287 654.619 87.4012 652.847 85.7483C651.794 84.7704 650.645 83.909 649.328 83.2571C648.491 82.8381 647.629 82.582 646.695 82.5121C644.756 82.3492 642.889 82.582 641.094 83.3735C639.251 84.1884 637.623 85.2826 636.234 86.7028C632.787 90.2183 630.848 94.4322 630.346 99.2748C630.178 100.835 630.37 102.395 630.729 103.931C631.231 106.003 632.428 107.586 634.224 108.727C635.181 109.332 636.258 109.751 637.36 110.054C639.298 110.566 641.261 110.776 643.248 110.939C645.379 111.102 647.509 111.311 649.64 111.498C651.1 111.637 652.512 111.963 653.877 112.429C654.906 112.778 655.84 113.267 656.701 113.896C657.802 114.71 657.946 115.176 657.419 116.363C656.845 117.667 656.031 118.854 655.121 119.949C653.398 122.044 651.435 123.93 649.424 125.769C646.001 128.866 642.339 131.683 638.556 134.337C633.218 138.085 627.689 141.554 621.728 144.348C618.401 145.908 614.954 147.095 611.243 147.467C609.4 147.654 607.533 147.793 605.666 147.654C605.546 147.537 605.474 147.467 605.474 147.467C605.474 147.467 600.088 146.885 596.258 144.511C595.229 143.789 594.343 142.974 593.577 142.089C593.434 141.88 593.266 141.694 593.122 141.531C592.117 140.227 591.351 138.76 590.824 137.13C590.106 134.989 589.795 132.777 589.747 130.542C589.675 127.911 590.01 125.327 590.609 122.789C591.183 120.321 591.878 117.877 592.476 115.409C592.955 113.453 593.362 111.474 593.769 109.519C593.841 109.239 593.817 108.937 593.769 108.634C593.745 108.518 593.577 108.401 593.457 108.355C593.338 108.308 593.098 108.331 593.027 108.424C592.596 109.03 592.141 109.635 591.806 110.287C590.369 112.941 589.388 115.758 588.646 118.645C587.353 123.557 586.516 128.563 586.516 131.892C586.468 137.363 586.659 141.112 587.617 144.767C587.617 144.767 588.239 152.613 596.258 157.222C596.426 157.455 596.641 157.641 596.928 157.804C599.418 159.108 602.003 159.876 604.708 160.086C604.708 160.086 604.708 160.086 604.732 160.086C608.036 160.621 610.022 160.389 611.076 159.69C612.919 159.364 614.714 158.899 616.486 158.293C620.627 156.896 624.529 155.011 628.263 152.799C636.953 147.677 644.756 141.461 651.818 134.383C654.02 132.195 655.935 129.774 657.587 127.166C660.005 123.371 661.585 119.297 662.279 114.897C662.877 111.661 662.877 108.378 662.422 105.118ZM649.448 99.7637C649.137 99.787 648.85 99.787 648.538 99.787C647.844 99.7637 647.174 99.6939 646.6 99.6706C644.828 99.7637 643.152 99.6473 641.477 99.4145C640.471 99.2748 639.562 98.9256 638.7 98.4367C638.102 98.0874 637.623 97.6218 637.288 97.0165C637.048 96.6207 637 96.1551 637.264 95.736C638.078 94.3624 639.251 93.501 640.878 93.338C641.884 93.2449 642.841 93.4079 643.751 93.8269C644.78 94.3158 645.786 94.8513 646.623 95.5963C647.629 96.5043 648.61 97.4355 649.592 98.3668C649.759 98.5065 649.831 98.7393 649.951 98.9256C650.142 99.2515 649.831 99.7404 649.448 99.7637Z" fill="#114C7B" stroke="white" stroke-width="0.25" stroke-miterlimit="10"/>
<path d="M814.787 117.388C814.787 117.364 814.787 117.364 814.787 117.341C814.787 116.666 814.787 116.014 814.787 115.339C814.763 115.339 814.763 115.339 814.739 115.339C814.715 114.524 814.691 113.709 814.643 112.894C814.643 112.778 814.619 112.662 814.595 112.522C814.38 107.4 814.092 102.627 813.709 100.439C813.255 94.9211 812.776 89.4267 812.321 83.909C811.938 79.4622 811.555 75.0154 811.196 70.5454C811.052 68.6829 810.933 66.8204 810.789 64.9811C810.55 61.8614 810.31 58.7417 810.071 55.622C810.095 55.622 810.119 55.622 810.143 55.622C810.095 54.6441 810.023 53.6896 809.999 52.7118C809.927 51.2218 809.855 49.7318 809.808 48.2417C809.808 48.0322 809.855 47.7994 809.879 47.5899C809.903 47.4036 810.238 47.2174 810.406 47.2639C810.621 47.3338 810.837 47.4036 811.028 47.52C811.866 48.1719 812.656 48.8703 813.518 49.4989C813.925 49.8016 814.308 50.4069 814.882 50.1275C815.553 49.7783 815.17 49.0799 815.17 48.5211C815.17 48.3814 815.122 48.2185 815.098 48.0788C814.571 44.9125 813.638 41.8393 812.465 38.836C811.411 36.1121 810.358 33.4114 809.185 30.7341C808.156 28.3361 806.983 25.9847 805.858 23.6099C805.786 23.4703 805.69 23.3538 805.618 23.2374C805.355 22.8417 804.709 22.8417 804.445 23.2142C803.201 25.0301 802.243 26.9392 801.764 29.1044C801.262 31.386 801.214 33.6675 801.669 35.9724C801.98 37.509 802.291 39.0456 802.435 40.6054C802.65 42.9103 802.698 45.2151 802.818 47.52C802.913 49.2196 802.961 50.9424 803.057 52.6419C803.129 53.969 803.272 55.3193 803.368 56.6463C803.536 59.0909 803.679 61.5587 803.847 64.0033C804.23 69.358 804.637 74.6895 804.996 80.0442C805.547 88.0763 806.097 96.0852 806.648 104.117C806.743 105.374 806.839 106.632 806.887 107.912C806.911 108.424 806.983 108.89 807.126 109.356C807.27 111.032 807.438 112.988 807.605 115.129C807.605 115.153 807.581 115.153 807.581 115.176C807.533 115.386 807.486 115.618 807.486 115.828C807.581 117.527 807.725 119.25 807.797 120.95C807.821 121.555 807.893 121.974 808.108 122.254C808.18 123.418 808.276 124.582 808.347 125.746C808.228 126.002 808.18 126.281 808.132 126.398C808.228 127.562 808.299 128.54 808.395 129.494C808.419 129.634 808.491 129.773 808.539 129.913C808.563 129.936 808.563 129.983 808.587 130.006C808.659 131.38 808.706 132.707 808.754 133.918C808.73 134.011 808.706 134.104 808.706 134.197C808.659 134.569 808.682 134.942 808.682 135.314C808.706 136.269 808.778 137.247 808.778 138.201C808.778 138.597 808.778 139.016 808.778 139.412C808.754 139.738 808.754 140.017 808.754 140.273C808.682 142.997 808.443 145.721 808.156 148.445C807.94 150.517 807.869 152.589 807.94 154.685C807.94 154.964 808.395 155.197 808.611 155.034C808.802 154.917 809.018 154.824 809.161 154.661C809.688 154.126 810.095 153.497 810.43 152.822C811.076 151.472 811.531 150.052 811.962 148.631C812.967 145.349 813.662 141.996 814.236 138.62C814.667 136.083 814.978 133.522 815.122 130.961C815.122 130.961 815.122 130.961 815.122 130.938C815.17 130.169 815.194 129.424 815.194 128.656C815.194 127.469 815.17 126.281 815.194 125.094C815.218 124.419 815.122 123.79 814.93 123.185C814.93 121.415 814.858 119.436 814.787 117.388Z" fill="#114C7B" stroke="white" stroke-width="0.25" stroke-miterlimit="10"/>
</svg>
